<svg width="1124" height="583" fill="none" xmlns="http://www.w3.org/2000/svg"><path d="M359.376 384.913v90.164h-44.41v95.628H195.402v-95.628H0v-79.919L129.813 83l103.85 37.568L125.03 384.913h71.739l13.664-112.022h104.533v112.022h44.41zM562 83.683c56.024 0 99.068 21.403 129.129 64.208C721.647 190.24 736.905 251.944 736.905 333c0 81.056-15.258 142.987-45.776 185.792C661.068 561.597 618.024 583 562 583c-56.024 0-99.295-21.403-129.813-64.208-30.061-42.805-45.092-104.736-45.092-185.792s15.031-142.76 45.092-185.109C462.705 105.086 505.976 83.683 562 83.683zm0 88.798c-12.298 0-22.091 4.781-29.379 14.344-7.287 9.563-12.753 25.956-16.397 49.18-3.188 23.225-4.783 55.556-4.783 96.995 0 41.894 1.595 74.454 4.783 97.678 3.644 23.224 9.11 39.617 16.397 49.18 7.288 9.563 17.081 14.344 29.379 14.344 12.298 0 22.091-4.554 29.379-13.661 7.287-9.107 12.525-25.273 15.714-48.497 3.644-23.224 5.466-56.239 5.466-99.044s-1.822-75.82-5.466-99.044c-3.189-23.224-8.427-39.162-15.714-47.814-7.288-9.107-17.081-13.661-29.379-13.661zm562 212.432v90.164h-44.41v95.628H960.026v-95.628H764.624v-79.919L894.437 83l103.85 37.568-108.633 264.345h71.739l13.664-112.022h104.533v112.022H1124z" fill="#F0F4F6"/><circle cx="432" cy="50" r="50" fill="#F0F4F6"/><circle cx="692" cy="50" r="50" fill="#F0F4F6"/></svg>