<svg width="256" height="50" fill="none" xmlns="http://www.w3.org/2000/svg"><path opacity=".6" d="M232.612 20.186c.607 0 1.129.117 1.568.35a2.43 2.43 0 011.022.966c.243.41.364.873.364 1.386 0 .588-.135 1.157-.406 1.708-.271.55-.709 1.162-1.316 1.834-.597.663-1.447 1.493-2.548 2.492h4.494L235.636 30h-5.81v-1.022c1.251-1.204 2.175-2.142 2.772-2.814.607-.672 1.027-1.246 1.26-1.722.243-.476.364-.975.364-1.498s-.149-.933-.448-1.232c-.299-.308-.709-.462-1.232-.462-.448 0-.826.08-1.134.238-.299.159-.602.42-.91.784l-.868-.672c.383-.476.812-.83 1.288-1.064.476-.233 1.041-.35 1.694-.35zm5.888 8.036a.95.95 0 01.7.28c.187.187.28.415.28.686a.98.98 0 01-.28.7.95.95 0 01-.7.28.933.933 0 01-.686-.28.979.979 0 01-.28-.7c0-.27.093-.5.28-.686a.933.933 0 01.686-.28zm0-5.152a.95.95 0 01.7.28c.187.187.28.415.28.686a.98.98 0 01-.28.7.95.95 0 01-.7.28.933.933 0 01-.686-.28.979.979 0 01-.28-.7c0-.27.093-.5.28-.686a.933.933 0 01.686-.28zm5.211-2.884c.598 0 1.12.112 1.568.336.458.215.808.509 1.05.882.252.364.378.765.378 1.204 0 .579-.182 1.069-.546 1.47-.354.392-.812.649-1.372.77.392.028.756.14 1.092.336.346.187.621.457.826.812.206.355.308.765.308 1.232 0 .55-.144 1.05-.434 1.498a2.93 2.93 0 01-1.19 1.064c-.513.252-1.101.378-1.764.378a4.447 4.447 0 01-1.68-.322 3.416 3.416 0 01-1.33-.98l.812-.686a2.932 2.932 0 002.156.938c.654 0 1.162-.168 1.526-.504.374-.345.56-.812.56-1.4 0-1.195-.653-1.792-1.96-1.792h-.812l.154-.994h.574c.504 0 .929-.14 1.274-.42.346-.28.518-.686.518-1.218 0-.495-.168-.882-.504-1.162-.336-.28-.76-.42-1.274-.42-.401 0-.76.07-1.078.21-.308.14-.625.364-.952.672l-.7-.77c.794-.756 1.727-1.134 2.8-1.134zm7.834 0c.598 0 1.12.112 1.568.336.458.215.808.509 1.05.882.252.364.378.765.378 1.204 0 .579-.182 1.069-.546 1.47-.354.392-.812.649-1.372.77.392.028.756.14 1.092.336.346.187.621.457.826.812.206.355.308.765.308 1.232 0 .55-.144 1.05-.434 1.498a2.93 2.93 0 01-1.19 1.064c-.513.252-1.101.378-1.764.378a4.447 4.447 0 01-1.68-.322 3.416 3.416 0 01-1.33-.98l.812-.686a2.932 2.932 0 002.156.938c.654 0 1.162-.168 1.526-.504.374-.345.56-.812.56-1.4 0-1.195-.653-1.792-1.96-1.792h-.812l.154-.994h.574c.504 0 .929-.14 1.274-.42.346-.28.518-.686.518-1.218 0-.495-.168-.882-.504-1.162-.336-.28-.76-.42-1.274-.42-.401 0-.76.07-1.078.21-.308.14-.625.364-.952.672l-.7-.77c.794-.756 1.727-1.134 2.8-1.134z" fill="#102938"/><circle cx="25" cy="25" r="25" fill="#009CD9"/><rect opacity=".1" x="60" y="22" width="154" height="6" rx="3" fill="#102938"/><path d="M32.5 24.134a1 1 0 010 1.732L22 31.928a1 1 0 01-1.5-.866V18.938a1 1 0 011.5-.866l10.5 6.062z" fill="#fff"/></svg>