<svg width="1264" height="534" fill="none" xmlns="http://www.w3.org/2000/svg"><path d="M0 6a6 6 0 016-6h1252c3.31 0 6 2.686 6 6v522c0 3.314-2.69 6-6 6H6a6 6 0 01-6-6V6z" fill="#0067A0"/><path opacity=".06" d="M6 534h1252c3.31 0 6-2.581 6-5.895V115.922c0-3.314-2.79-5.925-6.1-5.887C969.729 113.351 879.017 351.307 739 395 539.555 457.238 472.583 274.601 6.14 273.01 2.826 272.999 0 275.686 0 279v249a6 6 0 006 6z" fill="#fff"/><path d="M6 534h1252c3.31 0 6-2.647 6-5.961V215.027c0-2.93-2.08-5.398-4.99-5.728C1145.52 196.456 960.742 379.751 847.5 419.5c-196.344 68.918-589.848-72.598-841.172-92.035-3.467-.268-6.328 2.49-6.328 5.968V528a6 6 0 006 6z" fill="#0067A0"/></svg>