<svg width="1440" height="255" fill="none" xmlns="http://www.w3.org/2000/svg"><path d="M0 0h1440v255H0V0z" fill="#0067A0"/><path opacity=".06" d="M6 255h1428c3.31 0 6-2.697 6-6.011V16.999c0-3.314-2.79-6-6.1-5.99C1145.73 11.85 1055.02 72.307 915 116 715.545 178.241 474.087 15.411 6.079 14.01 2.765 14 0 16.685 0 20v229a6 6 0 006 6z" fill="#fff"/><path d="M6 255h1428c3.31 0 6-2.703 6-6.017V26.078c0-2.93-2.07-5.44-4.98-5.833-113.49-15.402-298.27 80.504-411.52 120.255C827.122 209.43 260.387 67.853 6.233 48.455 2.765 48.191 0 50.955 0 54.433V249a6 6 0 006 6z" fill="#0067A0"/></svg>