<svg width="944" height="459" fill="none" xmlns="http://www.w3.org/2000/svg"><path opacity=".9" d="M.924 6a6 6 0 016-6h930.16a6 6 0 016 6v447a6 6 0 01-6 6H6.924a6 6 0 01-6-6V6z" fill="#0067A0"/><path opacity=".06" d="M6.924 459h930.16c3.313 0 6-2.608 6-5.922V80.942c0-3.313-2.786-5.945-6.1-5.913C649.383 77.801 558.849 276.307 419.107 320 220.072 382.232 469.76 199.639 7.177 198.011 3.865 197.999.925 200.686.925 204v249a6 6 0 006 6z" fill="#fff"/><path d="M6.924 459h930.16c3.313 0 6-2.647 6-5.961V140.025c0-2.929-2.087-5.398-4.997-5.728C825.097 121.479 650.39 304.753 537.376 344.5c-195.894 68.895-284.396-72.502-529.95-92.015-3.467-.275-6.502 2.47-6.502 5.948V453a6 6 0 006 6z" fill="#0067A0"/></svg>