<svg width="1264" height="424" fill="none" xmlns="http://www.w3.org/2000/svg"><path opacity=".06" d="M6 424h1252c3.31 0 6-2.581 6-5.895V5.922c0-3.314-2.79-5.925-6.1-5.887C969.729 3.351 879.017 241.307 739 285 539.555 347.238 472.583 164.601 6.14 163.01 2.826 162.999 0 165.686 0 169v249a6 6 0 006 6z" fill="#fff"/><path d="M6 424h1252c3.31 0 6-2.647 6-5.961V105.027c0-2.93-2.08-5.398-4.99-5.728C1145.52 86.456 960.742 269.751 847.5 309.5c-196.344 68.918-589.848-72.598-841.172-92.035-3.467-.268-6.328 2.49-6.328 5.968V418a6 6 0 006 6z" fill="#0067A0"/></svg>