<svg width="1264" height="241" fill="none" xmlns="http://www.w3.org/2000/svg"><path opacity=".06" d="M6 241h1252c3.31 0 6-2.703 6-6.017V13.002c0-3.314-2.83-6.003-6.15-5.994C970.951 7.718 967.007 58.31 827 102 627.55 164.24 473.339 1.42 6.109.01 2.795 0 0 2.685 0 6v229a6 6 0 006 6z" fill="#fff"/><path d="M6 241h1252c3.31 0 6-2.715 6-6.029V32.089c0-2.93-2.13-5.457-5.03-5.873-110.96-15.9-210.26 60.547-323.47 100.284C739.139 195.425 259.034 53.877 6.28 34.46 2.814 34.194 0 36.955 0 40.433V235a6 6 0 006 6z" fill="#0067A0"/></svg>