<svg width="28" height="28" fill="none" xmlns="http://www.w3.org/2000/svg"><g clip-path="url(#clip0_2084:22303)"><path d="M19.702 5.29C17.157 2.248 14.644.27 14.539.188a.876.876 0 00-1.414.689v3.848c0 1.986-2.63 2.686-3.615.959a.876.876 0 00-1.437-.121c-2.648 3.231-5.01 7.306-5.01 11.5C3.063 23.095 7.968 28 14 28c6.03 0 10.937-4.906 10.937-10.937 0-4.304-2.485-8.483-5.235-11.772zM9.187 14c0-.965.786-1.75 1.75-1.75.965 0 1.75.785 1.75 1.75 0 .966-.785 1.75-1.75 1.75-.964 0-1.75-.784-1.75-1.75zm2.44 7.537a.875.875 0 11-1.38-1.074l6.124-7.875a.875.875 0 111.382 1.075l-6.125 7.874zm5.435.338c-.965 0-1.75-.785-1.75-1.75s.785-1.75 1.75-1.75 1.75.785 1.75 1.75-.785 1.75-1.75 1.75z" fill="#fff"/></g><defs><clipPath id="clip0_2084:22303"><path fill="#fff" d="M0 0h28v28H0z"/></clipPath></defs></svg>