<svg width="16" height="16" fill="none" xmlns="http://www.w3.org/2000/svg"><g clip-path="url(#clip0)" stroke="#009CD9" stroke-width="1.1" stroke-linejoin="round"><path d="M6.675 7.114c.94-.185 2.917-.586 2.473-1.981-.713.174-2.695.333-2.473 1.981zm0 2.536c.94-.185 2.917-.587 2.473-1.982-.713.174-2.695.333-2.473 1.981zm0 2.537c.94-.185 2.917-.587 2.473-1.982-.713.175-2.695.333-2.473 1.982zm0 2.473c.94-.186 2.917-.587 2.473-1.982-.713.174-2.695.333-2.473 1.981zM10.178.583V.25H5.756v.333m4.422 0h3.472v1.22h-3.472m0-1.22v1.22m0 0v.35H5.756v-.35m0-1.22H2.3v1.22h3.456m0-1.22v1.22"/><path d="M8.767 2.152v3.044M7.055 2.152v3.789m1.712.444v1.331m0 1.221v1.316m0 1.204v1.3M7.055 7.035v1.442m0 1.094v1.427m0 1.11v1.347m1.712.46v.776l-.792 1.142-.92-.92v-.349"/></g><defs><clipPath id="clip0"><path fill="#fff" d="M0 0h16v16H0z"/></clipPath></defs></svg>