<svg width="16" height="16" fill="none" xmlns="http://www.w3.org/2000/svg"><g clip-path="url(#clip0)"><path fill-rule="evenodd" clip-rule="evenodd" d="M4.866.62a.51.51 0 01.51-.509h7.305a.51.51 0 01.509.51v1.611h.035a.51.51 0 01.509.51v10.87a2.555 2.555 0 01-.45 1.519c-.386.544-1.035.943-2.002.943h-7.07c-.968 0-1.617-.399-2.004-.943a2.555 2.555 0 01-.449-1.519V2.742a.51.51 0 01.51-.51h2.597V.62zm1.019 1.612h6.287V1.13H5.885v1.103zm6.83 1.019H2.778v.303h9.939V3.25zm0 1.32H2.778v9.05a1.538 1.538 0 00.262.92c.188.266.522.515 1.172.515h7.071c.65 0 .984-.25 1.172-.514a1.538 1.538 0 00.262-.92v-9.05z" fill="#009CD9"/></g><defs><clipPath id="clip0"><path fill="#fff" d="M0 0h16v16H0z"/></clipPath></defs></svg>