<svg width="16" height="16" fill="none" xmlns="http://www.w3.org/2000/svg"><g clip-path="url(#clip0)" fill="#009CD9"><path d="M9.478 1.764c-.37-.543-.696-1.043-1-1.5a.566.566 0 00-.956 0c-.283.457-.609.935-1 1.5C4.805 4.285 2.24 8.089 2.24 10.262a5.73 5.73 0 001.696 4.064A5.806 5.806 0 008 16a5.734 5.734 0 004.064-1.695 5.734 5.734 0 001.695-4.065c0-2.173-2.564-5.955-4.281-8.476zm1.804 11.758c-.848.848-2 1.348-3.282 1.348a4.688 4.688 0 01-3.282-1.348A4.597 4.597 0 013.37 10.24c0-1.825 2.456-5.455 4.086-7.867.196-.283.37-.566.544-.805.174.24.348.522.543.805 1.63 2.434 4.086 6.042 4.086 7.867a4.689 4.689 0 01-1.347 3.282z"/><path d="M11.369 9.849a.557.557 0 00-.587.522 2.797 2.797 0 01-.413 1.325c-.239.392-.587.74-1 .957-.26.152-.37.5-.217.76.174.305.522.392.782.24a3.766 3.766 0 001.392-1.348 3.699 3.699 0 00.565-1.87.557.557 0 00-.522-.586z"/></g><defs><clipPath id="clip0"><path fill="#fff" d="M0 0h16v16H0z"/></clipPath></defs></svg>