<svg width="16" height="16" fill="none" xmlns="http://www.w3.org/2000/svg"><path d="M13.767 0a2.04 2.04 0 00-1.488.644 2.04 2.04 0 00-2.977 0 2.04 2.04 0 00-2.976 0A2.04 2.04 0 004.837 0 2.049 2.049 0 002.8 1.86H1.302V.93H.186v5.21h1.116v-.93h1.489v8.744c0 1.128.918 2.046 2.046 2.046a2.04 2.04 0 001.489-.644 2.04 2.04 0 002.976 0 2.04 2.04 0 002.977 0 2.04 2.04 0 001.488.644 2.049 2.049 0 002.047-2.046V2.046A2.049 2.049 0 0013.767 0zM2.42 4.093H1.302V2.977H2.42v1.116zm3.348 9.86a.931.931 0 01-1.86 0V2.047a.931.931 0 011.86 0v11.906zm2.977 0a.931.931 0 01-1.86 0V2.047a.931.931 0 011.86 0v11.906zm2.977 0a.931.931 0 01-1.86 0V2.047a.931.931 0 011.86 0v11.906zm2.977 0a.931.931 0 01-1.86 0V2.047a.931.931 0 011.86 0v11.906z" fill="#009CD9"/></svg>