<svg width="1920" height="60" fill="none" xmlns="http://www.w3.org/2000/svg"><path fill="#102938" d="M0 0h1920v60H0z"/><path d="M180 14a13.971 13.971 0 008 8 13.971 13.971 0 00-8 8 13.971 13.971 0 00-8-8 13.971 13.971 0 008-8z" fill="#FF8ED2"/><path d="M35 34a8.732 8.732 0 005 5 8.732 8.732 0 00-5 5 8.732 8.732 0 00-5-5 8.732 8.732 0 005-5z" fill="#FFC397"/><path d="M365.317 25.5a19.214 19.214 0 0011 11 19.214 19.214 0 00-11 11 19.208 19.208 0 00-11-11 19.208 19.208 0 0011-11z" fill="#AE6EFF"/><path d="M1819.83 25.594a19.188 19.188 0 0011 11 19.188 19.188 0 00-11 11 19.216 19.216 0 00-11-11 19.217 19.217 0 0011-11z" fill="#D276DC"/><path d="M1576.92 12.404a10.536 10.536 0 006.04 6.048 10.537 10.537 0 00-6.04 6.048 10.582 10.582 0 00-6.05-6.048 10.581 10.581 0 006.05-6.048z" fill="#AE6EFF"/></svg>