<svg width="200" height="102" fill="none" xmlns="http://www.w3.org/2000/svg"><g filter="url(#filter0_d_2_4650)"><mask id="a" maskUnits="userSpaceOnUse" x="20" y="21" width="160" height="55" fill="#000"><path fill="#fff" d="M20 21h160v55H20z"/><path fill-rule="evenodd" clip-rule="evenodd" d="M146.574 25.04L145.288 22l-1.285 3.04a8.096 8.096 0 01-.195.427H29.667A8.667 8.667 0 0021 34.133V65.8a8.667 8.667 0 008.667 8.667h126.996a8.667 8.667 0 006.595-3.044l13.499-15.833a8.665 8.665 0 000-11.246L163.258 28.51a8.667 8.667 0 00-6.595-3.043h-9.894a8.096 8.096 0 01-.195-.427zm18.181 24.927c0 2.9-2.338 5.25-5.222 5.25-2.884 0-5.222-2.35-5.222-5.25s2.338-5.25 5.222-5.25c2.884 0 5.222 2.35 5.222 5.25z"/></mask><path fill-rule="evenodd" clip-rule="evenodd" d="M146.574 25.04L145.288 22l-1.285 3.04a8.096 8.096 0 01-.195.427H29.667A8.667 8.667 0 0021 34.133V65.8a8.667 8.667 0 008.667 8.667h126.996a8.667 8.667 0 006.595-3.044l13.499-15.833a8.665 8.665 0 000-11.246L163.258 28.51a8.667 8.667 0 00-6.595-3.043h-9.894a8.096 8.096 0 01-.195-.427zm18.181 24.927c0 2.9-2.338 5.25-5.222 5.25-2.884 0-5.222-2.35-5.222-5.25s2.338-5.25 5.222-5.25c2.884 0 5.222 2.35 5.222 5.25z" fill="url(#paint0_linear_2_4650)"/><path d="M145.288 22l.799-.338a.867.867 0 00-1.597 0l.798.338zm1.286 3.04l-.798.338.798-.338zm-2.571 0l-.799-.337.799.337zm-.195.427v.867a.866.866 0 00.779-.487l-.779-.38zm19.45 45.956l.659.562-.659-.562zm13.499-15.833l-.659-.563.659.563zm0-11.246l.66-.562-.66.562zM163.258 28.51l-.66.563.66-.563zm-16.489-3.043l-.779.38a.866.866 0 00.779.486v-.866zm-2.279-3.13l1.286 3.04 1.597-.674-1.286-3.04-1.597.675zm.311 3.04l1.286-3.04-1.597-.675-1.286 3.04 1.597.676zm-.214.47c.075-.154.147-.31.214-.47l-1.597-.674c-.055.13-.113.258-.174.384l1.557.76zm-.779-1.247H29.667v1.733h114.141V24.6zm-114.141 0a9.533 9.533 0 00-9.534 9.533h1.734a7.8 7.8 0 017.8-7.8V24.6zm-9.534 9.533V65.8h1.734V34.134h-1.734zm0 31.667a9.533 9.533 0 009.534 9.534V73.6a7.8 7.8 0 01-7.8-7.8h-1.734zm9.534 9.534h126.996V73.6H29.667v1.734zm126.996 0a9.532 9.532 0 007.254-3.349l-1.319-1.124a7.8 7.8 0 01-5.935 2.74v1.733zm7.254-3.349l13.5-15.833-1.319-1.125-13.5 15.834 1.319 1.124zm13.5-15.833a9.534 9.534 0 000-12.37l-1.319 1.124a7.8 7.8 0 010 10.121l1.319 1.125zm0-12.37l-13.5-15.834-1.319 1.125 13.5 15.833 1.319-1.124zm-13.5-15.834a9.532 9.532 0 00-7.254-3.348v1.733a7.8 7.8 0 015.935 2.74l1.319-1.125zm-7.254-3.348h-9.894v1.733h9.894V24.6zm-10.887.778c.067.159.139.315.214.47l1.557-.761a8.375 8.375 0 01-.174-.384l-1.597.675zm13.757 30.706c3.367 0 6.089-2.743 6.089-6.117h-1.733c0 2.425-1.955 4.383-4.356 4.383v1.733zm-6.089-6.117c0 3.374 2.722 6.117 6.089 6.117V54.35c-2.401 0-4.356-1.958-4.356-4.383h-1.733zm6.089-6.117c-3.367 0-6.089 2.743-6.089 6.117h1.733c0-2.425 1.955-4.383 4.356-4.383V43.85zm6.089 6.117c0-3.374-2.722-6.117-6.089-6.117v1.733c2.401 0 4.356 1.959 4.356 4.384h1.733z" fill="#BF6BCC" mask="url(#a)"/></g><path d="M29.5 31a7.859 7.859 0 004.5 4.5 7.859 7.859 0 00-4.5 4.5 7.859 7.859 0 00-4.5-4.5 7.859 7.859 0 004.5-4.5zm5.096 29.904l1.087.481c2.235.99 4.784.99 7.018 0l1.088-.481-.482 1.087a8.666 8.666 0 000 7.018l.482 1.087-1.088-.481a8.667 8.667 0 00-7.018 0l-1.087.481.482-1.087a8.667 8.667 0 000-7.018l-.482-1.087z" fill="#fff"/><g filter="url(#filter1_d_2_4650)"><path d="M145.288 22l1.286 3.04a8.668 8.668 0 005.1 4.797l3.581 1.263-3.581 1.263a8.668 8.668 0 00-5.1 4.797l-1.286 3.04-1.285-3.04a8.668 8.668 0 00-5.1-4.797l-3.581-1.263 3.581-1.263a8.668 8.668 0 005.1-4.797l1.285-3.04z" fill="#fff"/></g><g filter="url(#filter2_d_2_4650)"><path d="M62.408 41.944l-2.896 5.088L62.696 53h-2.368l-2.592-4.976h-1.328V53h-2.112V41.944h2.112v4.464h1.36l2.496-4.464h2.144zm5.451 11.088c-.341 1.045-.858 1.856-1.552 2.432-.693.587-1.642.928-2.848 1.024L63.251 55c.555-.085.998-.208 1.328-.368a2.08 2.08 0 00.816-.608c.203-.256.39-.597.56-1.024h-.704l-2.688-8.464h2.176l1.84 7.104 1.92-7.104h2.112l-2.752 8.496zM76.721 53v-6.896h-2.816V53h-2.048v-8.464h6.912V53h-2.048zm7.967-8.704c1.248 0 2.219.4 2.912 1.2.704.79 1.056 1.877 1.056 3.264 0 .885-.16 1.67-.48 2.352A3.653 3.653 0 0186.8 52.68c-.597.373-1.307.56-2.128.56-1.248 0-2.224-.395-2.928-1.184-.704-.8-1.056-1.899-1.056-3.296 0-.885.16-1.664.48-2.336a3.653 3.653 0 011.376-1.568c.608-.373 1.323-.56 2.144-.56zm0 1.552c-1.227 0-1.84.97-1.84 2.912 0 1.003.15 1.744.448 2.224.31.47.768.704 1.376.704.608 0 1.061-.24 1.36-.72.31-.48.464-1.216.464-2.208 0-.992-.155-1.723-.464-2.192-.299-.48-.747-.72-1.344-.72zM95.488 53v-3.536h-2.864V53h-2.048v-8.464h2.048v3.376h2.864v-3.376h2.048V53h-2.048zm10.766-2.24c0 .33.048.576.144.736.106.15.272.267.496.352l-.432 1.36c-.48-.043-.875-.16-1.184-.352-.299-.192-.528-.485-.688-.88a2.762 2.762 0 01-1.088.96 3.317 3.317 0 01-1.44.304c-.843 0-1.51-.24-2-.72-.491-.48-.736-1.11-.736-1.888 0-.917.33-1.616.992-2.096.672-.49 1.626-.736 2.864-.736h1.056v-.48c0-.544-.128-.923-.384-1.136-.246-.224-.646-.336-1.2-.336-.619 0-1.366.15-2.24.448l-.48-1.392c1.056-.405 2.08-.608 3.072-.608 2.165 0 3.248.97 3.248 2.912v3.552zm-3.648.992c.693 0 1.237-.347 1.632-1.04V49h-.848c-1.323 0-1.984.49-1.984 1.472 0 .405.101.72.304.944.202.224.501.336.896.336zm12.038-7.216l-.256 1.568h-2.48V53h-2.048v-6.896h-2.624v-1.568h7.408zm4.232-.24c1.248 0 2.218.4 2.912 1.2.704.79 1.056 1.877 1.056 3.264 0 .885-.16 1.67-.48 2.352a3.655 3.655 0 01-1.376 1.568c-.598.373-1.307.56-2.128.56-1.248 0-2.224-.395-2.928-1.184-.704-.8-1.056-1.899-1.056-3.296 0-.885.16-1.664.48-2.336a3.649 3.649 0 011.376-1.568c.608-.373 1.322-.56 2.144-.56zm0 1.552c-1.227 0-1.84.97-1.84 2.912 0 1.003.149 1.744.448 2.224.309.47.768.704 1.376.704.608 0 1.061-.24 1.36-.72.309-.48.464-1.216.464-2.208 0-.992-.155-1.723-.464-2.192-.299-.48-.747-.72-1.344-.72zm10.271-1.552c1.067 0 1.856.39 2.368 1.168.512.779.768 1.872.768 3.28 0 .875-.133 1.653-.4 2.336-.256.672-.64 1.2-1.152 1.584-.501.384-1.098.576-1.792.576-.896 0-1.605-.31-2.128-.928v3.952l-2.048.224V44.536h1.792l.112 1.04a3.32 3.32 0 011.136-.96 2.97 2.97 0 011.344-.32zm-.784 7.376c1.184 0 1.776-.97 1.776-2.912 0-1.035-.133-1.781-.4-2.24-.266-.459-.666-.688-1.2-.688-.341 0-.661.107-.96.32a2.65 2.65 0 00-.768.832v3.808c.395.587.912.88 1.552.88z" fill="#fff"/></g><defs><filter id="filter0_d_2_4650" x=".133" y="7.133" width="199.562" height="94.2" filterUnits="userSpaceOnUse" color-interpolation-filters="sRGB"><feFlood flood-opacity="0" result="BackgroundImageFix"/><feColorMatrix in="SourceAlpha" values="0 0 0 0 0 0 0 0 0 0 0 0 0 0 0 0 0 0 127 0" result="hardAlpha"/><feOffset dy="6"/><feGaussianBlur stdDeviation="10"/><feColorMatrix values="0 0 0 0 0.151229 0 0 0 0 0.251218 0 0 0 0 0.508333 0 0 0 0.25 0"/><feBlend in2="BackgroundImageFix" result="effect1_dropShadow_2_4650"/><feBlend in="SourceGraphic" in2="effect1_dropShadow_2_4650" result="shape"/></filter><filter id="filter1_d_2_4650" x="113.655" y=".333" width="63.267" height="61.533" filterUnits="userSpaceOnUse" color-interpolation-filters="sRGB"><feFlood flood-opacity="0" result="BackgroundImageFix"/><feColorMatrix in="SourceAlpha" values="0 0 0 0 0 0 0 0 0 0 0 0 0 0 0 0 0 0 127 0" result="hardAlpha"/><feOffset/><feGaussianBlur stdDeviation="10.833"/><feColorMatrix values="0 0 0 0 0.00158273 0 0 0 0 0.233888 0 0 0 0 0.362445 0 0 0 0.25 0"/><feBlend in2="BackgroundImageFix" result="effect1_dropShadow_2_4650"/><feBlend in="SourceGraphic" in2="effect1_dropShadow_2_4650" result="shape"/></filter><filter id="filter2_d_2_4650" x="52.296" y="40.944" width="81.987" height="18.544" filterUnits="userSpaceOnUse" color-interpolation-filters="sRGB"><feFlood flood-opacity="0" result="BackgroundImageFix"/><feColorMatrix in="SourceAlpha" values="0 0 0 0 0 0 0 0 0 0 0 0 0 0 0 0 0 0 127 0" result="hardAlpha"/><feOffset dy="1"/><feGaussianBlur stdDeviation="1"/><feComposite in2="hardAlpha" operator="out"/><feColorMatrix values="0 0 0 0 0.0758333 0 0 0 0 0 0 0 0 0 0.291667 0 0 0 0.2 0"/><feBlend in2="BackgroundImageFix" result="effect1_dropShadow_2_4650"/><feBlend in="SourceGraphic" in2="effect1_dropShadow_2_4650" result="shape"/></filter><linearGradient id="paint0_linear_2_4650" x1="143.542" y1="27" x2="88.858" y2="123.015" gradientUnits="userSpaceOnUse"><stop stop-color="#FFB096"/><stop offset=".461" stop-color="#FF6BBB"/><stop offset="1" stop-color="#AC6BED"/></linearGradient></defs></svg>