<svg version="1.1" id="Layer_1" xmlns="http://www.w3.org/2000/svg" xmlns:xlink="http://www.w3.org/1999/xlink" x="0" y="0" viewBox="0 0 24 28" xml:space="preserve"><style/><defs><path id="SVGID_1_" d="M-1 1h26v26H-1z"/></defs><clipPath id="SVGID_00000087372994119884638250000008220618330342393002_"><use xlink:href="#SVGID_1_" overflow="visible"/></clipPath><g clip-path="url(#SVGID_00000087372994119884638250000008220618330342393002_)"><path d="M12.3 1.2c-.2-.1-.4-.1-.5 0L1.1 6c-.2.1-.4.3-.4.5v.1c0 .1 0 .3-.1.5C.5 7.6.5 8.3.4 9c-.1 1.5 0 3.6.5 5.9 1 4.5 3.8 9.6 10.9 11.9h.4c7.1-2.3 9.9-7.4 10.9-11.9.5-2.2.5-4.3.5-5.9 0-.8-.1-1.4-.2-1.8 0-.2-.1-.4-.1-.5v-.2c0-.2-.2-.4-.4-.5L12.3 1.2zM9 9.6c.9-.6 1.9-.9 3-.9.5 0 .8-.4.8-.8 0-.5-.3-.9-.8-.9-1.4 0-2.7.4-3.9 1.2-1.1.7-2 1.8-2.6 3.1-.5 1.3-.7 2.7-.4 4 .3 1.4.9 2.6 1.9 3.6 1 1 2.2 1.6 3.6 1.9s2.8.1 4-.4c1.3-.5 2.4-1.4 3.1-2.6.8-1.2 1.2-2.5 1.2-3.9 0-.5-.4-.8-.8-.8-.5 0-.8.4-.8.8 0 1.1-.3 2.1-.9 3-.6.9-1.4 1.6-2.4 2s-2 .5-3.1.3c-1-.2-2-.7-2.7-1.5C7.5 17 7 16.1 6.8 15c-.2-1-.1-2.1.3-3.1.4-.9 1.1-1.8 1.9-2.3zm8.4-1.2c.4.3.4.8.1 1.2l-5 6.2c-.1.2-.3.3-.6.3-.2 0-.4 0-.6-.2l-2.5-2.1c-.4-.3-.4-.8-.1-1.2.3-.4.8-.4 1.2-.1l1.8 1.5 4.5-5.6c.3-.3.8-.3 1.2 0z" fill-rule="evenodd" clip-rule="evenodd" fill="#fff"/></g></svg>