<svg width="28" height="28" fill="none" xmlns="http://www.w3.org/2000/svg"><g clip-path="url(#clip0)" fill="#fff"><path d="M0 12.304v7.246a3.778 3.778 0 003.778 3.778h20.444A3.778 3.778 0 0028 19.55v-7.246a.657.657 0 00-.657-.658H.657a.657.657 0 00-.657.658zm6.99 4.6H5.24a1.15 1.15 0 110-2.3h1.75a1.15 1.15 0 110 2.3zM28 8.688V8.45a3.778 3.778 0 00-3.778-3.778H3.778A3.778 3.778 0 000 8.45v.238c0 .362.294.657.657.657h26.686A.657.657 0 0028 8.687z"/></g><defs><clipPath id="clip0"><path fill="#fff" d="M0 0h28v28H0z"/></clipPath></defs></svg>