<svg width="94" height="128" fill="none" xmlns="http://www.w3.org/2000/svg"><path d="M1 43.255v56.849l45.132 26.471M1 43.255L46.132 17M1 43.255l45.132 26.254M93 43.255v56.849l-45.132 26.471M93 43.255L47.868 17M93 43.255L47.868 69.509M47 71.245v53.16m0-106.103V63m-5.208 3.906L47 64.085l5.642 2.82m9.981 5.257c0-1.375.724-2.649 1.907-3.351l9.036-5.365c1.299-.771 2.943.165 2.943 1.675v0a3.897 3.897 0 01-1.907 3.351l-9.036 5.365c-1.299.772-2.943-.165-2.943-1.675v0zM20.528 40.049c0-1.376.725-2.65 1.908-3.351l9.036-5.365c1.299-.772 2.943.165 2.943 1.675v0a3.897 3.897 0 01-1.907 3.351l-9.036 5.365c-1.3.771-2.944-.165-2.944-1.675v0z" stroke="#009CD9" stroke-width="1.5" stroke-linecap="round"/><path d="M48.414 2.947a2 2 0 01-2.83 0l-.428-.427C40.827-1.808 32.892-.315 30.027 5.126c-1.344 2.56-1.648 6.254.808 10.972 2.266 4.348 6.874 9.518 15.057 15.152a1.954 1.954 0 002.214 0c8.183-5.634 12.79-10.804 15.06-15.152 2.453-4.72 2.153-8.412.805-10.97-2.865-5.441-10.8-6.938-15.13-2.61l-.427.429z" fill="#fff"/><path d="M47.526 6.353a.75.75 0 01-1.053 0L44.835 4.74c-1.722-1.695-4.189-2.276-6.557-1.861-2.369.414-4.554 1.811-5.703 3.96-1.059 1.985-1.367 4.95.719 8.896l14.232-9.382zm0 0l1.637-1.615s0 0 0 0c1.722-1.695 4.189-2.275 6.557-1.86 2.37.416 4.555 1.814 5.704 3.963h0m-13.898-.488l13.898.488m0 0c1.061 1.982 1.367 4.946-.718 8.894-1.99 3.754-6.137 8.329-13.707 13.366M61.424 6.84L46.999 29.1m0 0c-7.57-5.038-11.718-9.613-13.705-13.366L47 29.101z" fill="#fff" stroke="#EB5757" stroke-width="1.5" stroke-linejoin="round"/></svg>