<svg width="37" height="29" fill="none" xmlns="http://www.w3.org/2000/svg"><path d="M35.555.37h-8.528c-.798 0-1.445.621-1.445 1.389v5.16H18.5c-.798 0-1.445.622-1.445 1.39v5.17H9.973c-.799 0-1.446.622-1.446 1.39v5.17H1.445c-.798 0-1.445.622-1.445 1.39v5.556c0 .767.647 1.39 1.445 1.39h34.11c.798 0 1.445-.623 1.445-1.39V1.759c0-.768-.647-1.39-1.445-1.39zm-1.446 25.225H2.891v-2.776h7.082c.798 0 1.445-.623 1.445-1.39v-5.17H18.5c.798 0 1.445-.623 1.445-1.39v-5.17h7.082c.799 0 1.446-.623 1.446-1.39v-5.16h5.636v22.446z" fill="#009CD9"/></svg>