<svg width="31" height="32" fill="none" xmlns="http://www.w3.org/2000/svg"><path d="M26.94.625c-1.162 0-2.211.48-2.952 1.248A4.092 4.092 0 0021.036.625c-1.163 0-2.212.48-2.953 1.248A4.092 4.092 0 0015.131.625a4.09 4.09 0 00-2.952 1.248A4.093 4.093 0 009.226.625c-2.114 0-3.855 1.587-4.042 3.605h-2.97V2.428H0v10.095h2.214V10.72h2.953v16.945c0 2.187 1.82 3.966 4.06 3.966 1.162 0 2.21-.48 2.952-1.248a4.092 4.092 0 002.952 1.248c1.163 0 2.212-.48 2.952-1.248a4.093 4.093 0 002.953 1.248c1.162 0 2.211-.48 2.952-1.248a4.093 4.093 0 002.953 1.248c2.238 0 4.059-1.78 4.059-3.966V4.591C31 2.404 29.179.625 26.94.625zM4.43 8.557H2.214V6.394H4.43v2.163zm6.643 19.108c0 .994-.828 1.803-1.846 1.803-1.017 0-1.845-.809-1.845-1.803V4.591c0-.994.828-1.803 1.845-1.803 1.018 0 1.845.809 1.845 1.803v23.074zm5.904 0c0 .994-.828 1.803-1.845 1.803s-1.845-.809-1.845-1.803V4.591c0-.994.828-1.803 1.845-1.803s1.845.809 1.845 1.803v23.074zm5.905 0c0 .994-.828 1.803-1.845 1.803-1.018 0-1.845-.809-1.845-1.803V4.591c0-.994.827-1.803 1.845-1.803 1.017 0 1.845.809 1.845 1.803v23.074zm5.905 0c0 .994-.828 1.803-1.845 1.803-1.018 0-1.846-.809-1.846-1.803V4.591c0-.994.828-1.803 1.846-1.803 1.017 0 1.845.809 1.845 1.803v23.074z" fill="#009CD9"/></svg>