<svg width="24" height="24" fill="none" xmlns="http://www.w3.org/2000/svg"><path d="M6.589 21.831c-1.102-1.252-2.203-2.553-2.904-4.106a9.309 9.309 0 01-.551-5.357A11.555 11.555 0 015.437 7.41c-.1 1.251.35 2.553 1.202 3.505-.5-2.404.3-5.008 1.903-6.91C10.144 2.103 12.347.85 14.65 0c-1.15 1.202-1.302 3.104-.85 4.707.45 1.602 1.402 3.004 2.253 4.456.851 1.452 1.653 2.954 1.703 4.607.45-.852.951-1.703 1.252-2.654.3-.951.45-1.953.2-2.904.901 1.101 1.402 2.203 1.652 3.605.25 1.402.2 2.854.05 4.256-.2 1.552-.6 3.154-1.452 4.456-1.001 1.552-2.604 2.654-4.356 3.255-3.105.55-6.159.1-8.512-1.953z" fill="#E34E3D"/><path d="M10.394 23.685c4.106 1.602 8.162-3.255 5.908-7.01 0-.05-.05-.05-.05-.1.2 2.052-.3 3.555-1.251 4.406.5-1.202.15-2.604-.451-3.806-.6-1.151-1.452-2.203-2.103-3.304-.65-1.152-1.152-2.454-.851-3.756-1.202.902-2.053 2.253-2.404 3.705-.35 1.453-.15 3.055.501 4.407-.751-.551-1.302-1.452-1.352-2.404-.801.952-1.302 2.203-1.252 3.455 0 1.953 1.553 3.706 3.305 4.407z" fill="#fff"/></svg>