<svg width="16" height="16" fill="none" xmlns="http://www.w3.org/2000/svg"><path d="M11.898 0c1.426 0 1.944.149 2.465.427.521.28.93.689 1.21 1.21.278.522.427 1.039.427 2.465v7.796c0 1.426-.149 1.944-.427 2.465-.28.521-.689.93-1.21 1.21-.521.278-1.039.427-2.465.427H4.102c-1.426 0-1.943-.149-2.465-.427a2.908 2.908 0 01-1.21-1.21C.15 13.842 0 13.324 0 11.898V4.102C0 2.676.149 2.16.427 1.637c.28-.521.689-.93 1.21-1.21C2.159.15 2.676 0 4.102 0h7.796zm1.136 4.535a.8.8 0 00-1.11-.001L6.4 9.846 4.073 7.611a.8.8 0 00-1.107 0l-.006.005a.744.744 0 00-.001 1.073l2.887 2.778a.8.8 0 001.109 0l6.084-5.848a.749.749 0 000-1.08l-.005-.004z" fill="#009CD9"/></svg>