<svg width="12" height="11" fill="none" xmlns="http://www.w3.org/2000/svg"><path d="M6 .334a5.25 5.25 0 100 10.5 5.25 5.25 0 000-10.5zm0 9.333a4.08 4.08 0 01-4.083-4.083A4.08 4.08 0 016 1.501a4.08 4.08 0 014.083 4.083A4.08 4.08 0 016 9.667z" fill="#009CD9"/><path d="M5.77 6.564h.994v.574H5.77V8H4.678v-.86h-.434v-.575h.434v-.413h-.434v-.665h.434V3.148h1.246c.574 0 1.03.131 1.365.392.34.262.511.637.511 1.127 0 .504-.168.878-.504 1.12-.336.243-.789.364-1.358.364H5.77v.413zm0-2.653v1.575h.154c.233 0 .418-.065.553-.196.135-.135.203-.338.203-.609 0-.256-.068-.448-.203-.574-.135-.13-.327-.196-.574-.196H5.77z" fill="#009CD9"/></svg>