<svg width="16" height="16" fill="none" xmlns="http://www.w3.org/2000/svg"><path fill-rule="evenodd" clip-rule="evenodd" d="M8 16A8 8 0 108 0a8 8 0 000 16zm3.258-10.043c0-1.693-1.53-2.401-3.085-2.401-1.481 0-2.841 1.044-2.841 2.222 0 .48.365.732.79.732.548 0 .71-.343.882-.71.198-.422.411-.875 1.242-.875.73 0 1.166.384 1.166 1.033 0 .56-.481.927-.985 1.312-.556.424-1.14.87-1.14 1.62 0 .384.255.804.777.804.571 0 .686-.3.81-.623.05-.131.102-.266.186-.387.117-.17.363-.343.65-.545.665-.468 1.548-1.09 1.548-2.182zm-2.15 5.502a.995.995 0 00-.995-.985.995.995 0 00-.996.985c0 .542.45.986.996.986a.995.995 0 00.996-.986z" fill="#009CD9"/></svg>