<svg width="22" height="22" fill="none" xmlns="http://www.w3.org/2000/svg"><g clip-path="url(#clip0)" fill="#fff"><path d="M18.04 11.362a.763.763 0 00-.776-.776.763.763 0 00-.777.776A5.49 5.49 0 0111 16.85a5.49 5.49 0 01-5.487-5.487.763.763 0 00-.776-.776.763.763 0 00-.777.776c0 3.598 2.692 6.626 6.264 7.014v2.071H7.403a.763.763 0 00-.777.777c0 .44.337.776.777.776h7.195c.44 0 .776-.336.776-.776a.763.763 0 00-.776-.777h-2.821v-2.07c3.572-.389 6.263-3.417 6.263-7.015z"/><path d="M11 0a4.33 4.33 0 00-4.323 4.322v7.014c0 2.407 1.942 4.323 4.323 4.349a4.33 4.33 0 004.322-4.323v-7.04A4.33 4.33 0 0011 0z"/></g><defs><clipPath id="clip0"><path fill="#fff" d="M0 0h22v22H0z"/></clipPath></defs></svg>