<svg width="60" height="60" fill="none" xmlns="http://www.w3.org/2000/svg"><path d="M43.442 0H16.558C7.428 0 0 7.428 0 16.558v26.884C0 52.572 7.428 60 16.558 60h26.884C52.572 60 60 52.572 60 43.442V16.558C60 7.428 52.572 0 43.442 0zm11.235 43.442c0 6.195-5.04 11.234-11.235 11.234H16.558c-6.195 0-11.235-5.04-11.235-11.234V16.558c0-6.195 5.04-11.235 11.235-11.235h26.884c6.195 0 11.234 5.04 11.234 11.235v26.884z" fill="#fff"/><path d="M30 14.54c-8.525 0-15.46 6.936-15.46 15.46 0 8.525 6.935 15.46 15.46 15.46 8.525 0 15.46-6.935 15.46-15.46 0-8.524-6.935-15.46-15.46-15.46zm0 25.596c-5.589 0-10.137-4.547-10.137-10.136 0-5.59 4.548-10.137 10.137-10.137 5.59 0 10.137 4.547 10.137 10.137 0 5.59-4.547 10.136-10.137 10.136zm16.109-30.11a3.92 3.92 0 00-2.758 1.143 3.923 3.923 0 00-1.146 2.761c0 1.026.419 2.034 1.146 2.761a3.934 3.934 0 002.758 1.143 3.94 3.94 0 002.76-1.143 3.933 3.933 0 001.144-2.76 3.92 3.92 0 00-1.143-2.762 3.92 3.92 0 00-2.761-1.143z" fill="#fff"/></svg>