<svg width="23" height="33" fill="none" xmlns="http://www.w3.org/2000/svg"><path d="M14.45 4.113c-.737-1.085-1.388-2.084-1.995-2.995a1.321 1.321 0 00-.348-.348c-.52-.347-1.214-.173-1.562.348-.564.911-1.215 1.866-1.996 2.995C5.121 9.148 0 16.743 0 21.083c0 3.17 1.302 6.034 3.385 8.118 2.083 2.04 4.947 3.342 8.115 3.342s6.032-1.302 8.115-3.386C21.698 27.074 23 24.21 23 21.041c0-4.341-5.12-11.893-8.55-16.928zm3.603 23.482c-1.693 1.692-3.993 2.69-6.553 2.69s-4.86-1.041-6.553-2.69c-1.692-1.693-2.69-3.994-2.69-6.554 0-3.646 4.903-10.895 8.158-15.713.39-.564.738-1.129 1.085-1.606.347.477.694 1.042 1.085 1.606 3.255 4.861 8.158 12.067 8.158 15.713 0 2.56-1.041 4.86-2.69 6.554z" fill="#009CD9"/><path d="M18.226 20.259c-.607-.044-1.128.434-1.172 1.041a5.587 5.587 0 01-.824 2.648c-.478.781-1.172 1.476-1.996 1.91-.521.303-.738.998-.434 1.519.347.608 1.041.781 1.562.477a7.52 7.52 0 002.777-2.69c.695-1.086 1.085-2.388 1.128-3.734.044-.607-.433-1.128-1.041-1.171z" fill="#009CD9"/></svg>