<svg width="32" height="32" fill="none" xmlns="http://www.w3.org/2000/svg"><path d="M20.797 11.064L13.94 17.92l-2.737-2.737s0 0 0 0a1.422 1.422 0 00-2.01 0s0 0 0 0 0 0 0 0a1.421 1.421 0 000 2.01s0 0 0 0l3.742 3.743h0a1.422 1.422 0 002.01 0h0l7.862-7.861a1.422 1.422 0 10-2.01-2.011h0zM16 31.25c8.428 0 15.25-6.82 15.25-15.25C31.25 7.572 24.43.75 16 .75 7.572.75.75 7.57.75 16c0 8.428 6.82 15.25 15.25 15.25zm0-27.656c6.857 0 12.406 5.548 12.406 12.406 0 6.857-5.548 12.406-12.406 12.406-6.857 0-12.406-5.548-12.406-12.406C3.594 9.143 9.142 3.594 16 3.594z" fill="#0DB25A" stroke="#0DB25A" stroke-width=".5"/></svg>