<svg width="20" height="23" fill="none" xmlns="http://www.w3.org/2000/svg"><path d="M14.4 11.23c0-.266-.097-.509-.26-.703a1.191 1.191 0 00-.177-.214l-3.794-3.581a1.248 1.248 0 00-1.693 0 1.087 1.087 0 000 1.6l1.873 1.769H1.198C.536 10.1 0 10.607 0 11.232s.536 1.131 1.198 1.131h9.146L8.537 14.07a1.087 1.087 0 000 1.6c.234.221.54.33.846.33.307 0 .611-.109.845-.33l3.794-3.583c.118-.112.208-.243.267-.382.07-.147.111-.306.111-.475z" fill="#fff"/><path d="M5.178 17.049c.65 0 1.178.52 1.178 1.16v1.872h11.288V2.32H6.356v2.235a1.17 1.17 0 01-1.178 1.161A1.17 1.17 0 014 4.557V1.842C4 .827 4.839 0 5.87 0h12.26C19.16 0 20 .827 20 1.843v18.714c0 1.016-.839 1.843-1.87 1.843H5.873c-1.032 0-1.87-.827-1.87-1.843V18.21a1.166 1.166 0 011.175-1.161z" fill="#fff"/></svg>