<svg width="40" height="40" fill="none" xmlns="http://www.w3.org/2000/svg"><path d="M.5 20C.5 9.23 9.23.5 20 .5 30.769.5 39.5 9.23 39.5 20c0 10.769-8.731 19.5-19.5 19.5C9.23 39.5.5 30.768.5 20zm9.54 0c0 5.5 4.46 9.959 9.96 9.959 5.5 0 9.959-4.459 9.959-9.96 0-5.5-4.459-9.959-9.96-9.959-5.5 0-9.959 4.46-9.959 9.96z" fill="#fff" fill-opacity=".2" stroke="#fff"/><path opacity=".8" d="M39.998 20a16.26 16.26 0 00-10.539 0c0 4.709-3.44 8.613-7.945 9.337-.494.081-1 .122-1.514.122h-.001a16.265 16.265 0 00-.08 10.3l.08.24a26.544 26.544 0 00.774-.015l.246-.01.023-.002c.081-.004.162-.008.242-.014l.23-.015C31.851 39.169 39.998 30.536 39.998 20zm-20-20C8.954 0 0 8.954 0 20a16.268 16.268 0 0110.54 0A9.459 9.459 0 0120 10.54a16.265 16.265 0 01-.08-10.3L20 0z" fill="#fff"/></svg>