<svg width="40" height="40" fill="none" xmlns="http://www.w3.org/2000/svg"><path opacity=".2" d="M34.146 5.861c-7.812-7.812-20.456-7.813-28.27 0-7.811 7.812-7.812 20.456 0 28.27 6.415 6.414 16.003 7.501 23.481 3.539 11.867-6.3 14.308-22.29 4.789-31.809z" fill="#009CD9"/><path d="M38.333 18.333c-.92 0-1.666.747-1.666 1.667 0 9.19-7.477 16.667-16.667 16.667-9.19 0-16.667-7.477-16.667-16.667C3.333 10.81 10.81 3.333 20 3.333c4.474 0 8.674 1.749 11.828 4.924a1.666 1.666 0 102.365-2.348A19.864 19.864 0 0020 0C8.972 0 0 8.972 0 20s8.972 20 20 20 20-8.972 20-20c0-.92-.747-1.667-1.667-1.667z" fill="#009CD9"/><path d="M28.679 14.654a1.666 1.666 0 00-2.357 0l-7.155 7.154-2.988-2.987a1.666 1.666 0 10-2.357 2.356l4.167 4.167c.325.326.751.488 1.178.488.427 0 .853-.162 1.178-.488l8.334-8.333c.65-.651.65-1.706 0-2.357z" fill="#009CD9"/></svg>