<svg width="40" height="40" fill="none" xmlns="http://www.w3.org/2000/svg"><g clip-path="url(#clip0)" fill="#fff"><path opacity=".2" d="M34.146 5.861c-7.812-7.812-20.456-7.813-28.269 0-7.812 7.812-7.813 20.456 0 28.27 6.415 6.414 16.002 7.501 23.48 3.539 11.867-6.3 14.308-22.29 4.79-31.809z"/><path d="M10.956 21.138c1.334-.672 2.214-1.734 2.214-3.27a3.045 3.045 0 00-3.035-3.007c-2.928 0-3.929 3.901-2.17 3.901a.858.858 0 00.864-.865c0-.719.587-1.305 1.306-1.305.718 0 1.305.586 1.305 1.305v.147c0 .234-.117.953-1.261 1.54-3.05 1.525-3.08 4.546-3.08 4.678 0 .484.381.865.865.865h4.341a.858.858 0 00.865-.865.858.858 0 00-.865-.866H8.991c.22-.703.748-1.657 1.965-2.258zm8.08 3.989a.854.854 0 00.865-.85v-1.291h.425a.85.85 0 00.851-.85.864.864 0 00-.85-.866H19.9v-5.558c0-.47-.381-.85-.865-.85h-.425a.853.853 0 00-.748.454c-3.742 7.018-3.52 6.508-3.52 6.82 0 .519.435.85.85.85h2.992v1.29c0 .47.382.851.851.851zm-2.42-3.857l1.57-2.933v2.933h-1.57zm8.3-6.409a.847.847 0 00-.836.69l-1.716 8.55c-.097.388.163.92.675 1.011a.84.84 0 00.997-.674c1.854-9.237 1.73-8.574 1.73-8.711 0-.46-.347-.866-.85-.866zm2.024 9.416c0 .903 1.216 1.173 1.612.38l4.283-8.564c.27-.54-.116-1.232-.763-1.232H27.79a.85.85 0 00-.85.851c0 .484.38.865.85.865h2.889c-3.988 7.992-3.74 7.407-3.74 7.7z"/><path d="M38.648 32.561l-3.278.225A19.999 19.999 0 0040 19.996C40 8.947 31.06.005 20.01.005 8.964.006.023 8.946.023 19.996c0 15.19 16.194 24.636 29.335 17.673a1.265 1.265 0 10-1.185-2.237c-11.407 6.044-25.62-2.108-25.62-15.437 0-9.649 7.809-17.458 17.459-17.458 9.648 0 17.458 7.808 17.458 17.458 0 4.222-1.532 8.276-4.264 11.43l-.263-3.837a1.266 1.266 0 00-2.526.173l.453 6.602a1.266 1.266 0 001.262 1.18c.068 0-.405.03 6.69-.457a1.266 1.266 0 10-.173-2.525z"/></g><defs><clipPath id="clip0"><path fill="#fff" d="M0 0h40v40H0z"/></clipPath></defs></svg>