<svg width="23" height="33" fill="none" xmlns="http://www.w3.org/2000/svg"><path d="M14.45 4.181c-.737-1.085-1.388-2.083-1.995-2.995a1.321 1.321 0 00-.348-.347c-.52-.347-1.214-.174-1.562.347-.564.912-1.215 1.866-1.996 2.995C5.121 9.216 0 16.811 0 21.152c0 3.169 1.302 6.033 3.385 8.117 2.083 2.04 4.947 3.342 8.115 3.342s6.032-1.302 8.115-3.386C21.698 27.142 23 24.277 23 21.11c0-4.34-5.12-11.893-8.55-16.928zm3.603 23.482c-1.693 1.692-3.993 2.69-6.553 2.69s-4.86-1.04-6.553-2.69c-1.692-1.693-2.69-3.994-2.69-6.554 0-3.646 4.903-10.895 8.158-15.713.39-.564.738-1.128 1.085-1.606.347.478.694 1.042 1.085 1.606 3.255 4.862 8.158 12.067 8.158 15.713 0 2.56-1.041 4.861-2.69 6.554z" fill="#009CD9"/><path d="M11 18a1 1 0 112 0v6a1 1 0 11-2 0v-6z" fill="#009CD9"/><path d="M9 22a1 1 0 110-2h6a1 1 0 110 2H9z" fill="#009CD9"/></svg>