<svg width="25" height="25" fill="none" xmlns="http://www.w3.org/2000/svg"><path opacity=".2" d="M21.342 3.664c-4.883-4.882-12.785-4.883-17.668 0-4.883 4.882-4.883 12.785 0 17.668 4.009 4.01 10 4.689 14.675 2.212 7.417-3.937 8.942-13.93 2.993-19.88z" fill="#009CD9"/><path d="M23.958 11.458c-.575 0-1.041.467-1.041 1.042 0 5.744-4.673 10.417-10.417 10.417S2.083 18.244 2.083 12.5 6.756 2.083 12.5 2.083c2.796 0 5.421 1.093 7.392 3.077a1.04 1.04 0 101.478-1.467A12.415 12.415 0 0012.5 0C5.607 0 0 5.607 0 12.5S5.607 25 12.5 25 25 19.393 25 12.5c0-.575-.467-1.042-1.042-1.042z" fill="#009CD9"/><path fill-rule="evenodd" clip-rule="evenodd" d="M13.5 8a1 1 0 10-2 0v3.5H8a1 1 0 100 2h3.5V17a1 1 0 102 0v-3.5H17a1 1 0 100-2h-3.5V8z" fill="#009CD9"/><path fill-rule="evenodd" clip-rule="evenodd" d="M13.5 8a1 1 0 10-2 0v3.5H8a1 1 0 100 2h3.5V17a1 1 0 102 0v-3.5H17a1 1 0 100-2h-3.5V8z" fill="#009CD9"/></svg>