<svg width="60" height="60" fill="none" xmlns="http://www.w3.org/2000/svg"><g clip-path="url(#clip0)" fill="#009CD9"><path opacity=".2" d="M51.219 8.79C39.5-2.926 20.534-2.927 8.815 8.79c-11.717 11.719-11.719 30.685 0 42.404 9.622 9.622 24.003 11.253 35.221 5.31 17.8-9.45 21.461-33.434 7.183-47.713z"/><path d="M16.434 31.708c2.001-1.008 3.322-2.602 3.322-4.905-.022-2.486-2.068-4.51-4.554-4.51-4.392 0-5.892 5.852-3.256 5.852.726 0 1.298-.572 1.298-1.299 0-1.078.88-1.957 1.958-1.957 1.078 0 1.958.88 1.958 1.957v.22c0 .353-.176 1.43-1.892 2.31-4.575 2.288-4.62 6.82-4.62 7.018 0 .726.572 1.297 1.298 1.297h6.512c.726 0 1.298-.572 1.298-1.297 0-.726-.572-1.298-1.298-1.298h-4.972c.33-1.056 1.122-2.486 2.948-3.388zm12.12 5.984c.726 0 1.298-.572 1.298-1.276V34.48h.637c.704 0 1.276-.572 1.276-1.276 0-.704-.572-1.298-1.276-1.298h-.637V23.57c0-.704-.572-1.276-1.298-1.276h-.638a1.28 1.28 0 00-1.122.682c-5.613 10.527-5.28 9.762-5.28 10.229 0 .78.653 1.276 1.276 1.276h4.488v1.936c0 .704.572 1.276 1.276 1.276zm-3.63-5.786l2.354-4.4v4.4h-2.354zm12.449-9.613c-.593 0-1.144.418-1.253 1.034l-2.574 12.825c-.146.583.245 1.38 1.012 1.518.584.146 1.358-.24 1.495-1.012 2.781-13.856 2.596-12.861 2.596-13.067 0-.689-.52-1.298-1.276-1.298zm3.036 14.123c0 1.355 1.826 1.76 2.42.572l6.423-12.847c.406-.812-.173-1.848-1.144-1.848h-6.423c-.704 0-1.276.572-1.276 1.276 0 .726.572 1.298 1.276 1.298h4.333c-5.981 11.987-5.61 11.11-5.61 11.549z"/><path d="M57.971 48.84l-4.917.338A29.998 29.998 0 0060 29.992C60 13.42 46.59.008 30.016.008 13.445.008.032 13.418.032 29.992c0 22.785 24.291 36.954 44.003 26.51a1.898 1.898 0 10-1.777-3.354c-17.112 9.066-38.43-3.164-38.43-23.156 0-14.473 11.712-26.187 26.187-26.187 14.473 0 26.187 11.712 26.187 26.187a26.202 26.202 0 01-6.396 17.146l-.395-5.757a1.9 1.9 0 00-3.788.26l.68 9.903a1.898 1.898 0 001.892 1.769c.102 0-.607.046 10.035-.684a1.898 1.898 0 00-.26-3.788z"/></g><defs><clipPath id="clip0"><path fill="#fff" d="M0 0h60v60H0z"/></clipPath></defs></svg>