<svg width="32" height="33" fill="none" xmlns="http://www.w3.org/2000/svg"><path d="M2.392 13.727h5.374v14.309H2.392a1.134 1.134 0 01-1.134-1.134V14.86a1.134 1.134 0 011.134-1.133z" fill="#fff"/><path d="M2.39 13.727h5.375v14.309H2.391a1.134 1.134 0 01-1.134-1.134V14.86a1.134 1.134 0 011.134-1.133z" stroke="#009CD9" stroke-width="2" stroke-linecap="round" stroke-linejoin="round"/><path d="M7.766 13.727l5.76-9.206a2.472 2.472 0 012.131-1.18 2.517 2.517 0 012.608 2.495v6.599h9.955a2.608 2.608 0 012.494 2.993L28.9 27.13a2.586 2.586 0 01-2.562 2.268H11.462a4.536 4.536 0 01-2.041-.476l-1.633-.817" fill="#E6F5FB"/><path d="M7.766 13.727l5.76-9.206a2.472 2.472 0 012.131-1.18 2.517 2.517 0 012.608 2.495v6.599h9.955a2.608 2.608 0 012.494 2.993L28.9 27.13a2.586 2.586 0 01-2.562 2.268H11.462a4.533 4.533 0 01-2.041-.476l-1.633-.817m-.022-14.378v14.309" stroke="#009CD9" stroke-width="2" stroke-linecap="round" stroke-linejoin="round"/></svg>