<svg width="32" height="33" fill="none" xmlns="http://www.w3.org/2000/svg"><g clip-path="url(#clip0_317_7093)"><path d="M21.714 1.582a9.143 9.143 0 00-9.142 9.143 9.532 9.532 0 00.731 3.611l-1.874 4.389 4.891-.617a9.143 9.143 0 105.394-16.526z" fill="#fff"/><path fill-rule="evenodd" clip-rule="evenodd" d="M3.428 1.582h16c.266 0 .52.045.758.129a9.143 9.143 0 00-7.615 9.014 9.532 9.532 0 00.732 3.611l-1.875 4.389 4.892-.617a9.142 9.142 0 005.394 1.76v9.143a2.286 2.286 0 01-2.286 2.285h-16a2.286 2.286 0 01-2.285-2.285V3.868a2.286 2.286 0 012.285-2.286z" fill="#E6F5FB"/><path d="M21.715 6.152v3.429m-.001 5.144a.571.571 0 010-1.143m.001 1.143a.572.572 0 000-1.143" stroke="#009CD9" stroke-width="2" stroke-linecap="round" stroke-linejoin="round"/><path d="M21.714 1.582a9.143 9.143 0 00-9.142 9.143 9.532 9.532 0 00.731 3.611l-1.874 4.389 4.891-.617a9.143 9.143 0 105.394-16.526z" stroke="#009CD9" stroke-width="2" stroke-linecap="round" stroke-linejoin="round"/><path d="M11.428 1.582h-8a2.286 2.286 0 00-2.285 2.286V29.01a2.286 2.286 0 002.285 2.285h16a2.286 2.286 0 002.286-2.285v-4.572m-11.429 1.144h2.286" stroke="#009CD9" stroke-width="2" stroke-linecap="round" stroke-linejoin="round"/></g><defs><clipPath id="clip0_317_7093"><path fill="#fff" transform="translate(0 .438)" d="M0 0h32v32H0z"/></clipPath></defs></svg>