<svg width="32" height="33" fill="none" xmlns="http://www.w3.org/2000/svg"><g clip-path="url(#clip0_317_7048)"><path d="M25.272 1.629H9.386a2.38 2.38 0 00-1.255.358L3.949 4.586l4.182 2.598a2.38 2.38 0 001.255.358h15.886a2.957 2.957 0 100-5.913z" fill="#fff"/><path d="M16.318 15.966c-1.778-1.316-4.446-3.618-12.092-3.618V28.82c7.646 0 10.314 2.302 12.092 3.618 1.778-1.316 4.447-3.618 12.094-3.618V12.348c-7.647 0-10.316 2.302-12.094 3.617z" fill="#E6F5FB"/><path d="M16.318 15.966c-1.778-1.316-4.446-3.618-12.092-3.618V28.82c7.646 0 10.314 2.302 12.092 3.618V15.965zm0 0c1.778-1.316 4.446-3.618 12.093-3.618V28.82c-7.647 0-10.315 2.302-12.093 3.618V15.965zm8.954-14.337H9.386a2.38 2.38 0 00-1.255.358L3.949 4.586l4.182 2.598a2.38 2.38 0 001.255.358h15.886a2.957 2.957 0 100-5.913zm-4.229.125v5.787" stroke="#009CD9" stroke-width="2" stroke-linecap="round" stroke-linejoin="round"/></g><defs><clipPath id="clip0_317_7048"><path fill="#fff" transform="translate(0 .438)" d="M0 0h32v32H0z"/></clipPath></defs></svg>