<svg width="32" height="33" fill="none" xmlns="http://www.w3.org/2000/svg"><g clip-path="url(#clip0_317_7060)"><path fill-rule="evenodd" clip-rule="evenodd" d="M4.987 23.015a22.102 22.102 0 0010.19 8.121 2.28 2.28 0 001.646 0 22.1 22.1 0 0014.034-20.594V3.868a2.286 2.286 0 00-2.286-2.286H3.428a2.286 2.286 0 00-2.285 2.286v6.697a22.103 22.103 0 003.844 12.45zm14.441-11.064a3.429 3.429 0 11-6.857 0 3.429 3.429 0 016.857 0z" fill="#E6F5FB"/><path d="M16 15.377a3.429 3.429 0 100-6.857 3.429 3.429 0 000 6.857z" fill="#fff"/><path d="M16.823 31.136a2.285 2.285 0 01-1.646 0A22.102 22.102 0 011.143 10.565V3.868a2.286 2.286 0 012.285-2.286h25.143a2.286 2.286 0 012.286 2.286v6.674a22.102 22.102 0 01-14.034 20.594z" stroke="#009CD9" stroke-width="2" stroke-linecap="round" stroke-linejoin="round"/><path d="M16 15.377a3.429 3.429 0 100-6.857 3.429 3.429 0 000 6.857zm0 5.716V15.38" stroke="#009CD9" stroke-width="2" stroke-linecap="round" stroke-linejoin="round"/></g><defs><clipPath id="clip0_317_7060"><path fill="#fff" transform="translate(0 .438)" d="M0 0h32v32H0z"/></clipPath></defs></svg>