<svg width="32" height="33" fill="none" xmlns="http://www.w3.org/2000/svg"><g clip-path="url(#clip0_317_7081)"><path d="M16 31.296c8.205 0 14.857-6.651 14.857-14.857 0-8.205-6.652-14.857-14.857-14.857-8.206 0-14.857 6.652-14.857 14.857 0 8.206 6.651 14.857 14.857 14.857z" fill="#E6F5FB"/><path d="M16 31.296c8.205 0 14.857-6.651 14.857-14.857 0-8.205-6.652-14.857-14.857-14.857-8.206 0-14.857 6.652-14.857 14.857 0 8.206 6.651 14.857 14.857 14.857z" stroke="#009CD9" stroke-width="2" stroke-linecap="round" stroke-linejoin="round"/><path d="M8.457 18.723c1.143 4.114 5.714 6.628 9.829 5.485 2.514-.914 4.571-2.971 5.257-5.485M10.858 13.01a.571.571 0 110-1.143m-.001 1.143a.571.571 0 100-1.143m10.286 1.143a.571.571 0 110-1.143m0 1.143a.571.571 0 100-1.143" stroke="#009CD9" stroke-width="2" stroke-linecap="round" stroke-linejoin="round"/></g><defs><clipPath id="clip0_317_7081"><path fill="#fff" transform="translate(0 .438)" d="M0 0h32v32H0z"/></clipPath></defs></svg>