<svg width="32" height="33" fill="none" xmlns="http://www.w3.org/2000/svg"><g clip-path="url(#clip0_317_7106)"><path d="M29.714 17.582h-8c-.631 0-1.143.512-1.143 1.143v4.571c0 .631.512 1.143 1.143 1.143h8c.631 0 1.143-.512 1.143-1.143v-4.571c0-.631-.512-1.143-1.143-1.143z" fill="#fff"/><path fill-rule="evenodd" clip-rule="evenodd" d="M1.143 11.865v17.143a2.285 2.285 0 002.285 2.286h21.715a2.286 2.286 0 002.285-2.286v-4.572h-5.714a1.143 1.143 0 01-1.143-1.142v-4.572c0-.631.512-1.143 1.143-1.143h5.714v-4.571a2.286 2.286 0 00-2.285-2.286h-2.286V5.008H8a6.857 6.857 0 00-6.857 6.857z" fill="#E6F5FB"/><path d="M29.714 17.582h-8c-.631 0-1.143.512-1.143 1.143v4.571c0 .631.512 1.143 1.143 1.143h8c.631 0 1.143-.512 1.143-1.143v-4.571c0-.631-.512-1.143-1.143-1.143z" stroke="#009CD9" stroke-width="2" stroke-linecap="round" stroke-linejoin="round"/><path d="M27.428 24.436v4.572a2.286 2.286 0 01-2.285 2.286H3.428a2.286 2.286 0 01-2.285-2.286V11.865A6.857 6.857 0 018 5.008h14.857v5.714" stroke="#009CD9" stroke-width="2" stroke-linecap="round" stroke-linejoin="round"/><path d="M27.429 17.58v-4.572a2.286 2.286 0 00-2.286-2.285H8" stroke="#009CD9" stroke-width="2" stroke-linecap="round" stroke-linejoin="round"/></g><defs><clipPath id="clip0_317_7106"><path fill="#fff" transform="translate(0 .438)" d="M0 0h32v32H0z"/></clipPath></defs></svg>