<svg width="20" height="18" fill="none" xmlns="http://www.w3.org/2000/svg"><mask id="a" fill="#fff"><path d="M10 2.455L8.975 1.418C6.57-1.017 2.162-.177.57 2.883c-.747 1.44-.916 3.518.448 6.172C2.334 11.609 5.067 14.667 10 18c4.933-3.333 7.665-6.39 8.982-8.945 1.363-2.655 1.196-4.732.447-6.17-1.591-3.061-6-3.903-8.405-1.469L10 2.456z"/></mask><path d="M10 2.455L8.975 1.418C6.57-1.017 2.162-.177.57 2.883c-.747 1.44-.916 3.518.448 6.172C2.334 11.609 5.067 14.667 10 18c4.933-3.333 7.665-6.39 8.982-8.945 1.363-2.655 1.196-4.732.447-6.17-1.591-3.061-6-3.903-8.405-1.469L10 2.456z" stroke="#586A74" stroke-width="3" mask="url(#a)"/></svg>