<svg width="142" height="31" fill="none" xmlns="http://www.w3.org/2000/svg"><mask id="a" maskUnits="userSpaceOnUse" x="0" y="0" width="31" height="31"><path d="M15.26 30.287c8.43 0 15.262-6.78 15.262-15.143C30.522 6.78 23.689 0 15.26 0 6.833 0 0 6.78 0 15.143c0 8.364 6.833 15.144 15.26 15.144z" fill="#2B679D"/></mask><g mask="url(#a)"><path d="M15.26 30.287c8.43 0 15.262-6.78 15.262-15.143C30.522 6.78 23.689 0 15.26 0 6.833 0 0 6.78 0 15.143c0 8.364 6.833 15.144 15.26 15.144z" fill="#0067A0"/><path d="M1.815 27.842c6.729 6.729 17.596 6.77 24.273.094 6.677-6.677 6.635-17.544-.094-24.273L1.816 27.843z" fill="#009CD9"/><path opacity=".1" d="M21.06-4.12L1.831 26.554l-5.036-5.036L.458 3.205 21.06-4.12z" fill="#000"/><path opacity=".1" d="M34.795 5.494L4.12 27.47l6.41 6.41v1.373l20.602-6.867 3.663-22.892z" fill="#F9FAFA"/></g><path fill-rule="evenodd" clip-rule="evenodd" d="M2.29 15.156a5.125 5.125 0 010-.024c2.856-.187 5.14-2.454 5.329-5.288h.025c.188 2.834 2.472 5.101 5.328 5.288v.024c-2.856.187-5.14 2.454-5.328 5.288h-.025c-.188-2.834-2.473-5.101-5.33-5.288zm16.825 8.166a4.221 4.221 0 00-3.626-3.598 4.221 4.221 0 003.626-3.598 4.22 4.22 0 003.626 3.598 4.221 4.221 0 00-3.626 3.598zM15.26 12.113c0-2.09-1.707-3.785-3.814-3.785 2.107 0 3.815-1.695 3.815-3.785 0 2.09 1.707 3.785 3.814 3.785-2.107 0-3.814 1.694-3.814 3.785zm3.817-3.785h-.001zm6.868 6.815c0-2.09-1.708-3.786-3.815-3.786 2.107 0 3.815-1.695 3.815-3.786 0 2.091 1.708 3.786 3.816 3.786-2.108 0-3.816 1.695-3.816 3.786z" fill="#F9FAFA"/><path d="M45.338 20.476c.85 0 1.453-.083 1.805-.249.353-.166.53-.487.53-.965 0-.373-.229-.695-.685-.965-.457-.29-1.152-.612-2.086-.965-.727-.27-1.39-.55-1.993-.84a6.13 6.13 0 01-1.494-1.028 4.385 4.385 0 01-.965-1.463c-.228-.56-.343-1.235-.343-2.024 0-1.536.571-2.75 1.713-3.642 1.141-.893 2.708-1.339 4.7-1.339.997 0 1.952.093 2.865.28.913.166 1.64.353 2.18.56l-.81 3.612a16.64 16.64 0 00-1.775-.498 9.35 9.35 0 00-2.117-.218c-1.453 0-2.18.405-2.18 1.214 0 .187.032.353.094.498.063.145.187.29.374.436.187.125.436.27.747.436.332.145.747.311 1.245.498 1.017.374 1.858.747 2.522 1.12.664.354 1.183.748 1.557 1.184.394.415.664.882.81 1.4.165.52.248 1.122.248 1.806 0 1.62-.612 2.844-1.837 3.674-1.203.83-2.916 1.245-5.136 1.245-1.453 0-2.667-.124-3.643-.373-.955-.25-1.619-.457-1.992-.623l.778-3.767c.789.311 1.598.56 2.428.747.83.166 1.65.25 2.46.25zm9.63-4.732c0-1.453.218-2.719.654-3.798.457-1.1 1.048-2.013 1.775-2.74a7.354 7.354 0 012.49-1.65 7.967 7.967 0 012.927-.56c2.324 0 4.161.716 5.51 2.148 1.35 1.412 2.024 3.497 2.024 6.258 0 .27-.01.57-.031.903-.021.311-.042.591-.063.84H59.732c.104.955.55 1.713 1.338 2.273.79.56 1.848.84 3.176.84.85 0 1.681-.072 2.49-.217.83-.166 1.505-.364 2.024-.592l.623 3.767c-.25.124-.581.25-.996.374-.416.124-.883.228-1.401.31a16.23 16.23 0 01-1.62.25 16.4 16.4 0 01-1.743.093c-1.473 0-2.76-.218-3.86-.653-1.08-.436-1.982-1.028-2.709-1.775a7.534 7.534 0 01-1.587-2.709c-.332-1.037-.498-2.158-.498-3.362zm10.897-1.774a4.352 4.352 0 00-.218-1.152 2.567 2.567 0 00-.53-.996 2.594 2.594 0 00-.902-.716c-.353-.187-.8-.28-1.339-.28-.519 0-.965.093-1.339.28a2.602 2.602 0 00-.934.684 3.337 3.337 0 00-.591 1.028 7.183 7.183 0 00-.28 1.152h6.133zm18.025.436a121.431 121.431 0 01-1.339 4.7 151.779 151.779 0 01-1.463 4.701h-3.611a59.032 59.032 0 01-1.215-3.113 195.76 195.76 0 01-1.37-3.922c-.456-1.432-.933-2.937-1.431-4.515a326.63 326.63 0 01-1.401-4.825h4.887c.166.747.343 1.567.53 2.46.207.871.415 1.774.622 2.708.229.934.457 1.878.685 2.833.25.934.498 1.837.747 2.708.27-.913.53-1.847.779-2.801.27-.955.519-1.89.747-2.802.249-.934.477-1.827.685-2.678.228-.871.425-1.68.591-2.428h3.362c.167.747.353 1.557.56 2.428l.655 2.678c.228.913.467 1.847.716 2.801.249.955.508 1.89.778 2.802.25-.871.498-1.774.747-2.708.25-.955.478-1.9.685-2.833.228-.934.436-1.837.623-2.709.207-.892.394-1.712.56-2.46h4.826a184.83 184.83 0 01-1.432 4.826 170.084 170.084 0 01-1.432 4.515 83.99 83.99 0 01-1.37 3.922 59.112 59.112 0 01-1.215 3.114h-3.61a607.84 607.84 0 01-1.526-4.701 93.51 93.51 0 01-1.37-4.701zm13.308 1.338c0-1.453.218-2.719.654-3.798.456-1.1 1.048-2.013 1.774-2.74a7.352 7.352 0 012.491-1.65 7.963 7.963 0 012.926-.56c2.325 0 4.161.716 5.51 2.148 1.35 1.412 2.024 3.497 2.024 6.258 0 .27-.01.57-.031.903a65.85 65.85 0 01-.062.84h-10.523c.104.955.55 1.713 1.339 2.273.788.56 1.847.84 3.175.84.851 0 1.681-.072 2.491-.217.83-.166 1.504-.364 2.023-.592l.623 3.767a6.4 6.4 0 01-.996.374c-.415.124-.882.228-1.401.31-.498.105-1.038.188-1.619.25s-1.162.093-1.744.093c-1.473 0-2.76-.218-3.86-.653-1.079-.436-1.982-1.028-2.708-1.775a7.533 7.533 0 01-1.588-2.709c-.332-1.037-.498-2.158-.498-3.362zm10.896-1.774a4.34 4.34 0 00-.218-1.152 2.57 2.57 0 00-.529-.996 2.603 2.603 0 00-.903-.716c-.353-.187-.799-.28-1.339-.28-.519 0-.965.093-1.338.28a2.597 2.597 0 00-.934.684 3.34 3.34 0 00-.592 1.028 7.204 7.204 0 00-.28 1.152h6.133zm17.932-2.429a24.47 24.47 0 00-1.464-.31 8.31 8.31 0 00-1.805-.188c-.291 0-.644.031-1.059.094a5.277 5.277 0 00-.903.155v12.516h-4.638V8.304c.83-.29 1.805-.56 2.926-.81 1.142-.27 2.408-.405 3.798-.405.249 0 .55.021.903.063a9.2 9.2 0 011.059.124 9.46 9.46 0 011.058.187c.353.062.654.145.903.25l-.778 3.828zm9.218 9.029c.457 0 .893-.01 1.308-.031a9.01 9.01 0 00.996-.094v-3.518a8.569 8.569 0 00-.841-.124 9.33 9.33 0 00-1.027-.063 7.97 7.97 0 00-1.245.094 2.928 2.928 0 00-.996.28 1.733 1.733 0 00-.685.592c-.166.249-.249.56-.249.934 0 .726.238 1.235.716 1.525.498.27 1.172.405 2.023.405zm-.373-13.574c1.369 0 2.511.156 3.424.467.913.311 1.64.758 2.179 1.339a4.832 4.832 0 011.183 2.117c.229.83.343 1.753.343 2.77v9.651c-.664.146-1.588.312-2.771.499-1.183.207-2.615.311-4.296.311-1.059 0-2.024-.093-2.895-.28-.851-.187-1.588-.488-2.211-.903a4.324 4.324 0 01-1.432-1.681c-.332-.685-.498-1.526-.498-2.522 0-.955.187-1.764.56-2.428a4.573 4.573 0 011.557-1.588 6.69 6.69 0 012.21-.84c.831-.187 1.692-.28 2.584-.28.602 0 1.132.03 1.588.093a6.34 6.34 0 011.152.187v-.436c0-.79-.239-1.422-.716-1.9-.477-.477-1.308-.715-2.491-.715-.788 0-1.567.062-2.335.186-.767.104-1.432.26-1.992.467l-.591-3.736c.269-.083.601-.166.996-.249a11.84 11.84 0 011.338-.249c.478-.083.976-.145 1.495-.187a14.102 14.102 0 011.619-.093z" fill="#0067A0"/></svg>