<svg width="181" height="38" fill="none" xmlns="http://www.w3.org/2000/svg"><path d="M65.734 24.603c1.011 0 1.727-.099 2.146-.296.42-.197.629-.58.629-1.147 0-.444-.271-.826-.814-1.147-.543-.345-1.369-.728-2.479-1.147a27.371 27.371 0 01-2.368-.999 7.284 7.284 0 01-1.776-1.221 5.211 5.211 0 01-1.147-1.739c-.271-.666-.407-1.468-.407-2.405 0-1.825.678-3.268 2.035-4.329 1.357-1.06 3.219-1.591 5.587-1.591 1.184 0 2.319.111 3.404.333 1.085.197 1.949.42 2.59.666l-.962 4.292a19.78 19.78 0 00-2.109-.592c-.74-.173-1.579-.259-2.516-.259-1.727 0-2.59.481-2.59 1.443 0 .222.037.42.111.592.074.173.222.345.444.518.222.148.518.32.888.518.395.173.888.37 1.48.592 1.209.444 2.208.888 2.997 1.332.79.42 1.406.888 1.85 1.406a3.92 3.92 0 01.962 1.665c.197.617.296 1.332.296 2.146 0 1.924-.728 3.38-2.183 4.366-1.43.987-3.466 1.48-6.105 1.48-1.727 0-3.17-.148-4.329-.444-1.135-.296-1.924-.543-2.368-.74l.925-4.477c.937.37 1.9.666 2.886.888.987.197 1.961.296 2.923.296zm11.446-5.624c0-1.727.259-3.231.777-4.514.543-1.307 1.246-2.393 2.109-3.256a8.741 8.741 0 012.96-1.961 9.469 9.469 0 013.478-.666c2.763 0 4.946.851 6.549 2.553 1.603 1.677 2.405 4.156 2.405 7.437 0 .32-.012.678-.037 1.073-.025.37-.05.703-.074.999H82.841c.123 1.135.654 2.035 1.591 2.701.937.666 2.195.999 3.774.999a16.72 16.72 0 002.96-.259c.987-.197 1.788-.432 2.405-.703l.74 4.477c-.296.148-.69.296-1.184.444a12.96 12.96 0 01-1.665.37c-.592.123-1.233.222-1.924.296-.69.074-1.381.111-2.072.111-1.751 0-3.28-.259-4.588-.777-1.283-.518-2.356-1.221-3.219-2.109a8.953 8.953 0 01-1.887-3.219c-.395-1.233-.592-2.565-.592-3.996zm12.95-2.109a5.17 5.17 0 00-.259-1.369 3.052 3.052 0 00-.629-1.184 3.1 3.1 0 00-1.073-.851c-.42-.222-.95-.333-1.591-.333-.617 0-1.147.111-1.591.333a3.092 3.092 0 00-1.11.814 3.96 3.96 0 00-.703 1.221c-.148.444-.259.9-.333 1.369h7.289zm21.422.518a142.588 142.588 0 01-1.591 5.587 177.5 177.5 0 01-1.739 5.587h-4.292a70.22 70.22 0 01-1.443-3.7c-.518-1.43-1.06-2.985-1.628-4.662a2318.8 2318.8 0 01-1.702-5.365A399.72 399.72 0 0197.492 9.1h5.809c.198.888.407 1.862.629 2.923.247 1.036.494 2.109.74 3.219.272 1.11.543 2.232.814 3.367.296 1.11.592 2.183.888 3.219.321-1.085.629-2.195.925-3.33.321-1.135.617-2.245.888-3.33.296-1.11.568-2.17.814-3.182.272-1.036.506-1.998.703-2.886h3.996c.198.888.42 1.85.666 2.886l.777 3.182c.272 1.085.555 2.195.851 3.33.296 1.135.605 2.245.925 3.33.296-1.036.592-2.109.888-3.219.296-1.135.568-2.257.814-3.367.272-1.11.518-2.183.74-3.219.247-1.06.469-2.035.666-2.923h5.735a217.086 217.086 0 01-1.702 5.735 198.501 198.501 0 01-1.702 5.365 98.644 98.644 0 01-1.628 4.662 70.22 70.22 0 01-1.443 3.7h-4.292a754.859 754.859 0 01-1.813-5.587 111.788 111.788 0 01-1.628-5.587zm15.816 1.591c0-1.727.259-3.231.777-4.514.543-1.307 1.246-2.393 2.109-3.256a8.748 8.748 0 012.96-1.961 9.47 9.47 0 013.478-.666c2.763 0 4.946.851 6.549 2.553 1.604 1.677 2.405 4.156 2.405 7.437 0 .32-.012.678-.037 1.073-.024.37-.049.703-.074.999h-12.506c.124 1.135.654 2.035 1.591 2.701.938.666 2.196.999 3.774.999 1.012 0 1.998-.086 2.96-.259.987-.197 1.789-.432 2.405-.703l.74 4.477c-.296.148-.69.296-1.184.444a12.96 12.96 0 01-1.665.37c-.592.123-1.233.222-1.924.296-.69.074-1.381.111-2.072.111-1.751 0-3.28-.259-4.588-.777-1.282-.518-2.355-1.221-3.219-2.109a8.973 8.973 0 01-1.887-3.219c-.394-1.233-.592-2.565-.592-3.996zm12.95-2.109a5.143 5.143 0 00-.259-1.369 3.048 3.048 0 00-.629-1.184 3.098 3.098 0 00-1.073-.851c-.419-.222-.949-.333-1.591-.333-.616 0-1.147.111-1.591.333a3.092 3.092 0 00-1.11.814c-.296.345-.53.752-.703 1.221-.148.444-.259.9-.333 1.369h7.289zm21.312-2.886a29.204 29.204 0 00-1.739-.37 9.878 9.878 0 00-2.146-.222c-.345 0-.765.037-1.258.111-.469.05-.826.111-1.073.185v14.874h-5.513V10.136c.987-.345 2.146-.666 3.478-.962 1.357-.32 2.861-.481 4.514-.481.296 0 .654.025 1.073.074.419.025.839.074 1.258.148.419.05.839.123 1.258.222.419.074.777.173 1.073.296l-.925 4.551zm10.956 10.73c.543 0 1.061-.012 1.554-.037a10.99 10.99 0 001.184-.111v-4.181a10.21 10.21 0 00-.999-.148c-.444-.05-.851-.074-1.221-.074a9.49 9.49 0 00-1.48.111 3.49 3.49 0 00-1.184.333 2.064 2.064 0 00-.814.703c-.197.296-.296.666-.296 1.11 0 .863.284 1.468.851 1.813.592.32 1.394.481 2.405.481zm-.444-16.132c1.628 0 2.985.185 4.07.555 1.085.37 1.949.9 2.59 1.591.666.69 1.135 1.53 1.406 2.516.271.987.407 2.084.407 3.293v11.47c-.789.173-1.887.37-3.293.592-1.406.247-3.108.37-5.106.37-1.258 0-2.405-.111-3.441-.333-1.011-.222-1.887-.58-2.627-1.073a5.137 5.137 0 01-1.702-1.998c-.395-.814-.592-1.813-.592-2.997 0-1.135.222-2.097.666-2.886a5.423 5.423 0 011.85-1.887c.765-.469 1.64-.802 2.627-.999a13.95 13.95 0 013.071-.333c.715 0 1.344.037 1.887.111.567.05 1.024.123 1.369.222v-.518c0-.937-.284-1.69-.851-2.257-.567-.567-1.554-.851-2.96-.851-.937 0-1.862.074-2.775.222-.913.123-1.702.308-2.368.555l-.703-4.44a13.73 13.73 0 011.184-.296 14.072 14.072 0 011.591-.296 19.362 19.362 0 011.776-.222 16.772 16.772 0 011.924-.111zM39 29a9 9 0 11-18 0v-6.984c0-1.113.903-2.016 2.016-2.016H30a9 9 0 019 9z" fill="#0067A0"/><path d="M21 2a2 2 0 012-2h14a2 2 0 012 2v14a2 2 0 01-2 2H23a2 2 0 01-2-2V2z" fill="#0DB25A"/><path d="M0 22a2 2 0 012-2h14a2 2 0 012 2v14a2 2 0 01-2 2H2a2 2 0 01-2-2V22z" fill="#009CD9"/><path d="M2 18a2 2 0 01-2-2V2a2 2 0 012-2h4c6.627 0 12 5.373 12 12v4a2 2 0 01-2 2H2z" fill="#FFB306"/></svg>