<svg width="20" height="20" fill="none" xmlns="http://www.w3.org/2000/svg"><path fill="#009CD9" d="M0 0h20v20H0z"/><path d="M19.998 9.219a8.673 8.673 0 01-1.586 4.985.781.781 0 11-1.281-.895 7.12 7.12 0 001.305-4.09c0-4.222-3.786-7.657-8.438-7.657-4.652 0-8.437 3.435-8.437 7.657 0 1.71.608 3.328 1.76 4.678a.78.78 0 01.129.8l-1.225 3.03 3.568-1.572a.781.781 0 01.622-.004 9.078 9.078 0 003.583.724 9.118 9.118 0 004.113-.97.781.781 0 11.707 1.393 10.688 10.688 0 01-4.82 1.14c-1.347 0-2.65-.242-3.878-.72l-5.025 2.215a.78.78 0 01-.86-.154.781.781 0 01-.18-.853l1.774-4.388c-1.2-1.56-1.83-3.389-1.83-5.32 0-2.475 1.048-4.798 2.953-6.542C4.838.95 7.34 0 9.998 0c2.658 0 5.16.95 7.046 2.676 1.905 1.744 2.954 4.067 2.954 6.543zM8.043 13.978c0 .151.13.241.3.24a.476.476 0 00.324-.13l4.36-4.95c.395-.456.076-1.17-.53-1.17H10.27l1.8-3.085H8.797l-2.23 3.954a.966.966 0 00.853 1.436h1.945l-1.293 3.584a.296.296 0 00-.03.121z" fill="#74C3E1"/></svg>