<svg width="40" height="40" fill="none" xmlns="http://www.w3.org/2000/svg"><g clip-path="url(#clip0_1_54)"><path d="M29.688 20a9.681 9.681 0 01-18.79 3.282l-5.542 4.433A16.555 16.555 0 0036.563 20" fill="#00AC47"/><path d="M29.688 20a9.672 9.672 0 01-4.065 7.873l5.478 4.383A16.507 16.507 0 0036.563 20" fill="#4285F4"/><path d="M10.313 20c.002-1.12.2-2.23.584-3.282l-5.54-4.433a16.471 16.471 0 000 15.43l5.54-4.432A9.622 9.622 0 0110.312 20z" fill="#FFBA00"/><path d="M20 10.313c2.05 0 4.046.655 5.698 1.87l5.075-4.737a16.52 16.52 0 00-25.417 4.839l5.541 4.433A9.695 9.695 0 0120 10.313z" fill="#EA4435"/><path d="M36.563 18.75V20l-2.813 4.375H20.625V17.5h14.688a1.25 1.25 0 011.25 1.25z" fill="#4285F4"/></g><defs><clipPath id="clip0_1_54"><path fill="#fff" d="M0 0h40v40H0z"/></clipPath></defs></svg>