<svg width="40" height="40" fill="none" xmlns="http://www.w3.org/2000/svg"><path d="M28.8 21.23h-5.179c-.506 0-.758 0-.967.05a1.846 1.846 0 00-1.374 1.373c-.049.209-.049.462-.049.968V28.8a7.57 7.57 0 107.57-7.57z" fill="#0067A0"/><path d="M15.815 21.234H6.954c-1.034 0-1.551 0-1.946.202-.347.177-.63.459-.807.806C4 22.637 4 23.154 4 24.188v8.862c0 1.034 0 1.55.201 1.946.177.347.46.63.807.806.395.202.912.202 1.946.202h8.861c1.034 0 1.551 0 1.946-.202.348-.177.63-.459.807-.806.201-.395.201-.912.201-1.946v-8.862c0-1.034 0-1.55-.201-1.946a1.846 1.846 0 00-.807-.806c-.395-.202-.912-.202-1.946-.202z" fill="#009CD9"/><path d="M33.049 4h-8.862c-1.034 0-1.55 0-1.946.201-.347.177-.63.46-.806.807-.202.395-.202.912-.202 1.946v8.859c0 1.034 0 1.55.202 1.946.177.347.459.63.806.806.395.202.912.202 1.946.202h8.862c1.034 0 1.55 0 1.946-.202.347-.177.63-.46.806-.806.202-.395.202-.912.202-1.946v-8.86c0-1.033 0-1.55-.202-1.945a1.846 1.846 0 00-.806-.807C34.6 4 34.083 4 33.049 4z" fill="#0DB25A"/><path d="M6.954 18.77h9.483c.452 0 .677 0 .865-.04a1.846 1.846 0 001.428-1.428c.04-.188.04-.413.04-.865 0-2.408 0-3.612-.21-4.611a9.846 9.846 0 00-7.616-7.616C9.944 4 8.74 4 6.332 4c-.452 0-.677 0-.865.04-.717.15-1.277.71-1.428 1.427C4 5.655 4 5.88 4 6.332v9.483c0 1.034 0 1.551.201 1.946.177.348.46.63.807.807.395.201.912.201 1.946.201z" fill="#FFB306"/></svg>