<svg width="40" height="40" fill="none" xmlns="http://www.w3.org/2000/svg"><g clip-path="url(#clip0_1_36)"><path d="M20 39.96c11.023 0 19.959-8.937 19.959-19.96 0-11.023-8.936-19.959-19.96-19.959C8.978.041.042 8.977.042 20.001.04 31.022 8.977 39.958 20 39.958z" fill="#FC3F1D"/><path d="M27.222 32.53h-4.381V10.86h-1.952c-3.578 0-5.452 1.788-5.452 4.459 0 3.03 1.293 4.433 3.967 6.222l2.203 1.485-6.333 9.5h-4.711l5.7-8.482c-3.278-2.34-5.122-4.625-5.122-8.481 0-4.819 3.359-8.096 9.718-8.096h6.334v25.055h.03v.008z" fill="#fff"/></g><defs><clipPath id="clip0_1_36"><path fill="#fff" d="M0 0h40v40H0z"/></clipPath></defs></svg>