<svg width="150" height="30" fill="none" xmlns="http://www.w3.org/2000/svg"><path d="M14.049 2.927c.3-.921 1.603-.921 1.902 0l2.192 6.747a1 1 0 00.951.69h7.094c.969 0 1.372 1.24.588 1.81l-5.74 4.17a1 1 0 00-.362 1.117l2.192 6.747c.3.922-.755 1.688-1.54 1.118l-5.738-4.17a1 1 0 00-1.176 0l-5.739 4.17c-.784.57-1.838-.197-1.539-1.118l2.192-6.746a1 1 0 00-.363-1.119l-5.739-4.17c-.784-.569-.38-1.808.588-1.808h7.094a1 1 0 00.95-.691l2.193-6.747zm30 0c.3-.921 1.603-.921 1.902 0l2.192 6.747a1 1 0 00.951.69h7.094c.969 0 1.372 1.24.588 1.81l-5.74 4.17a1 1 0 00-.362 1.117l2.192 6.747c.3.922-.755 1.688-1.54 1.118l-5.738-4.17a1 1 0 00-1.176 0l-5.739 4.17c-.784.57-1.838-.197-1.539-1.118l2.192-6.746a1 1 0 00-.363-1.119l-5.739-4.17c-.784-.569-.38-1.808.588-1.808h7.094a1 1 0 00.95-.691l2.193-6.747zm30 0c.3-.921 1.603-.921 1.902 0l2.192 6.747a1 1 0 00.951.69h7.094c.969 0 1.372 1.24.588 1.81l-5.74 4.17a1 1 0 00-.362 1.117l2.192 6.747c.3.922-.755 1.688-1.54 1.118l-5.738-4.17a1 1 0 00-1.176 0l-5.739 4.17c-.784.57-1.838-.197-1.539-1.118l2.192-6.746a1 1 0 00-.363-1.119l-5.739-4.17c-.784-.569-.38-1.808.588-1.808h7.094a1 1 0 00.95-.691l2.193-6.747zm60 0c.299-.921 1.603-.921 1.902 0l2.192 6.747a1 1 0 00.951.69h7.094c.969 0 1.372 1.24.588 1.81l-5.739 4.17a.999.999 0 00-.363 1.117l2.192 6.747c.299.922-.755 1.688-1.539 1.118l-5.739-4.17a1 1 0 00-1.176 0l-5.739 4.17c-.784.57-1.838-.197-1.539-1.118l2.192-6.746a.999.999 0 00-.363-1.119l-5.739-4.17c-.784-.569-.381-1.808.588-1.808h7.094a1 1 0 00.951-.691l2.192-6.747zm-30 0c.299-.921 1.603-.921 1.902 0l2.192 6.747a1 1 0 00.951.69h7.094c.969 0 1.372 1.24.588 1.81l-5.739 4.17a.999.999 0 00-.363 1.117l2.192 6.747c.299.922-.755 1.688-1.539 1.118l-5.739-4.17a1 1 0 00-1.176 0l-5.739 4.17c-.784.57-1.838-.197-1.539-1.118l2.192-6.746a1 1 0 00-.363-1.119l-5.739-4.17c-.784-.569-.38-1.808.588-1.808h7.094a1 1 0 00.951-.691l2.192-6.747z" fill="#FFB306"/></svg>