<svg width="104" height="16" fill="none" xmlns="http://www.w3.org/2000/svg"><path d="M8 0l2.821 4.117 4.787 1.41-3.043 3.956.137 4.99L8 12.8l-4.702 1.672.137-4.989L.392 5.528l4.787-1.411L8 0zm22 0l2.821 4.117 4.788 1.41-3.044 3.956.137 4.99L30 12.8l-4.702 1.672.137-4.989-3.043-3.955 4.787-1.411L30 0zm22 0l2.821 4.117 4.788 1.41-3.044 3.956.137 4.99L52 12.8l-4.702 1.672.137-4.989-3.044-3.955 4.788-1.411L52 0zm22 0l2.821 4.117 4.788 1.41-3.044 3.956.137 4.99L74 12.8l-4.702 1.672.137-4.989-3.044-3.955 4.788-1.411L74 0zm22 0l2.821 4.117 4.787 1.41-3.043 3.956.137 4.99L96 12.8l-4.702 1.672.137-4.989-3.044-3.955 4.788-1.411L96 0z" fill="#FFB306"/></svg>