<svg width="16" height="17" fill="none" xmlns="http://www.w3.org/2000/svg"><g clip-path="url(#clip0_317_6577)"><path fill-rule="evenodd" clip-rule="evenodd" d="M8 16.438a8 8 0 100-16 8 8 0 000 16zm-1.714-5.286a.714.714 0 000 1.429h3.428a.714.714 0 100-1.429h-1V7.867A.714.714 0 008 7.152H6.857a.714.714 0 000 1.429h.429v2.571h-1zM9.143 5.01a1.143 1.143 0 11-2.286 0 1.143 1.143 0 012.286 0z" fill="#0067A0"/></g><defs><clipPath id="clip0_317_6577"><path fill="#fff" transform="translate(0 .438)" d="M0 0h16v16H0z"/></clipPath></defs></svg>