<svg width="32" height="33" viewBox="0 0 32 33" fill="none" xmlns="http://www.w3.org/2000/svg">
<g clip-path="url(#clip0_317_7081)">
<path d="M15.9997 31.2963C24.2052 31.2963 30.8569 24.6447 30.8569 16.4392C30.8569 8.2338 24.2052 1.58203 15.9997 1.58203C7.79435 1.58203 1.14258 8.2338 1.14258 16.4392C1.14258 24.6447 7.79435 31.2963 15.9997 31.2963Z" fill="#E6F5FB"/>
<path d="M15.9997 31.2963C24.2052 31.2963 30.8569 24.6447 30.8569 16.4392C30.8569 8.2338 24.2052 1.58203 15.9997 1.58203C7.79435 1.58203 1.14258 8.2338 1.14258 16.4392C1.14258 24.6447 7.79435 31.2963 15.9997 31.2963Z" stroke="#009CD9" stroke-width="2" stroke-linecap="round" stroke-linejoin="round"/>
<path d="M8.45703 18.7227C9.59989 22.8369 14.1713 25.3512 18.2856 24.2084C20.7999 23.2941 22.857 21.2369 23.5428 18.7227" stroke="#009CD9" stroke-width="2" stroke-linecap="round" stroke-linejoin="round"/>
<path d="M10.8576 13.01C10.542 13.01 10.2861 12.7542 10.2861 12.4386C10.2861 12.123 10.542 11.8672 10.8576 11.8672" stroke="#009CD9" stroke-width="2" stroke-linecap="round" stroke-linejoin="round"/>
<path d="M10.8574 13.01C11.173 13.01 11.4289 12.7542 11.4289 12.4386C11.4289 12.123 11.173 11.8672 10.8574 11.8672" stroke="#009CD9" stroke-width="2" stroke-linecap="round" stroke-linejoin="round"/>
<path d="M21.1427 13.01C20.8271 13.01 20.5713 12.7542 20.5713 12.4386C20.5713 12.123 20.8271 11.8672 21.1427 11.8672" stroke="#009CD9" stroke-width="2" stroke-linecap="round" stroke-linejoin="round"/>
<path d="M21.1426 13.01C21.4582 13.01 21.714 12.7542 21.714 12.4386C21.714 12.123 21.4582 11.8672 21.1426 11.8672" stroke="#009CD9" stroke-width="2" stroke-linecap="round" stroke-linejoin="round"/>
</g>
<defs>
<clipPath id="clip0_317_7081">
<rect width="32" height="32" fill="white" transform="translate(0 0.4375)"/>
</clipPath>
</defs>
</svg>
