<svg width="32" height="33" viewBox="0 0 32 33" fill="none" xmlns="http://www.w3.org/2000/svg">
<g clip-path="url(#clip0_317_7048)">
<path d="M25.2716 1.62891H9.38642C8.94264 1.62891 8.50769 1.75304 8.13075 1.98727L3.94922 4.58567L8.13075 7.18404C8.50769 7.41829 8.94264 7.54241 9.38642 7.54241H25.2716C26.9046 7.54241 28.2284 6.21862 28.2284 4.58567C28.2284 2.95269 26.9046 1.62891 25.2716 1.62891Z" fill="white"/>
<path d="M16.3183 15.9655C14.5402 14.6499 11.8723 12.3477 4.22559 12.3477V28.8209C11.8723 28.8209 14.5402 31.1232 16.3183 32.4386C18.0963 31.1232 20.765 28.8209 28.4118 28.8209V12.3477C20.765 12.3477 18.0963 14.6499 16.3183 15.9655Z" fill="#E6F5FB"/>
<path d="M16.3183 15.9655C14.5402 14.6499 11.8723 12.3477 4.22559 12.3477V28.8209C11.8723 28.8209 14.5402 31.123 16.3183 32.4386V15.9655Z" stroke="#009CD9" stroke-width="2" stroke-linecap="round" stroke-linejoin="round"/>
<path d="M16.3184 15.9655C18.0964 14.6499 20.7644 12.3477 28.4111 12.3477V28.8209C20.7644 28.8209 18.0964 31.123 16.3184 32.4386V15.9655Z" stroke="#009CD9" stroke-width="2" stroke-linecap="round" stroke-linejoin="round"/>
<path d="M25.2716 1.62891H9.38642C8.94264 1.62891 8.50769 1.75304 8.13075 1.98727L3.94922 4.58567L8.13075 7.18404C8.50769 7.41829 8.94264 7.54241 9.38642 7.54241H25.2716C26.9046 7.54241 28.2284 6.21862 28.2284 4.58567C28.2284 2.95269 26.9046 1.62891 25.2716 1.62891Z" stroke="#009CD9" stroke-width="2" stroke-linecap="round" stroke-linejoin="round"/>
<path d="M21.043 1.75415V7.54052" stroke="#009CD9" stroke-width="2" stroke-linecap="round" stroke-linejoin="round"/>
</g>
<defs>
<clipPath id="clip0_317_7048">
<rect width="32" height="32" fill="white" transform="translate(0 0.4375)"/>
</clipPath>
</defs>
</svg>
