<svg width="32" height="33" viewBox="0 0 32 33" fill="none" xmlns="http://www.w3.org/2000/svg">
<path d="M2.39165 13.7266H7.766V28.0356H2.39165C2.09093 28.0356 1.80254 27.916 1.5899 27.7035C1.37727 27.4907 1.25781 27.2024 1.25781 26.9016V14.8604C1.25781 14.5597 1.37727 14.2713 1.5899 14.0587C1.80254 13.846 2.09093 13.7266 2.39165 13.7266Z" fill="white"/>
<path d="M2.39067 13.7266H7.76502V28.0356H2.39067C2.08995 28.0356 1.80156 27.916 1.58893 27.7035C1.37629 27.4907 1.25684 27.2024 1.25684 26.9016V14.8604C1.25684 14.5597 1.37629 14.2713 1.58893 14.0587C1.80156 13.846 2.08995 13.7266 2.39067 13.7266Z" stroke="#009CD9" stroke-width="2" stroke-linecap="round" stroke-linejoin="round"/>
<path d="M7.76562 13.7274L13.5255 4.52068C13.7487 4.15677 14.0624 3.85691 14.4359 3.65026C14.8095 3.44361 15.2302 3.33723 15.6571 3.34148C15.9933 3.32934 16.3285 3.38475 16.6429 3.50436C16.9574 3.624 17.2446 3.80546 17.4878 4.03798C17.7309 4.27053 17.9249 4.54946 18.0584 4.85826C18.1918 5.16706 18.2621 5.49949 18.2649 5.8359V12.4348H28.22C28.5878 12.4467 28.9489 12.5364 29.2797 12.6979C29.6104 12.8594 29.9032 13.089 30.1386 13.3718C30.3743 13.6545 30.5475 13.9839 30.6467 14.3383C30.7459 14.6927 30.7688 15.0641 30.7144 15.4281L28.9002 27.1291C28.8227 27.7545 28.5197 28.3301 28.0479 28.7477C27.5759 29.1653 26.9679 29.3961 26.3377 29.3968H11.4619C10.7538 29.3995 10.0548 29.2366 9.42101 28.9207L7.7883 28.1042" fill="#E6F5FB"/>
<path d="M7.76562 13.7274L13.5255 4.52066C13.7487 4.15677 14.0624 3.85689 14.4359 3.65024C14.8095 3.44359 15.2302 3.33723 15.6571 3.34148C15.9933 3.32935 16.3285 3.38473 16.6429 3.50436C16.9574 3.624 17.2446 3.80544 17.4877 4.03799C17.7309 4.27053 17.9249 4.54944 18.0584 4.85826C18.1918 5.16706 18.2621 5.49949 18.2649 5.83591V12.4348H28.22C28.5878 12.4467 28.9489 12.5364 29.2797 12.6979C29.6104 12.8594 29.9032 13.089 30.1386 13.3717C30.3743 13.6545 30.5475 13.9839 30.6467 14.3383C30.7459 14.6927 30.7688 15.0641 30.7144 15.4281L28.9002 27.1292C28.8227 27.7546 28.5197 28.3301 28.0479 28.7477C27.5759 29.1653 26.9679 29.3962 26.3377 29.3969H11.4619C10.7538 29.3996 10.0548 29.2367 9.42101 28.9205L7.7883 28.1043" stroke="#009CD9" stroke-width="2" stroke-linecap="round" stroke-linejoin="round"/>
<path d="M7.76562 13.7266V28.0356" stroke="#009CD9" stroke-width="2" stroke-linecap="round" stroke-linejoin="round"/>
</svg>
