<svg width="153" height="79" viewBox="0 0 153 79" fill="none" xmlns="http://www.w3.org/2000/svg">
<path d="M152.588 18.6818L148.297 20.2696L146.709 24.5608L145.121 20.2696L140.83 18.6818L145.121 17.0939L146.709 12.8027L148.297 17.0939L152.588 18.6818Z" fill="white"/>
<path d="M86.54 20.5401L94.08 24.0071L101.62 20.5401L98.1529 28.0801L101.62 35.6201L94.08 32.153L86.54 35.6201L90.007 28.0801L86.54 20.5401Z" fill="white"/>
<path d="M12.1625 0L15.4475 8.87752L24.325 12.1625L15.4475 15.4475L12.1625 24.325L8.87752 15.4475L0 12.1625L8.87752 8.87752L12.1625 0Z" fill="white"/>
<path d="M134.879 61.9054L132.259 67.6038L134.879 73.3021L129.181 70.6819L123.482 73.3021L126.103 67.6038L123.482 61.9054L129.181 64.5256L134.879 61.9054Z" fill="white"/>
<path d="M63.3735 63.3735L61.3131 67.8544L63.3735 72.3353L58.8926 70.2749L54.4117 72.3353L56.4721 67.8544L54.4117 63.3735L58.8926 65.4339L63.3735 63.3735Z" fill="white"/>
</svg>
