<svg width="1124" height="583" viewBox="0 0 1124 583" fill="none" xmlns="http://www.w3.org/2000/svg">
<path d="M359.376 384.913V475.077H314.966V570.705H195.402V475.077H0V395.158L129.813 83L233.663 120.568L125.03 384.913H196.769L210.433 272.891H314.966V384.913H359.376Z" fill="#F0F4F6"/>
<path d="M562 83.683C618.024 83.683 661.068 105.086 691.129 147.891C721.647 190.24 736.905 251.944 736.905 333C736.905 414.056 721.647 475.987 691.129 518.792C661.068 561.597 618.024 583 562 583C505.976 583 462.705 561.597 432.187 518.792C402.126 475.987 387.095 414.056 387.095 333C387.095 251.944 402.126 190.24 432.187 147.891C462.705 105.086 505.976 83.683 562 83.683ZM562 172.481C549.702 172.481 539.909 177.262 532.621 186.825C525.334 196.388 519.868 212.781 516.224 236.005C513.036 259.23 511.441 291.561 511.441 333C511.441 374.894 513.036 407.454 516.224 430.678C519.868 453.902 525.334 470.295 532.621 479.858C539.909 489.421 549.702 494.202 562 494.202C574.298 494.202 584.091 489.648 591.379 480.541C598.666 471.434 603.904 455.268 607.093 432.044C610.737 408.82 612.559 375.805 612.559 333C612.559 290.195 610.737 257.18 607.093 233.956C603.904 210.732 598.666 194.794 591.379 186.142C584.091 177.035 574.298 172.481 562 172.481Z" fill="#F0F4F6"/>
<path d="M1124 384.913V475.077H1079.59V570.705H960.026V475.077H764.624V395.158L894.437 83L998.287 120.568L889.654 384.913H961.393L975.057 272.891H1079.59V384.913H1124Z" fill="#F0F4F6"/>
<circle cx="432" cy="50" r="50" fill="#F0F4F6"/>
<circle cx="692" cy="50" r="50" fill="#F0F4F6"/>
</svg>
