<svg width="256" height="50" viewBox="0 0 256 50" fill="none" xmlns="http://www.w3.org/2000/svg">
<path opacity="0.6" d="M232.612 20.186C233.219 20.186 233.741 20.3027 234.18 20.536C234.628 20.7693 234.969 21.0913 235.202 21.502C235.445 21.9127 235.566 22.3747 235.566 22.888C235.566 23.476 235.431 24.0453 235.16 24.596C234.889 25.1467 234.451 25.758 233.844 26.43C233.247 27.0927 232.397 27.9233 231.296 28.922H235.79L235.636 30H229.826V28.978C231.077 27.774 232.001 26.836 232.598 26.164C233.205 25.492 233.625 24.918 233.858 24.442C234.101 23.966 234.222 23.4667 234.222 22.944C234.222 22.4213 234.073 22.0107 233.774 21.712C233.475 21.404 233.065 21.25 232.542 21.25C232.094 21.25 231.716 21.3293 231.408 21.488C231.109 21.6467 230.806 21.908 230.498 22.272L229.63 21.6C230.013 21.124 230.442 20.7693 230.918 20.536C231.394 20.3027 231.959 20.186 232.612 20.186ZM238.5 28.222C238.78 28.222 239.013 28.3153 239.2 28.502C239.387 28.6887 239.48 28.9173 239.48 29.188C239.48 29.4587 239.387 29.692 239.2 29.888C239.013 30.0747 238.78 30.168 238.5 30.168C238.229 30.168 238.001 30.0747 237.814 29.888C237.627 29.692 237.534 29.4587 237.534 29.188C237.534 28.9173 237.627 28.6887 237.814 28.502C238.001 28.3153 238.229 28.222 238.5 28.222ZM238.5 23.07C238.78 23.07 239.013 23.1633 239.2 23.35C239.387 23.5367 239.48 23.7653 239.48 24.036C239.48 24.3067 239.387 24.54 239.2 24.736C239.013 24.9227 238.78 25.016 238.5 25.016C238.229 25.016 238.001 24.9227 237.814 24.736C237.627 24.54 237.534 24.3067 237.534 24.036C237.534 23.7653 237.627 23.5367 237.814 23.35C238.001 23.1633 238.229 23.07 238.5 23.07ZM243.711 20.186C244.309 20.186 244.831 20.298 245.279 20.522C245.737 20.7367 246.087 21.0307 246.329 21.404C246.581 21.768 246.707 22.1693 246.707 22.608C246.707 23.1867 246.525 23.6767 246.161 24.078C245.807 24.47 245.349 24.7267 244.789 24.848C245.181 24.876 245.545 24.988 245.881 25.184C246.227 25.3707 246.502 25.6413 246.707 25.996C246.913 26.3507 247.015 26.7613 247.015 27.228C247.015 27.7787 246.871 28.278 246.581 28.726C246.301 29.174 245.905 29.5287 245.391 29.79C244.878 30.042 244.29 30.168 243.627 30.168C243.039 30.168 242.479 30.0607 241.947 29.846C241.415 29.622 240.972 29.2953 240.617 28.866L241.429 28.18C241.719 28.488 242.05 28.7213 242.423 28.88C242.797 29.0387 243.184 29.118 243.585 29.118C244.239 29.118 244.747 28.95 245.111 28.614C245.485 28.2687 245.671 27.802 245.671 27.214C245.671 26.0193 245.018 25.422 243.711 25.422H242.899L243.053 24.428H243.627C244.131 24.428 244.556 24.288 244.901 24.008C245.247 23.728 245.419 23.322 245.419 22.79C245.419 22.2953 245.251 21.908 244.915 21.628C244.579 21.348 244.155 21.208 243.641 21.208C243.24 21.208 242.881 21.278 242.563 21.418C242.255 21.558 241.938 21.782 241.611 22.09L240.911 21.32C241.705 20.564 242.638 20.186 243.711 20.186ZM251.545 20.186C252.143 20.186 252.665 20.298 253.113 20.522C253.571 20.7367 253.921 21.0307 254.163 21.404C254.415 21.768 254.541 22.1693 254.541 22.608C254.541 23.1867 254.359 23.6767 253.995 24.078C253.641 24.47 253.183 24.7267 252.623 24.848C253.015 24.876 253.379 24.988 253.715 25.184C254.061 25.3707 254.336 25.6413 254.541 25.996C254.747 26.3507 254.849 26.7613 254.849 27.228C254.849 27.7787 254.705 28.278 254.415 28.726C254.135 29.174 253.739 29.5287 253.225 29.79C252.712 30.042 252.124 30.168 251.461 30.168C250.873 30.168 250.313 30.0607 249.781 29.846C249.249 29.622 248.806 29.2953 248.451 28.866L249.263 28.18C249.553 28.488 249.884 28.7213 250.257 28.88C250.631 29.0387 251.018 29.118 251.419 29.118C252.073 29.118 252.581 28.95 252.945 28.614C253.319 28.2687 253.505 27.802 253.505 27.214C253.505 26.0193 252.852 25.422 251.545 25.422H250.733L250.887 24.428H251.461C251.965 24.428 252.39 24.288 252.735 24.008C253.081 23.728 253.253 23.322 253.253 22.79C253.253 22.2953 253.085 21.908 252.749 21.628C252.413 21.348 251.989 21.208 251.475 21.208C251.074 21.208 250.715 21.278 250.397 21.418C250.089 21.558 249.772 21.782 249.445 22.09L248.745 21.32C249.539 20.564 250.472 20.186 251.545 20.186Z" fill="#102938"/>
<circle cx="25" cy="25" r="25" fill="#009CD9"/>
<rect opacity="0.1" x="60" y="22" width="154" height="6" rx="3" fill="#102938"/>
<path d="M32.5 24.134C33.1667 24.5189 33.1667 25.4811 32.5 25.866L22 31.9282C21.3333 32.3131 20.5 31.832 20.5 31.0622L20.5 18.9378C20.5 18.168 21.3333 17.6869 22 18.0718L32.5 24.134Z" fill="white"/>
</svg>
