<svg width="1264" height="534" viewBox="0 0 1264 534" fill="none" xmlns="http://www.w3.org/2000/svg">
<path d="M0 6C0 2.68629 2.68629 0 6 0H1258C1261.31 0 1264 2.68629 1264 6V528C1264 531.314 1261.31 534 1258 534H6.00002C2.68632 534 0 531.314 0 528V6Z" fill="#0067A0"/>
<path opacity="0.06" d="M6.00002 534H1258C1261.31 534 1264 531.419 1264 528.105V115.922C1264 112.608 1261.21 109.997 1257.9 110.035C969.729 113.351 879.017 351.307 739 395C539.555 457.238 472.583 274.601 6.13965 273.01C2.82596 272.999 0 275.686 0 279V528C0 531.314 2.68632 534 6.00002 534Z" fill="white"/>
<path d="M6.00002 534H1258C1261.31 534 1264 531.353 1264 528.039V215.027C1264 212.097 1261.92 209.629 1259.01 209.299C1145.52 196.456 960.742 379.751 847.5 419.5C651.156 488.418 257.652 346.902 6.32847 327.465C2.86081 327.197 0 329.955 0 333.433V528C0 531.313 2.68632 534 6.00002 534Z" fill="#0067A0"/>
</svg>
