<svg width="944" height="459" viewBox="0 0 944 459" fill="none" xmlns="http://www.w3.org/2000/svg">
<path opacity="0.9" d="M0.923828 6C0.923828 2.68629 3.61012 0 6.92383 0H937.084C940.397 0 943.084 2.68629 943.084 6V453C943.084 456.314 940.397 459 937.084 459H6.92382C3.61011 459 0.923828 456.314 0.923828 453V6Z" fill="#0067A0"/>
<path opacity="0.06" d="M6.92382 459H937.084C940.397 459 943.084 456.392 943.084 453.078V80.9422C943.084 77.6285 940.298 74.9974 936.984 75.0293C649.383 77.801 558.849 276.307 419.107 320C220.072 382.232 469.76 199.639 7.17761 198.011C3.86392 197.999 0.923828 200.686 0.923828 204V453C0.923828 456.314 3.61011 459 6.92382 459Z" fill="white"/>
<path d="M6.92382 459H937.084C940.397 459 943.084 456.353 943.084 453.039V140.025C943.084 137.096 940.997 134.627 938.087 134.297C825.097 121.479 650.39 304.753 537.376 344.5C341.482 413.395 252.98 271.998 7.42673 252.485C3.95932 252.21 0.923828 254.955 0.923828 258.433V453C0.923828 456.313 3.61011 459 6.92382 459Z" fill="#0067A0"/>
</svg>
