<svg width="1264" height="241" viewBox="0 0 1264 241" fill="none" xmlns="http://www.w3.org/2000/svg">
<path opacity="0.06" d="M6.00002 241H1258C1261.31 241 1264 238.297 1264 234.983V13.0016C1264 9.68791 1261.17 6.99936 1257.85 7.00757C970.951 7.71797 967.007 58.3098 827 102C627.55 164.24 473.339 1.41937 6.10904 0.00920801C2.79534 -0.000793172 0 2.68629 0 6V235C0 238.314 2.68632 241 6.00002 241Z" fill="white"/>
<path d="M6.00002 241H1258C1261.31 241 1264 238.285 1264 234.971V32.0888C1264 29.159 1261.87 26.6318 1258.97 26.2162C1148.01 10.3165 1048.71 86.7625 935.5 126.5C739.139 195.425 259.034 53.8772 6.28059 34.4604C2.8128 34.194 0 36.9548 0 40.4328V235C0 238.314 2.68632 241 6.00002 241Z" fill="#0067A0"/>
</svg>
