<svg width="1440" height="255" viewBox="0 0 1440 255" fill="none" xmlns="http://www.w3.org/2000/svg">
<path d="M0 0H1440V255H0V0Z" fill="#0067A0"/>
<path opacity="0.06" d="M5.99999 255H1434C1437.31 255 1440 252.303 1440 248.989V16.9986C1440 13.6849 1437.21 10.9992 1433.9 11.0089C1145.73 11.8502 1055.02 72.3069 915 116C715.545 178.241 474.087 15.4112 6.07863 14.0091C2.76494 13.9992 0 16.6863 0 20V249C0 252.314 2.68629 255 5.99999 255Z" fill="white"/>
<path d="M5.99999 255H1434C1437.31 255 1440 252.297 1440 248.983V26.0781C1440 23.1483 1437.93 20.6387 1435.02 20.2447C1321.53 4.84256 1136.75 100.749 1023.5 140.5C827.122 209.43 260.387 67.8528 6.23334 48.4552C2.76541 48.1906 0 50.9547 0 54.4327V249C0 252.314 2.68629 255 5.99999 255Z" fill="#0067A0"/>
</svg>
