<svg width="1264" height="424" viewBox="0 0 1264 424" fill="none" xmlns="http://www.w3.org/2000/svg">
<path opacity="0.06" d="M6.00002 424H1258C1261.31 424 1264 421.419 1264 418.105V5.9219C1264 2.60818 1261.21 -0.00313004 1257.9 0.0349996C969.729 3.35112 879.017 241.307 739 285C539.555 347.238 472.583 164.601 6.13965 163.01C2.82596 162.999 0 165.686 0 169V418C0 421.314 2.68632 424 6.00002 424Z" fill="white"/>
<path d="M6.00002 424H1258C1261.31 424 1264 421.353 1264 418.039V105.027C1264 102.097 1261.92 99.6289 1259.01 99.2994C1145.52 86.4565 960.742 269.751 847.5 309.5C651.156 378.418 257.652 236.902 6.32847 217.465C2.86081 217.197 0 219.955 0 223.433V418C0 421.313 2.68632 424 6.00002 424Z" fill="#0067A0"/>
</svg>
