<svg width="28" height="28" viewBox="0 0 28 28" fill="none" xmlns="http://www.w3.org/2000/svg">
<g clip-path="url(#clip0_2084:22303)">
<path d="M19.7017 5.29069C17.1566 2.24743 14.6444 0.269448 14.5388 0.186872C13.9653 -0.261715 13.1247 0.148209 13.1247 0.875912V4.7236C13.1247 6.71044 10.4953 7.40965 9.50994 5.68278C9.20354 5.14719 8.4585 5.09076 8.0728 5.56193C5.42487 8.79341 3.0625 12.8679 3.0625 17.0629C3.0625 23.0936 7.9689 28 13.9996 28C20.0304 28 24.9368 23.0936 24.9368 17.0629C24.9368 12.7593 22.4519 8.57959 19.7017 5.29069ZM9.1873 14.0005C9.1873 13.0353 9.97258 12.2505 10.9372 12.2505C11.9019 12.2505 12.6872 13.0353 12.6872 14.0005C12.6872 14.9657 11.9019 15.7504 10.9372 15.7504C9.97258 15.7504 9.1873 14.9657 9.1873 14.0005ZM11.6279 21.5373C11.3328 21.9176 10.7829 21.9884 10.4002 21.6909C10.0185 21.394 9.95016 20.8444 10.2466 20.4632L16.3714 12.5885C16.6683 12.2068 17.2179 12.1384 17.599 12.4348C17.9808 12.7318 18.0491 13.2814 17.7527 13.6625L11.6279 21.5373ZM17.062 21.8752C16.0974 21.8752 15.3121 21.0905 15.3121 20.1253C15.3121 19.1601 16.0974 18.3753 17.062 18.3753C18.0267 18.3753 18.812 19.1601 18.812 20.1253C18.812 21.0905 18.0267 21.8752 17.062 21.8752Z" fill="white"/>
</g>
<defs>
<clipPath id="clip0_2084:22303">
<rect width="28" height="28" fill="white"/>
</clipPath>
</defs>
</svg>
