<svg width="28" height="28" viewBox="0 0 28 28" fill="none" xmlns="http://www.w3.org/2000/svg">
<g clip-path="url(#clip0_2084:22309)">
<path d="M0 12.3036V19.55C0 21.6367 1.69161 23.3283 3.77835 23.3283H24.2216C26.3084 23.3283 28 21.6367 28 19.55V12.3036C28 11.9407 27.7058 11.6465 27.3429 11.6465H0.657105C0.294219 11.6465 0 11.9407 0 12.3036ZM6.99088 16.9033H5.2386C4.60351 16.9033 4.08867 16.3885 4.08867 15.7534C4.08867 15.1183 4.60351 14.6035 5.2386 14.6035H6.99088C7.62597 14.6035 8.14082 15.1183 8.14082 15.7534C8.14082 16.3885 7.62597 16.9033 6.99088 16.9033Z" fill="white"/>
<path d="M28 8.6875V8.45023C28 6.36348 26.3084 4.67188 24.2216 4.67188H3.77835C1.69161 4.67188 0 6.36348 0 8.45023V8.6875C0 9.05038 0.294219 9.3446 0.657105 9.3446H27.3429C27.7058 9.3446 28 9.05038 28 8.6875Z" fill="white"/>
</g>
<defs>
<clipPath id="clip0_2084:22309">
<rect width="28" height="28" fill="white"/>
</clipPath>
</defs>
</svg>
