<svg width="16" height="16" viewBox="0 0 16 16" fill="none" xmlns="http://www.w3.org/2000/svg">
<g clip-path="url(#clip0)">
<path d="M9.47777 1.764C9.10828 1.22065 8.78227 0.720755 8.47799 0.264335C8.43452 0.199132 8.36932 0.133929 8.30411 0.0904599C8.0433 -0.0834148 7.69555 0.00352253 7.52168 0.264335C7.23913 0.720755 6.91312 1.19891 6.5219 1.764C4.80489 4.28519 2.24023 8.08869 2.24023 10.2621C2.24023 11.8487 2.89226 13.2832 3.93551 14.3264C4.97876 15.348 6.41323 16 7.99983 16C9.58644 16 11.0209 15.348 12.0642 14.3047C13.1074 13.2615 13.7594 11.827 13.7594 10.2404C13.7594 8.06696 11.1948 4.28519 9.47777 1.764ZM11.2817 13.5223C10.4341 14.3699 9.28216 14.8698 7.99983 14.8698C6.71751 14.8698 5.56559 14.3482 4.71795 13.5223C3.87031 12.6746 3.37042 11.5227 3.37042 10.2404C3.37042 8.41471 5.8264 4.78508 7.45647 2.37256C7.65208 2.09002 7.82596 1.80747 7.99983 1.56839C8.17371 1.80747 8.34758 2.09002 8.54319 2.37256C10.1733 4.80681 12.6292 8.41471 12.6292 10.2404C12.6292 11.5227 12.1076 12.6746 11.2817 13.5223Z" fill="#009CD9"/>
<path d="M11.369 9.84903C11.0647 9.82729 10.8039 10.0664 10.7821 10.3707C10.7604 10.8488 10.6083 11.3052 10.3692 11.6964C10.1301 12.0877 9.78235 12.4354 9.3694 12.6528C9.10859 12.8049 8.99992 13.1526 9.15206 13.4135C9.32593 13.7177 9.67368 13.8047 9.93449 13.6525C10.5213 13.3265 10.9995 12.8484 11.3255 12.305C11.6732 11.7617 11.8689 11.1096 11.8906 10.4359C11.9123 10.1316 11.6732 9.87076 11.369 9.84903Z" fill="#009CD9"/>
</g>
<defs>
<clipPath id="clip0">
<rect width="16" height="16" fill="white"/>
</clipPath>
</defs>
</svg>
