<svg width="16" height="16" viewBox="0 0 16 16" fill="none" xmlns="http://www.w3.org/2000/svg">
<path d="M13.7674 0C13.1814 0 12.6525 0.247969 12.2791 0.644094C11.9056 0.247969 11.3768 0 10.7907 0C10.2046 0 9.67575 0.247969 9.30232 0.644094C8.92891 0.247969 8.4 0 7.81397 0C7.22794 0 6.69903 0.247969 6.3256 0.644094C5.95216 0.247969 5.42325 0 4.83722 0C3.7715 0 2.89388 0.818938 2.79953 1.86047H1.30235V0.930219H0.186035V1.86044V5.20928V6.1395H1.30232V5.20928H2.79069V13.9535C2.79069 15.0819 3.70875 16 4.83719 16C5.42322 16 5.95213 15.752 6.32557 15.3559C6.699 15.752 7.22791 16 7.81397 16C8.40003 16 8.92891 15.752 9.30235 15.3559C9.67575 15.752 10.2047 16 10.7907 16C11.3767 16 11.9056 15.752 12.2791 15.3559C12.6525 15.752 13.1814 16 13.7674 16C14.8959 16 15.8139 15.0819 15.8139 13.9535V2.0465C15.814 0.918062 14.8959 0 13.7674 0ZM2.4186 4.09303H1.30232V2.97675H2.4186V4.09303ZM5.76744 13.9535C5.76744 14.4664 5.35013 14.8837 4.83722 14.8837C4.32432 14.8837 3.907 14.4664 3.907 13.9535V2.0465C3.907 1.53356 4.32432 1.11628 4.83722 1.11628C5.35013 1.11628 5.76744 1.53359 5.76744 2.0465V13.9535ZM8.74419 13.9535C8.74419 14.4664 8.32688 14.8837 7.81397 14.8837C7.30107 14.8837 6.88375 14.4664 6.88375 13.9535V2.0465C6.88375 1.53356 7.30107 1.11628 7.81397 1.11628C8.32688 1.11628 8.74419 1.53359 8.74419 2.0465V13.9535ZM11.7209 13.9535C11.7209 14.4664 11.3036 14.8837 10.7907 14.8837C10.2778 14.8837 9.8605 14.4664 9.8605 13.9535V2.0465C9.8605 1.53356 10.2778 1.11628 10.7907 1.11628C11.3037 1.11628 11.7209 1.53359 11.7209 2.0465V13.9535ZM14.6977 13.9535C14.6977 14.4664 14.2804 14.8837 13.7675 14.8837C13.2545 14.8837 12.8373 14.4664 12.8373 13.9535V2.0465C12.8373 1.53356 13.2546 1.11628 13.7675 1.11628C14.2804 1.11628 14.6977 1.53359 14.6977 2.0465V13.9535Z" fill="#009CD9"/>
</svg>
