<svg width="16" height="16" viewBox="0 0 16 16" fill="none" xmlns="http://www.w3.org/2000/svg">
<g clip-path="url(#clip0)">
<path d="M6.67495 7.11431C7.6155 6.92937 9.59171 6.52779 9.14786 5.13281C8.43452 5.30718 6.45302 5.4657 6.67495 7.11431Z" stroke="#009CD9" stroke-width="1.1" stroke-linejoin="round"/>
<path d="M6.67495 9.64946C7.6155 9.46452 9.59171 9.06294 9.14786 7.66797C8.43452 7.84234 6.45302 8.00086 6.67495 9.64946Z" stroke="#009CD9" stroke-width="1.1" stroke-linejoin="round"/>
<path d="M6.67495 12.1866C7.6155 12.0016 9.59171 11.6001 9.14786 10.2051C8.43452 10.3795 6.45302 10.538 6.67495 12.1866Z" stroke="#009CD9" stroke-width="1.1" stroke-linejoin="round"/>
<path d="M6.67495 14.6592C7.6155 14.4743 9.59171 14.0727 9.14786 12.6777C8.43452 12.8521 6.45302 13.0106 6.67495 14.6592Z" stroke="#009CD9" stroke-width="1.1" stroke-linejoin="round"/>
<path d="M10.1782 0.582891V0.25H5.75553V0.582891M10.1782 0.582891H13.6498V1.80349H10.1782M10.1782 0.582891V1.80349M10.1782 1.80349V2.15223H5.75553V1.80349M5.75553 0.582891H2.2998V1.80349H5.75553M5.75553 0.582891V1.80349" stroke="#009CD9" stroke-width="1.1" stroke-linejoin="round"/>
<path d="M8.76719 2.15234V5.19592M7.05518 2.15234V5.94096M8.76719 6.38482V7.71638M8.76719 8.93698V10.2527M8.76719 11.4574V12.7573M7.05518 7.03475V8.47727M7.05518 9.57106V10.9977M7.05518 12.1074V13.4548M8.76719 13.9145V14.6912L7.97459 15.8326L7.05518 14.9132V14.5644" stroke="#009CD9" stroke-width="1.1" stroke-linejoin="round"/>
</g>
<defs>
<clipPath id="clip0">
<rect width="16" height="16" fill="white"/>
</clipPath>
</defs>
</svg>
