<svg width="16" height="14" viewBox="0 0 16 14" fill="none" xmlns="http://www.w3.org/2000/svg">
<path d="M15.375 0.703125H11.6875C11.3423 0.703125 11.0625 0.982938 11.0625 1.32812V3.64844H8C7.65481 3.64844 7.375 3.92825 7.375 4.27344V6.59844H4.3125C3.96731 6.59844 3.6875 6.87825 3.6875 7.22344V9.54844H0.625C0.279813 9.54844 0 9.82825 0 10.1734V12.6719C0 13.0171 0.279813 13.2969 0.625 13.2969H15.375C15.7202 13.2969 16 13.0171 16 12.6719V1.32812C16 0.982938 15.7202 0.703125 15.375 0.703125ZM14.75 12.0469H1.25V10.7984H4.3125C4.65769 10.7984 4.9375 10.5186 4.9375 10.1734V7.84844H8C8.34519 7.84844 8.625 7.56859 8.625 7.22344V4.89844H11.6875C12.0327 4.89844 12.3125 4.61862 12.3125 4.27344V1.95312H14.75V12.0469Z" fill="#009CD9"/>
</svg>
