<svg width="16" height="16" viewBox="0 0 16 16" fill="none" xmlns="http://www.w3.org/2000/svg">
<g clip-path="url(#clip0)">
<path fill-rule="evenodd" clip-rule="evenodd" d="M4.86644 0.620419C4.86644 0.339256 5.09437 0.111328 5.37553 0.111328H12.6809C12.962 0.111328 13.1899 0.339256 13.1899 0.620419V2.2325H13.2249C13.506 2.2325 13.734 2.46043 13.734 2.7416V13.6124C13.7481 14.0207 13.6477 14.6184 13.2847 15.1306C12.8985 15.6753 12.2487 16.0739 11.282 16.0739H4.21109C3.2444 16.0739 2.59452 15.6753 2.2084 15.1306C1.84535 14.6184 1.74493 14.0207 1.75909 13.6124V2.7416C1.75909 2.46043 1.98702 2.2325 2.26818 2.2325H4.86644V0.620419ZM5.88463 2.2325H12.1718V1.12951H5.88463V2.2325ZM12.7158 3.25069H2.77727V3.55368H12.7158V3.25069ZM12.7158 4.57186H2.77727V13.6219C2.77727 13.6287 2.77714 13.6354 2.77687 13.6422C2.7673 13.8813 2.83156 14.249 3.03907 14.5418C3.22675 14.8066 3.56128 15.0557 4.21109 15.0557H11.282C11.9318 15.0557 12.2663 14.8066 12.454 14.5418C12.6615 14.249 12.7258 13.8813 12.7162 13.6422C12.7159 13.6354 12.7158 13.6287 12.7158 13.6219V4.57186Z" fill="#009CD9"/>
</g>
<defs>
<clipPath id="clip0">
<rect width="16" height="16" fill="white"/>
</clipPath>
</defs>
</svg>
