<svg width="18" height="19" viewBox="0 0 18 19" fill="none" xmlns="http://www.w3.org/2000/svg">
<path fill-rule="evenodd" clip-rule="evenodd" d="M9 18.5C13.9706 18.5 18 14.4706 18 9.5C18 4.52944 13.9706 0.5 9 0.5C4.02944 0.5 0 4.52944 0 9.5C0 14.4706 4.02944 18.5 9 18.5ZM13.7071 6.20711C14.0976 5.81658 14.0976 5.18341 13.7071 4.79289C13.3165 4.40237 12.6834 4.40237 12.2929 4.79289L9 8.08576L5.70715 4.7929C5.31663 4.40237 4.68346 4.40237 4.29294 4.79289C3.90241 5.18342 3.90241 5.81658 4.29293 6.20711L7.58579 9.49998L4.29289 12.7929C3.90237 13.1834 3.90237 13.8166 4.29289 14.2071C4.68342 14.5976 5.31659 14.5976 5.70711 14.2071L9 10.9142L12.2929 14.2071C12.6834 14.5976 13.3166 14.5976 13.7071 14.2071C14.0976 13.8166 14.0976 13.1834 13.7071 12.7929L10.4142 9.49998L13.7071 6.20711Z" fill="white"/>
</svg>
