<svg width="1920" height="60" viewBox="0 0 1920 60" fill="none" xmlns="http://www.w3.org/2000/svg">
<rect width="1920" height="60" fill="#102938"/>
<path d="M180 14V14C181.419 17.6754 184.325 20.5806 188 22V22V22C184.325 23.4194 181.419 26.3246 180 30V30V30C178.581 26.3246 175.675 23.4194 172 22V22V22C175.675 20.5806 178.581 17.6754 180 14V14Z" fill="#FF8ED2"/>
<path d="M35 34V34C35.8871 36.2971 37.7029 38.1129 40 39V39V39C37.7029 39.8871 35.8871 41.7029 35 44V44V44C34.1129 41.7029 32.2971 39.8871 30 39V39V39C32.2971 38.1129 34.1129 36.2971 35 34V34Z" fill="#FFC397"/>
<path d="M365.317 25.5V25.5C367.269 30.5536 371.264 34.5483 376.317 36.5V36.5V36.5C371.264 38.4517 367.269 42.4464 365.317 47.5V47.5V47.5C363.366 42.4464 359.371 38.4517 354.317 36.5V36.5V36.5C359.371 34.5483 363.366 30.5536 365.317 25.5V25.5Z" fill="#AE6EFF"/>
<path d="M1819.83 25.5938V25.5938C1821.78 30.6474 1825.77 34.6421 1830.83 36.5938V36.5938V36.5938C1825.77 38.5454 1821.78 42.5401 1819.83 47.5938V47.5938V47.5938C1817.88 42.5401 1813.88 38.5454 1808.83 36.5938V36.5938V36.5938C1813.88 34.6421 1817.88 30.6474 1819.83 25.5938V25.5938Z" fill="#D276DC"/>
<path d="M1576.92 12.4043V12.4043C1577.99 15.1828 1580.18 17.3791 1582.96 18.4521V18.4521V18.4521C1580.18 19.5252 1577.99 21.7215 1576.92 24.5V24.5V24.5C1575.84 21.7215 1573.65 19.5252 1570.87 18.4521V18.4521V18.4521C1573.65 17.3791 1575.84 15.1828 1576.92 12.4043V12.4043Z" fill="#AE6EFF"/>
</svg>
