<svg width="1920" height="60" viewBox="0 0 1920 60" fill="none" xmlns="http://www.w3.org/2000/svg">
<path d="M180 14V14C181.419 17.6754 184.325 20.5806 188 22V22V22C184.325 23.4194 181.419 26.3246 180 30V30V30C178.581 26.3246 175.675 23.4194 172 22V22V22C175.675 20.5806 178.581 17.6754 180 14V14Z" fill="white"/>
<path d="M35 34V34C35.8871 36.2971 37.7029 38.1129 40 39V39V39C37.7029 39.8871 35.8871 41.7029 35 44V44V44C34.1129 41.7029 32.2971 39.8871 30 39V39V39C32.2971 38.1129 34.1129 36.2971 35 34V34Z" fill="white"/>
<path d="M369 30V30C370.952 35.0536 374.946 39.0483 380 41V41V41C374.946 42.9517 370.952 46.9464 369 52V52V52C367.048 46.9464 363.054 42.9517 358 41V41V41C363.054 39.0483 367.048 35.0536 369 30V30Z" fill="white"/>
</svg>
