<svg width="200" height="102" viewBox="0 0 200 102" fill="none" xmlns="http://www.w3.org/2000/svg">
<g filter="url(#filter0_d_2_4650)">
<mask id="path-1-outside-1_2_4650" maskUnits="userSpaceOnUse" x="20" y="21" width="160" height="55" fill="black">
<rect fill="white" x="20" y="21" width="160" height="55"/>
<path fill-rule="evenodd" clip-rule="evenodd" d="M146.574 25.0401L145.288 22L144.003 25.0401C143.942 25.1845 143.877 25.3267 143.808 25.4668H29.6667C24.8802 25.4668 21 29.347 21 34.1335V65.8001C21 70.5866 24.8802 74.4668 29.6667 74.4668H156.663C159.201 74.4668 161.611 73.3543 163.258 71.4231L176.757 55.5897C179.52 52.35 179.52 47.5836 176.757 44.3439L163.258 28.5105C161.611 26.5793 159.201 25.4668 156.663 25.4668H146.769C146.7 25.3267 146.635 25.1845 146.574 25.0401ZM164.755 49.9668C164.755 52.8663 162.417 55.2168 159.533 55.2168C156.649 55.2168 154.311 52.8663 154.311 49.9668C154.311 47.0673 156.649 44.7168 159.533 44.7168C162.417 44.7168 164.755 47.0673 164.755 49.9668Z"/>
</mask>
<path fill-rule="evenodd" clip-rule="evenodd" d="M146.574 25.0401L145.288 22L144.003 25.0401C143.942 25.1845 143.877 25.3267 143.808 25.4668H29.6667C24.8802 25.4668 21 29.347 21 34.1335V65.8001C21 70.5866 24.8802 74.4668 29.6667 74.4668H156.663C159.201 74.4668 161.611 73.3543 163.258 71.4231L176.757 55.5897C179.52 52.35 179.52 47.5836 176.757 44.3439L163.258 28.5105C161.611 26.5793 159.201 25.4668 156.663 25.4668H146.769C146.7 25.3267 146.635 25.1845 146.574 25.0401ZM164.755 49.9668C164.755 52.8663 162.417 55.2168 159.533 55.2168C156.649 55.2168 154.311 52.8663 154.311 49.9668C154.311 47.0673 156.649 44.7168 159.533 44.7168C162.417 44.7168 164.755 47.0673 164.755 49.9668Z" fill="url(#paint0_linear_2_4650)"/>
<path d="M145.288 22L146.087 21.6624C145.951 21.3417 145.637 21.1333 145.288 21.1333C144.94 21.1333 144.626 21.3417 144.49 21.6624L145.288 22ZM146.574 25.0401L145.776 25.3777L145.776 25.3778L146.574 25.0401ZM144.003 25.0401L143.204 24.7025L143.204 24.7025L144.003 25.0401ZM143.808 25.4668V26.3335C144.14 26.3335 144.442 26.1447 144.587 25.8471L143.808 25.4668ZM163.258 71.4231L163.917 71.9854L163.258 71.4231ZM176.757 55.5897L176.098 55.0274L176.757 55.5897ZM176.757 44.3439L177.417 43.7816V43.7816L176.757 44.3439ZM163.258 28.5105L162.598 29.0728V29.0728L163.258 28.5105ZM146.769 25.4668L145.99 25.8471C146.135 26.1447 146.437 26.3335 146.769 26.3335V25.4668ZM144.49 22.3376L145.776 25.3777L147.373 24.7025L146.087 21.6624L144.49 22.3376ZM144.801 25.3777L146.087 22.3376L144.49 21.6624L143.204 24.7025L144.801 25.3777ZM144.587 25.8471C144.662 25.693 144.734 25.5365 144.801 25.3777L143.204 24.7025C143.149 24.8324 143.091 24.9605 143.03 25.0865L144.587 25.8471ZM143.808 24.6001H29.6667V26.3335H143.808V24.6001ZM29.6667 24.6001C24.4016 24.6001 20.1333 28.8683 20.1333 34.1335H21.8667C21.8667 29.8256 25.3588 26.3335 29.6667 26.3335V24.6001ZM20.1333 34.1335V65.8001H21.8667V34.1335H20.1333ZM20.1333 65.8001C20.1333 71.0652 24.4016 75.3335 29.6667 75.3335V73.6001C25.3589 73.6001 21.8667 70.1079 21.8667 65.8001H20.1333ZM29.6667 75.3335H156.663V73.6001H29.6667V75.3335ZM156.663 75.3335C159.455 75.3335 162.106 74.1098 163.917 71.9854L162.598 70.8608C161.116 72.5989 158.947 73.6001 156.663 73.6001V75.3335ZM163.917 71.9854L177.417 56.152L176.098 55.0274L162.598 70.8608L163.917 71.9854ZM177.417 56.152C180.455 52.5883 180.455 47.3453 177.417 43.7816L176.098 44.9062C178.584 47.822 178.584 52.1116 176.098 55.0274L177.417 56.152ZM177.417 43.7816L163.917 27.9482L162.598 29.0728L176.098 44.9062L177.417 43.7816ZM163.917 27.9482C162.106 25.8238 159.455 24.6001 156.663 24.6001V26.3335C158.947 26.3335 161.116 27.3347 162.598 29.0728L163.917 27.9482ZM156.663 24.6001H146.769V26.3335H156.663V24.6001ZM145.776 25.3778C145.843 25.5365 145.915 25.693 145.99 25.8471L147.547 25.0865C147.486 24.9605 147.428 24.8324 147.373 24.7025L145.776 25.3778ZM159.533 56.0835C162.9 56.0835 165.622 53.3406 165.622 49.9668H163.889C163.889 52.392 161.934 54.3501 159.533 54.3501V56.0835ZM153.444 49.9668C153.444 53.3406 156.166 56.0835 159.533 56.0835V54.3501C157.132 54.3501 155.177 52.392 155.177 49.9668H153.444ZM159.533 43.8501C156.166 43.8501 153.444 46.593 153.444 49.9668H155.177C155.177 47.5416 157.132 45.5835 159.533 45.5835V43.8501ZM165.622 49.9668C165.622 46.593 162.9 43.8501 159.533 43.8501V45.5835C161.934 45.5835 163.889 47.5416 163.889 49.9668H165.622Z" fill="#BF6BCC" mask="url(#path-1-outside-1_2_4650)"/>
</g>
<path d="M29.5 31V31C30.2984 33.0674 31.9326 34.7016 34 35.5V35.5V35.5C31.9326 36.2984 30.2984 37.9326 29.5 40V40V40C28.7016 37.9326 27.0674 36.2984 25 35.5V35.5V35.5C27.0674 34.7016 28.7016 33.0674 29.5 31V31Z" fill="white"/>
<path d="M34.5962 60.9038L35.6834 61.3852C37.9181 62.3747 40.4667 62.3747 42.7014 61.3852L43.7886 60.9038L43.3072 61.991C42.3176 64.2257 42.3176 66.7743 43.3072 69.009L43.7886 70.0962L42.7014 69.6148C40.4667 68.6253 37.9181 68.6253 35.6834 69.6148L34.5962 70.0962L35.0776 69.009C36.0671 66.7743 36.0671 64.2257 35.0776 61.991L34.5962 60.9038Z" fill="white"/>
<g filter="url(#filter1_d_2_4650)">
<path d="M145.288 22L146.574 25.0401C147.524 27.2853 149.375 29.0267 151.674 29.8374L155.255 31.1L151.674 32.3626C149.375 33.1733 147.524 34.9147 146.574 37.1599L145.288 40.2L144.003 37.1599C143.053 34.9147 141.202 33.1733 138.903 32.3626L135.322 31.1L138.903 29.8374C141.202 29.0267 143.053 27.2853 144.003 25.0401L145.288 22Z" fill="white"/>
</g>
<g filter="url(#filter2_d_2_4650)">
<path d="M62.408 41.944L59.512 47.032L62.696 53H60.328L57.736 48.024H56.408V53H54.296V41.944H56.408V46.408H57.768L60.264 41.944H62.408ZM67.8593 53.032C67.5179 54.0773 67.0006 54.888 66.3073 55.464C65.6139 56.0507 64.6646 56.392 63.4593 56.488L63.2513 55C63.8059 54.9147 64.2486 54.792 64.5793 54.632C64.9206 54.4827 65.1926 54.28 65.3953 54.024C65.5979 53.768 65.7846 53.4267 65.9553 53H65.2513L62.5633 44.536H64.7393L66.5793 51.64L68.4993 44.536H70.6112L67.8593 53.032ZM76.721 53V46.104H73.905V53H71.857V44.536H78.769V53H76.721ZM84.688 44.296C85.936 44.296 86.9067 44.696 87.6 45.496C88.304 46.2853 88.656 47.3733 88.656 48.76C88.656 49.6453 88.496 50.4293 88.176 51.112C87.856 51.784 87.3973 52.3067 86.8 52.68C86.2027 53.0533 85.4933 53.24 84.672 53.24C83.424 53.24 82.448 52.8453 81.744 52.056C81.04 51.256 80.688 50.1573 80.688 48.76C80.688 47.8747 80.848 47.096 81.168 46.424C81.488 45.752 81.9467 45.2293 82.544 44.856C83.152 44.4827 83.8667 44.296 84.688 44.296ZM84.688 45.848C83.4613 45.848 82.848 46.8187 82.848 48.76C82.848 49.7627 82.9973 50.504 83.296 50.984C83.6053 51.4533 84.064 51.688 84.672 51.688C85.28 51.688 85.7333 51.448 86.032 50.968C86.3413 50.488 86.496 49.752 86.496 48.76C86.496 47.768 86.3413 47.0373 86.032 46.568C85.7333 46.088 85.2853 45.848 84.688 45.848ZM95.4878 53V49.464H92.6238V53H90.5758V44.536H92.6238V47.912H95.4878V44.536H97.5358V53H95.4878ZM106.254 50.76C106.254 51.0907 106.302 51.336 106.398 51.496C106.504 51.6453 106.67 51.7627 106.894 51.848L106.462 53.208C105.982 53.1653 105.587 53.048 105.278 52.856C104.979 52.664 104.75 52.3707 104.59 51.976C104.302 52.4027 103.939 52.7227 103.502 52.936C103.075 53.1387 102.595 53.24 102.062 53.24C101.219 53.24 100.552 53 100.062 52.52C99.571 52.04 99.3256 51.4107 99.3256 50.632C99.3256 49.7147 99.6563 49.016 100.318 48.536C100.99 48.0453 101.944 47.8 103.182 47.8H104.238V47.32C104.238 46.776 104.11 46.3973 103.854 46.184C103.608 45.96 103.208 45.848 102.654 45.848C102.035 45.848 101.288 45.9973 100.414 46.296L99.9336 44.904C100.99 44.4987 102.014 44.296 103.006 44.296C105.171 44.296 106.254 45.2667 106.254 47.208V50.76ZM102.606 51.752C103.299 51.752 103.843 51.4053 104.238 50.712V49H103.39C102.067 49 101.406 49.4907 101.406 50.472C101.406 50.8773 101.507 51.192 101.71 51.416C101.912 51.64 102.211 51.752 102.606 51.752ZM114.644 44.536L114.388 46.104H111.908V53H109.86V46.104H107.236V44.536H114.644ZM118.876 44.296C120.124 44.296 121.094 44.696 121.788 45.496C122.492 46.2853 122.844 47.3733 122.844 48.76C122.844 49.6453 122.684 50.4293 122.364 51.112C122.044 51.784 121.585 52.3067 120.988 52.68C120.39 53.0533 119.681 53.24 118.86 53.24C117.612 53.24 116.636 52.8453 115.932 52.056C115.228 51.256 114.876 50.1573 114.876 48.76C114.876 47.8747 115.036 47.096 115.356 46.424C115.676 45.752 116.134 45.2293 116.732 44.856C117.34 44.4827 118.054 44.296 118.876 44.296ZM118.876 45.848C117.649 45.848 117.036 46.8187 117.036 48.76C117.036 49.7627 117.185 50.504 117.484 50.984C117.793 51.4533 118.252 51.688 118.86 51.688C119.468 51.688 119.921 51.448 120.22 50.968C120.529 50.488 120.684 49.752 120.684 48.76C120.684 47.768 120.529 47.0373 120.22 46.568C119.921 46.088 119.473 45.848 118.876 45.848ZM129.147 44.296C130.214 44.296 131.003 44.6853 131.515 45.464C132.027 46.2427 132.283 47.336 132.283 48.744C132.283 49.6187 132.15 50.3973 131.883 51.08C131.627 51.752 131.243 52.28 130.731 52.664C130.23 53.048 129.633 53.24 128.939 53.24C128.043 53.24 127.334 52.9307 126.811 52.312V56.264L124.763 56.488V44.536H126.555L126.667 45.576C126.998 45.1493 127.377 44.8293 127.803 44.616C128.23 44.4027 128.678 44.296 129.147 44.296ZM128.363 51.672C129.547 51.672 130.139 50.7013 130.139 48.76C130.139 47.7253 130.006 46.9787 129.739 46.52C129.473 46.0613 129.073 45.832 128.539 45.832C128.198 45.832 127.878 45.9387 127.579 46.152C127.281 46.3547 127.025 46.632 126.811 46.984V50.792C127.206 51.3787 127.723 51.672 128.363 51.672Z" fill="white"/>
</g>
<defs>
<filter id="filter0_d_2_4650" x="0.133301" y="7.1333" width="199.562" height="94.2002" filterUnits="userSpaceOnUse" color-interpolation-filters="sRGB">
<feFlood flood-opacity="0" result="BackgroundImageFix"/>
<feColorMatrix in="SourceAlpha" type="matrix" values="0 0 0 0 0 0 0 0 0 0 0 0 0 0 0 0 0 0 127 0" result="hardAlpha"/>
<feOffset dy="6"/>
<feGaussianBlur stdDeviation="10"/>
<feColorMatrix type="matrix" values="0 0 0 0 0.151229 0 0 0 0 0.251218 0 0 0 0 0.508333 0 0 0 0.25 0"/>
<feBlend mode="normal" in2="BackgroundImageFix" result="effect1_dropShadow_2_4650"/>
<feBlend mode="normal" in="SourceGraphic" in2="effect1_dropShadow_2_4650" result="shape"/>
</filter>
<filter id="filter1_d_2_4650" x="113.655" y="0.333334" width="63.2667" height="61.5333" filterUnits="userSpaceOnUse" color-interpolation-filters="sRGB">
<feFlood flood-opacity="0" result="BackgroundImageFix"/>
<feColorMatrix in="SourceAlpha" type="matrix" values="0 0 0 0 0 0 0 0 0 0 0 0 0 0 0 0 0 0 127 0" result="hardAlpha"/>
<feOffset/>
<feGaussianBlur stdDeviation="10.8333"/>
<feColorMatrix type="matrix" values="0 0 0 0 0.00158273 0 0 0 0 0.233888 0 0 0 0 0.362445 0 0 0 0.25 0"/>
<feBlend mode="normal" in2="BackgroundImageFix" result="effect1_dropShadow_2_4650"/>
<feBlend mode="normal" in="SourceGraphic" in2="effect1_dropShadow_2_4650" result="shape"/>
</filter>
<filter id="filter2_d_2_4650" x="52.2959" y="40.944" width="81.9873" height="18.5441" filterUnits="userSpaceOnUse" color-interpolation-filters="sRGB">
<feFlood flood-opacity="0" result="BackgroundImageFix"/>
<feColorMatrix in="SourceAlpha" type="matrix" values="0 0 0 0 0 0 0 0 0 0 0 0 0 0 0 0 0 0 127 0" result="hardAlpha"/>
<feOffset dy="1"/>
<feGaussianBlur stdDeviation="1"/>
<feComposite in2="hardAlpha" operator="out"/>
<feColorMatrix type="matrix" values="0 0 0 0 0.0758333 0 0 0 0 0 0 0 0 0 0.291667 0 0 0 0.2 0"/>
<feBlend mode="normal" in2="BackgroundImageFix" result="effect1_dropShadow_2_4650"/>
<feBlend mode="normal" in="SourceGraphic" in2="effect1_dropShadow_2_4650" result="shape"/>
</filter>
<linearGradient id="paint0_linear_2_4650" x1="143.542" y1="27" x2="88.858" y2="123.015" gradientUnits="userSpaceOnUse">
<stop stop-color="#FFB096"/>
<stop offset="0.461142" stop-color="#FF6BBB"/>
<stop offset="1" stop-color="#AC6BED"/>
</linearGradient>
</defs>
</svg>
