<svg width="22" height="28" viewBox="0 0 22 28" fill="none" xmlns="http://www.w3.org/2000/svg">
<path d="M16.7017 5.29069C14.1566 2.24743 11.6444 0.269448 11.5388 0.186872C10.9653 -0.261715 10.1247 0.148209 10.1247 0.875912V4.7236C10.1247 6.71044 7.49532 7.40965 6.50994 5.68278C6.20354 5.14719 5.4585 5.09076 5.0728 5.56193C2.42487 8.79341 0.0625 12.8679 0.0625 17.0629C0.0625 23.0936 4.9689 28 10.9996 28C17.0304 28 21.9368 23.0936 21.9368 17.0629C21.9368 12.7593 19.4519 8.57959 16.7017 5.29069ZM6.1873 14.0005C6.1873 13.0353 6.97258 12.2505 7.93724 12.2505C8.90189 12.2505 9.68718 13.0353 9.68718 14.0005C9.68718 14.9657 8.90189 15.7504 7.93724 15.7504C6.97258 15.7504 6.1873 14.9657 6.1873 14.0005ZM8.62792 21.5373C8.33283 21.9176 7.78291 21.9884 7.40022 21.6909C7.01852 21.394 6.95016 20.8444 7.24656 20.4632L13.3714 12.5885C13.6683 12.2068 14.2179 12.1384 14.599 12.4348C14.9808 12.7318 15.0491 13.2814 14.7527 13.6625L8.62792 21.5373ZM14.062 21.8752C13.0974 21.8752 12.3121 21.0905 12.3121 20.1253C12.3121 19.1601 13.0974 18.3753 14.062 18.3753C15.0267 18.3753 15.812 19.1601 15.812 20.1253C15.812 21.0905 15.0267 21.8752 14.062 21.8752Z" fill="white"/>
</svg>
