<?xml version="1.0" encoding="utf-8"?>
<!-- Generator: Adobe Illustrator 26.5.0, SVG Export Plug-In . SVG Version: 6.00 Build 0)  -->
<svg version="1.1" id="Layer_1" xmlns="http://www.w3.org/2000/svg" xmlns:xlink="http://www.w3.org/1999/xlink" x="0px" y="0px"
	 viewBox="0 0 24 28" style="enable-background:new 0 0 24 28;" xml:space="preserve">
<style type="text/css">
	.st0{clip-path:url(#SVGID_00000124163012215662617820000005591125280079440789_);}
	.st1{fill-rule:evenodd;clip-rule:evenodd;fill:#FFFFFF;}
</style>
<g>
	<defs>
		<rect id="SVGID_1_" x="-1" y="1" width="26" height="26"/>
	</defs>
	<clipPath id="SVGID_00000087372994119884638250000008220618330342393002_">
		<use xlink:href="#SVGID_1_"  style="overflow:visible;"/>
	</clipPath>
	<g style="clip-path:url(#SVGID_00000087372994119884638250000008220618330342393002_);">
		<path class="st1" d="M12.3,1.2c-0.2-0.1-0.4-0.1-0.5,0L1.1,6C0.9,6.1,0.7,6.3,0.7,6.5l0,0l0,0l0,0c0,0,0,0.1,0,0.1
			c0,0.1,0,0.3-0.1,0.5C0.5,7.6,0.5,8.3,0.4,9c-0.1,1.5,0,3.6,0.5,5.9c1,4.5,3.8,9.6,10.9,11.9c0.1,0,0.3,0,0.4,0
			c7.1-2.3,9.9-7.4,10.9-11.9c0.5-2.2,0.5-4.3,0.5-5.9c0-0.8-0.1-1.4-0.2-1.8c0-0.2-0.1-0.4-0.1-0.5c0-0.1,0-0.1,0-0.2l0,0
			c0-0.2-0.2-0.4-0.4-0.5L12.3,1.2z M9,9.6c0.9-0.6,1.9-0.9,3-0.9c0.5,0,0.8-0.4,0.8-0.8C12.8,7.4,12.5,7,12,7
			c-1.4,0-2.7,0.4-3.9,1.2C7,8.9,6.1,10,5.5,11.3c-0.5,1.3-0.7,2.7-0.4,4c0.3,1.4,0.9,2.6,1.9,3.6c1,1,2.2,1.6,3.6,1.9
			s2.8,0.1,4-0.4c1.3-0.5,2.4-1.4,3.1-2.6c0.8-1.2,1.2-2.5,1.2-3.9c0-0.5-0.4-0.8-0.8-0.8c-0.5,0-0.8,0.4-0.8,0.8
			c0,1.1-0.3,2.1-0.9,3c-0.6,0.9-1.4,1.6-2.4,2s-2,0.5-3.1,0.3c-1-0.2-2-0.7-2.7-1.5C7.5,17,7,16.1,6.8,15c-0.2-1-0.1-2.1,0.3-3.1
			C7.5,11,8.2,10.1,9,9.6z M17.4,8.4c0.4,0.3,0.4,0.8,0.1,1.2l-5,6.2c-0.1,0.2-0.3,0.3-0.6,0.3c-0.2,0-0.4,0-0.6-0.2l-2.5-2.1
			c-0.4-0.3-0.4-0.8-0.1-1.2c0.3-0.4,0.8-0.4,1.2-0.1l1.8,1.5l4.5-5.6C16.5,8.1,17,8.1,17.4,8.4z"/>
	</g>
</g>
</svg>
