<svg width="24" height="28" viewBox="0 0 24 28" fill="none" xmlns="http://www.w3.org/2000/svg">
<path d="M14.96 18C20.28 18 24 14.2839 24 8.94194C24 3.6 20.28 0 14.96 0H4.75C4.33581 0 4 0.335813 4 0.75V13.6645H0.75C0.335813 13.6645 0 14.0003 0 14.4145V17.25C0 17.6642 0.335813 18 0.75 18H4V20H0.75C0.335813 20 0 20.3358 0 20.75V23.25C0 23.6642 0.335813 24 0.75 24H4V27.25C4 27.6642 4.33581 28 4.75 28H8.41C8.82419 28 9.16 27.6642 9.16 27.25V24H19.25C19.6642 24 20 23.6642 20 23.25V20.75C20 20.3358 19.6642 20 19.25 20H9.16V18H14.96ZM9.16 4.29675H14.08C17 4.29675 18.76 6.11613 18.76 8.94194C18.76 11.8064 17 13.6645 14 13.6645H9.16V4.29675Z" fill="white"/>
</svg>
