<svg width="94" height="128" viewBox="0 0 94 128" fill="none" xmlns="http://www.w3.org/2000/svg">
<path d="M1 43.2547V100.104L46.1321 126.575M1 43.2547L46.1321 17M1 43.2547L46.1321 69.5094" stroke="#009CD9" stroke-width="1.5" stroke-linecap="round"/>
<path d="M93 43.2547V100.104L47.8679 126.575M93 43.2547L47.8679 17M93 43.2547L47.8679 69.5094" stroke="#009CD9" stroke-width="1.5" stroke-linecap="round"/>
<path d="M47 71.2451V124.405" stroke="#009CD9" stroke-width="1.5" stroke-linecap="round"/>
<path d="M47 18.3018V62.9999" stroke="#009CD9" stroke-width="1.5" stroke-linecap="round"/>
<path d="M41.7925 66.9057L47 64.085L52.6415 66.9057" stroke="#009CD9" stroke-width="1.5" stroke-linecap="round"/>
<path d="M62.6226 72.1619C62.6226 70.7866 63.3475 69.5131 64.5301 68.8109L73.566 63.4459C74.8649 62.6747 76.5094 63.6108 76.5094 65.1214V65.1214C76.5094 66.4967 75.7844 67.7702 74.6019 68.4723L65.5659 73.8374C64.267 74.6086 62.6226 73.6725 62.6226 72.1619V72.1619Z" stroke="#009CD9" stroke-width="1.5" stroke-linecap="round"/>
<path d="M20.5283 40.0486C20.5283 38.6733 21.2532 37.3998 22.4358 36.6977L31.4717 31.3326C32.7706 30.5614 34.4151 31.4975 34.4151 33.0081V33.0081C34.4151 34.3834 33.6902 35.6569 32.5076 36.359L23.4717 41.7241C22.1728 42.4953 20.5283 41.5592 20.5283 40.0486V40.0486Z" stroke="#009CD9" stroke-width="1.5" stroke-linecap="round"/>
<path d="M48.414 2.94693C47.6329 3.72979 46.3648 3.73015 45.5832 2.94773L45.1561 2.52015C40.8274 -1.8077 32.8922 -0.315048 30.0272 5.12604C28.6835 7.68606 28.3793 11.3802 30.835 16.0979C33.1006 20.4461 37.7088 25.6164 45.8922 31.2499C46.5579 31.7081 47.4402 31.7081 48.1058 31.2499C56.2891 25.6164 60.8955 20.4461 63.1652 16.0979C65.6188 11.3781 65.3188 7.68606 63.9709 5.12812C61.1058 -0.312964 53.1706 -1.80978 48.8419 2.51807L48.414 2.94693Z" fill="white"/>
<path d="M47.5259 6.35338C47.2339 6.6414 46.7648 6.64153 46.4727 6.35368L44.8349 4.73967C43.1132 3.04514 40.6463 2.46435 38.2784 2.87856C35.909 3.29301 33.724 4.69025 32.5746 6.83866C31.5165 8.82362 31.2078 11.7895 33.294 15.7348L47.5259 6.35338ZM47.5259 6.35338L49.1634 4.73785C49.1635 4.73771 49.1636 4.73758 49.1638 4.73744C50.8854 3.04336 53.3519 2.46349 55.7197 2.87851C58.0892 3.29385 60.2745 4.69212 61.4239 6.84087L61.424 6.84107M47.5259 6.35338L61.424 6.84107M61.424 6.84107C62.485 8.82299 62.7911 11.7867 60.706 15.7352C58.7153 19.4888 54.5688 24.0636 46.9991 29.1009M61.424 6.84107L46.9991 29.1009M46.9991 29.1009C39.4288 24.0632 35.2808 19.4882 33.2941 15.735L46.9991 29.1009Z" fill="white" stroke="#EB5757" stroke-width="1.5" stroke-linejoin="round"/>
</svg>
