<svg width="37" height="29" viewBox="0 0 37 29" fill="none" xmlns="http://www.w3.org/2000/svg">
<path d="M35.5547 0.369141H27.0273C26.2291 0.369141 25.582 0.991374 25.582 1.75899V6.91878H18.5C17.7018 6.91878 17.0547 7.54102 17.0547 8.30863V13.4789H9.97266C9.17441 13.4789 8.52734 14.1011 8.52734 14.8687V20.0389H1.44531C0.647066 20.0389 0 20.6611 0 21.4288V26.9847C0 27.7523 0.647066 28.3745 1.44531 28.3745H35.5547C36.3529 28.3745 37 27.7523 37 26.9847V1.75899C37 0.991374 36.3529 0.369141 35.5547 0.369141ZM34.1094 25.5948H2.89062V22.8186H9.97266C10.7709 22.8186 11.418 22.1963 11.418 21.4288V16.2585H18.5C19.2982 16.2585 19.9453 15.6362 19.9453 14.8687V9.69847H27.0273C27.8256 9.69847 28.4727 9.07624 28.4727 8.30863V3.14883H34.1094V25.5948Z" fill="#009CD9"/>
</svg>
