<svg width="40" height="40" viewBox="0 0 40 40" fill="none" xmlns="http://www.w3.org/2000/svg">
<g clip-path="url(#clip0)">
<path opacity="0.2" d="M34.1463 5.86115C26.3344 -1.9506 13.6901 -1.95163 5.8772 5.86115C-1.93454 13.673 -1.93557 26.3174 5.8772 34.1302C12.2918 40.5447 21.8791 41.632 29.3578 37.6696C41.2242 31.3694 43.6654 15.3804 34.1463 5.86115Z" fill="white"/>
<path d="M10.9559 21.1381C12.29 20.4661 13.1703 19.4036 13.1703 17.8677C13.1557 16.2105 11.7918 14.8613 10.1346 14.8613C7.20674 14.8613 6.20645 18.7623 7.96411 18.7623C8.44804 18.7623 8.82945 18.381 8.82945 17.897C8.82945 17.1784 9.41605 16.5918 10.1347 16.5918C10.8533 16.5918 11.4399 17.1784 11.4399 17.897V18.0437C11.4399 18.2783 11.3226 18.9969 10.1786 19.5835C7.12827 21.1087 7.09892 24.1298 7.09892 24.2618C7.09892 24.7457 7.48018 25.127 7.96411 25.127H12.3051C12.7891 25.127 13.1704 24.7457 13.1704 24.2618C13.1704 23.7778 12.7892 23.3964 12.3051 23.3964H8.99074C9.21071 22.6926 9.7387 21.7393 10.9559 21.1381Z" fill="white"/>
<path d="M19.036 25.127C19.5199 25.127 19.9012 24.7458 19.9012 24.2765V22.9859H20.3265C20.7958 22.9859 21.177 22.6046 21.177 22.1353C21.177 21.666 20.7958 21.2701 20.3265 21.2701H19.9012V15.712C19.9012 15.2427 19.5199 14.8613 19.036 14.8613H18.6107C18.3027 14.8613 18.0094 15.0373 17.8628 15.316C14.1209 22.3341 14.3431 21.8238 14.3431 22.1354C14.3431 22.655 14.778 22.986 15.1937 22.986H18.1854V24.2766C18.1854 24.7458 18.5667 25.127 19.036 25.127ZM16.6162 21.2701L18.1854 18.337V21.2701H16.6162Z" fill="white"/>
<path d="M24.916 14.8613C24.5201 14.8613 24.1533 15.14 24.0801 15.5506L22.3642 24.1005C22.2672 24.4892 22.5275 25.0211 23.0388 25.1124C23.4283 25.2098 23.9442 24.9523 24.036 24.4378C25.8899 15.2006 25.7666 15.8638 25.7666 15.7266C25.7666 15.2673 25.4192 14.8613 24.916 14.8613Z" fill="white"/>
<path d="M26.9392 24.2766C26.9392 25.1799 28.1565 25.4497 28.5525 24.6578L32.8346 16.0933C33.1055 15.5521 32.7192 14.8613 32.0721 14.8613H27.7898C27.3205 14.8613 26.9392 15.2427 26.9392 15.712C26.9392 16.1959 27.3205 16.5771 27.7898 16.5771H30.6789C26.6911 24.5688 26.9392 23.9839 26.9392 24.2766Z" fill="white"/>
<path d="M38.6478 32.5611L35.3696 32.786C38.3398 29.2179 40.0001 24.6978 40.0001 19.9951C40.0001 8.94761 31.0598 0.00585938 20.0109 0.00585938C8.96336 0.00585938 0.0216064 8.94611 0.0216064 19.9951C0.0216064 35.1853 16.2158 44.6316 29.3568 37.669C29.9745 37.3418 30.2099 36.5758 29.8826 35.9582C29.5554 35.3405 28.7894 35.1051 28.1718 35.4324C16.7647 41.4765 2.55278 33.3235 2.55278 19.9951C2.55278 10.3465 10.361 2.53703 20.0108 2.53703C29.6594 2.53703 37.4688 10.3452 37.4688 19.9951C37.4688 24.2169 35.9372 28.2706 33.205 31.4259L32.9416 27.5878C32.8938 26.8904 32.2896 26.3648 31.5923 26.4118C30.895 26.4597 30.3685 27.0637 30.4164 27.7611L30.8695 34.3634C30.9153 35.0313 31.4712 35.5424 32.1308 35.5424C32.199 35.5424 31.7259 35.5731 38.821 35.0863C39.5184 35.0384 40.0449 34.4344 39.997 33.737C39.9492 33.0398 39.3452 32.5141 38.6478 32.5611Z" fill="white"/>
</g>
<defs>
<clipPath id="clip0">
<rect width="40" height="40" fill="white"/>
</clipPath>
</defs>
</svg>
