<svg width="32" height="32" viewBox="0 0 32 32" fill="none" xmlns="http://www.w3.org/2000/svg">
<path d="M20.7966 11.0636L13.9403 17.9202L11.2032 15.1831C11.2032 15.1831 11.2032 15.1831 11.2032 15.183C10.648 14.6277 9.74773 14.6276 9.19256 15.183C9.19255 15.183 9.19253 15.183 9.19252 15.183C9.1925 15.1831 9.19249 15.1831 9.19247 15.1831C8.63712 15.7383 8.63714 16.6385 9.19251 17.1937C9.19253 17.1937 9.19254 17.1937 9.19256 17.1937L12.935 20.9364L12.935 20.9364C13.4904 21.4915 14.3904 21.4915 14.9458 20.9364L14.9459 20.9364L22.8074 13.0746C23.3629 12.5194 23.3629 11.619 22.8075 11.0636C22.2523 10.5084 21.352 10.5085 20.7966 11.0636L20.7966 11.0636ZM16 31.25C24.4282 31.25 31.25 24.4293 31.25 16C31.25 7.57184 24.4293 0.75 16 0.75C7.57184 0.75 0.75 7.57067 0.75 16C0.75 24.4282 7.57067 31.25 16 31.25ZM16 3.59375C22.8568 3.59375 28.4062 9.14231 28.4062 16C28.4062 22.8568 22.8577 28.4062 16 28.4062C9.1432 28.4062 3.59375 22.8577 3.59375 16C3.59375 9.1432 9.14231 3.59375 16 3.59375Z" fill="#0DB25A" stroke="#0DB25A" stroke-width="0.5"/>
</svg>
