<svg width="60" height="60" viewBox="0 0 60 60" fill="none" xmlns="http://www.w3.org/2000/svg">
<path d="M43.4418 0H16.5575C7.42769 0 0 7.42804 0 16.5578V43.4422C0 52.5723 7.42769 60 16.5575 60H43.4418C52.5723 60 60 52.572 60 43.4422V16.5578C60.0004 7.42804 52.5723 0 43.4418 0ZM54.6769 43.4422C54.6769 49.6369 49.6369 54.6765 43.4422 54.6765H16.5575C10.3631 54.6769 5.32349 49.6369 5.32349 43.4422V16.5578C5.32349 10.3634 10.3631 5.32349 16.5575 5.32349H43.4418C49.6366 5.32349 54.6765 10.3634 54.6765 16.5578V43.4422H54.6769Z" fill="white"/>
<path d="M30.0003 14.54C21.4753 14.54 14.5399 21.4755 14.5399 30.0005C14.5399 38.5252 21.4753 45.4603 30.0003 45.4603C38.5254 45.4603 45.4608 38.5252 45.4608 30.0005C45.4608 21.4755 38.5254 14.54 30.0003 14.54ZM30.0003 40.1364C24.411 40.1364 19.8633 35.5895 19.8633 30.0002C19.8633 24.4105 24.4107 19.8632 30.0003 19.8632C35.59 19.8632 40.1373 24.4105 40.1373 30.0002C40.1373 35.5895 35.5896 40.1364 30.0003 40.1364Z" fill="white"/>
<path d="M46.1087 10.0264C45.0831 10.0264 44.0755 10.4416 43.3512 11.1691C42.6233 11.8931 42.2048 12.9011 42.2048 13.9303C42.2048 14.9563 42.6236 15.9638 43.3512 16.6914C44.0752 17.4154 45.0831 17.8342 46.1087 17.8342C47.1379 17.8342 48.1423 17.4154 48.8698 16.6914C49.5974 15.9638 50.0126 14.9559 50.0126 13.9303C50.0126 12.9011 49.5974 11.8931 48.8698 11.1691C48.1459 10.4416 47.1379 10.0264 46.1087 10.0264Z" fill="white"/>
</svg>
