<svg width="40" height="40" viewBox="0 0 40 40" fill="none" xmlns="http://www.w3.org/2000/svg">
<path d="M0.5 19.9996C0.5 9.23028 9.23028 0.5 19.9996 0.5C30.7689 0.5 39.4992 9.23028 39.4992 19.9996C39.4992 30.7689 30.7689 39.4992 19.9996 39.4992C9.23028 39.4992 0.5 30.7689 0.5 19.9996ZM10.0402 19.9996C10.0402 25.5001 14.4991 29.959 19.9996 29.959C25.5001 29.959 29.959 25.5001 29.959 19.9996C29.959 14.4991 25.5001 10.0402 19.9996 10.0402C14.4991 10.0402 10.0402 14.4991 10.0402 19.9996Z" fill="white" fill-opacity="0.2" stroke="white"/>
<path opacity="0.8" d="M39.9984 19.9995C37.5634 19.1652 34.9798 18.9261 32.459 19.2812C31.4443 19.4241 30.4395 19.6632 29.4591 19.9995C29.4591 24.7088 26.0183 28.6132 21.5139 29.3373H21.5131C21.0201 29.418 20.5148 29.4589 19.9997 29.4589H19.9989C18.8561 32.7952 18.8299 36.4098 19.9189 39.7591C19.945 39.8391 19.972 39.9184 19.9989 39.9983V39.9991H19.9997C20.0887 39.9991 20.1784 39.9983 20.2674 39.9974C20.3392 39.9966 20.4119 39.995 20.4838 39.9934C20.5809 39.9909 20.6772 39.9884 20.7727 39.9844C20.8552 39.9811 20.9368 39.9778 21.0193 39.9737C21.0266 39.973 21.0348 39.973 21.0422 39.9721C21.123 39.968 21.2038 39.964 21.2838 39.9582C21.3605 39.9541 21.4373 39.9484 21.5132 39.9427C31.8516 39.1689 39.9992 30.5356 39.9992 19.9995H39.9984ZM19.9988 0.00078125V0C8.95336 0.00078125 0 8.95406 0 19.9995H0.00078125C0.993438 19.6591 2.01133 19.4183 3.03906 19.2755C5.5468 18.9285 8.11649 19.1702 10.5402 19.9995C10.5402 14.7752 14.7744 10.5409 19.9988 10.5402C18.8559 7.20391 18.8298 3.5893 19.9188 0.239922C19.9449 0.159922 19.9719 0.0807812 19.9988 0.00078125Z" fill="white"/>
</svg>
