<svg width="30" height="30" viewBox="0 0 30 30" fill="none" xmlns="http://www.w3.org/2000/svg">
<path opacity="0.2" d="M25.6079 4.3944C19.749 -1.46441 10.2658 -1.46518 4.40611 4.3944C-1.45269 10.2533 -1.45347 19.7365 4.40611 25.5962C9.21708 30.4071 16.4075 31.2226 22.0165 28.2508C30.9164 23.5256 32.7472 11.5338 25.6079 4.3944Z" fill="#009CD9"/>
<path d="M9 15C9 11.6863 11.6863 9 15 9C18.3137 9 21 11.6863 21 15C21 18.3137 18.3137 21 15 21C11.6863 21 9 18.3137 9 15Z" fill="#009CD9"/>
<path d="M28.75 13.75C28.06 13.75 27.5 14.31 27.5 15C27.5 21.8925 21.8925 27.5 15 27.5C8.1075 27.5 2.5 21.8925 2.5 15C2.5 8.1075 8.1075 2.5 15 2.5C18.3556 2.5 21.5056 3.81125 23.8706 6.1925C24.3563 6.68313 25.1481 6.68563 25.6381 6.19875C26.1281 5.7125 26.1306 4.92125 25.6444 4.43125C22.8069 1.57375 19.0263 0 15 0C6.72875 0 0 6.72875 0 15C0 23.2712 6.72875 30 15 30C23.2712 30 30 23.2712 30 15C30 14.31 29.44 13.75 28.75 13.75Z" fill="#009CD9"/>
</svg>
