<svg width="12" height="11" viewBox="0 0 12 11" fill="none" xmlns="http://www.w3.org/2000/svg">
<path d="M6 0.333984C3.10083 0.333984 0.75 2.68482 0.75 5.58399C0.75 8.48315 3.095 10.834 6 10.834C8.89917 10.834 11.25 8.48315 11.25 5.58399C11.25 2.68482 8.89917 0.333984 6 0.333984ZM6 9.66732C3.7425 9.66732 1.91667 7.84149 1.91667 5.58399C1.91667 3.32648 3.7425 1.50065 6 1.50065C8.2575 1.50065 10.0833 3.32648 10.0833 5.58399C10.0833 7.84149 8.2575 9.66732 6 9.66732Z" fill="#009CD9"/>
<path d="M5.77014 6.56444H6.76414V7.13844H5.77014V7.99944H4.67814V7.13844H4.24414V6.56444H4.67814V6.15144H4.24414V5.48644H4.67814V3.14844H5.92414C6.49814 3.14844 6.95314 3.2791 7.28914 3.54044C7.62981 3.80177 7.80014 4.17744 7.80014 4.66744C7.80014 5.17144 7.63214 5.54477 7.29614 5.78744C6.96014 6.0301 6.50747 6.15144 5.93814 6.15144H5.77014V6.56444ZM5.77014 3.91144V5.48644H5.92414C6.15747 5.48644 6.34181 5.4211 6.47714 5.29044C6.61247 5.1551 6.68014 4.9521 6.68014 4.68144C6.68014 4.42477 6.61247 4.23344 6.47714 4.10744C6.34181 3.97677 6.15047 3.91144 5.90314 3.91144H5.77014Z" fill="#009CD9"/>
</svg>
