<svg width="12" height="13" viewBox="0 0 12 13" fill="none" xmlns="http://www.w3.org/2000/svg">
<path d="M11.8327 2.8376L9.14935 0.585938L8.39685 1.47844L11.0802 3.7301L11.8327 2.8376ZM3.59602 1.47844L2.84935 0.585938L0.166016 2.83177L0.918516 3.72427L3.59602 1.47844ZM6.29102 4.1676H5.41602V7.66761L8.18685 9.33011L8.62435 8.61261L6.29102 7.23011V4.1676ZM5.99935 1.83427C3.10018 1.83427 0.749349 4.18511 0.749349 7.08427C0.749349 9.98344 3.09435 12.3343 5.99935 12.3343C8.89851 12.3343 11.2493 9.98344 11.2493 7.08427C11.2493 4.18511 8.89851 1.83427 5.99935 1.83427ZM5.99935 11.1676C3.74185 11.1676 1.91602 9.34177 1.91602 7.08427C1.91602 4.82677 3.74185 3.00094 5.99935 3.00094C8.25685 3.00094 10.0827 4.82677 10.0827 7.08427C10.0827 9.34177 8.25685 11.1676 5.99935 11.1676Z" fill="#009CD9"/>
</svg>
