<svg width="25" height="25" viewBox="0 0 25 25" fill="none" xmlns="http://www.w3.org/2000/svg">
<path opacity="0.2" d="M21.3419 3.66395C16.4595 -1.21839 8.55675 -1.21903 3.67372 3.66395C-1.20863 8.54634 -1.20927 16.4491 3.67372 21.3321C7.68285 25.3412 13.6749 26.0208 18.3491 23.5443C25.7656 19.6066 27.2913 9.61349 21.3419 3.66395Z" fill="#009CD9"/>
<path d="M23.9583 11.4583C23.3833 11.4583 22.9167 11.925 22.9167 12.5C22.9167 18.2437 18.2437 22.9167 12.5 22.9167C6.75625 22.9167 2.08333 18.2437 2.08333 12.5C2.08333 6.75625 6.75625 2.08333 12.5 2.08333C15.2964 2.08333 17.9214 3.17604 19.8922 5.16042C20.2969 5.56927 20.9568 5.57135 21.3651 5.16563C21.7734 4.76042 21.7755 4.10104 21.3703 3.69271C19.0057 1.31146 15.8552 0 12.5 0C5.60729 0 0 5.60729 0 12.5C0 19.3927 5.60729 25 12.5 25C19.3927 25 25 19.3927 25 12.5C25 11.925 24.5333 11.4583 23.9583 11.4583Z" fill="#009CD9"/>
<path fill-rule="evenodd" clip-rule="evenodd" d="M13.5 8C13.5 7.44772 13.0523 7 12.5 7C11.9477 7 11.5 7.44771 11.5 8V11.5H8C7.44772 11.5 7 11.9477 7 12.5C7 13.0523 7.44771 13.5 8 13.5H11.5V17C11.5 17.5523 11.9477 18 12.5 18C13.0523 18 13.5 17.5523 13.5 17V13.5H17C17.5523 13.5 18 13.0523 18 12.5C18 11.9477 17.5523 11.5 17 11.5H13.5V8Z" fill="#009CD9"/>
<path fill-rule="evenodd" clip-rule="evenodd" d="M13.5 8C13.5 7.44772 13.0523 7 12.5 7C11.9477 7 11.5 7.44771 11.5 8V11.5H8C7.44772 11.5 7 11.9477 7 12.5C7 13.0523 7.44771 13.5 8 13.5H11.5V17C11.5 17.5523 11.9477 18 12.5 18C13.0523 18 13.5 17.5523 13.5 17V13.5H17C17.5523 13.5 18 13.0523 18 12.5C18 11.9477 17.5523 11.5 17 11.5H13.5V8Z" fill="#009CD9"/>
</svg>
