<svg width="23" height="33" viewBox="0 0 23 33" fill="none" xmlns="http://www.w3.org/2000/svg">
<path d="M14.4509 4.11266C13.7132 3.02754 13.0623 2.02923 12.4547 1.11773C12.3679 0.987521 12.2377 0.857307 12.1075 0.770497C11.5868 0.42326 10.8925 0.596878 10.5453 1.11773C9.98113 2.02923 9.33019 2.98414 8.54906 4.11266C5.12075 9.1476 0 16.7434 0 21.0839C0 24.2524 1.30189 27.1171 3.38491 29.2006C5.46792 31.2406 8.33208 32.5427 11.5 32.5427C14.6679 32.5427 17.5321 31.2406 19.6151 29.1572C21.6981 27.0737 23 24.209 23 21.0405C23 16.7 17.8792 9.1476 14.4509 4.11266ZM18.0528 27.5946C16.3604 29.2874 14.0604 30.2857 11.5 30.2857C8.93962 30.2857 6.63962 29.244 4.94717 27.5946C3.25472 25.9018 2.2566 23.6014 2.2566 21.0405C2.2566 17.3945 7.16038 10.1459 10.4151 5.32799C10.8057 4.76373 11.1528 4.19947 11.5 3.72202C11.8472 4.19947 12.1943 4.76373 12.5849 5.32799C15.8396 10.1893 20.7434 17.3945 20.7434 21.0405C20.7434 23.6014 19.7019 25.9018 18.0528 27.5946Z" fill="#009CD9"/>
<path d="M18.226 20.2586C17.6185 20.2152 17.0977 20.6926 17.0543 21.3003C17.0109 22.2552 16.7072 23.1667 16.2298 23.9479C15.7524 24.7292 15.0581 25.4237 14.2336 25.8577C13.7128 26.1615 13.4958 26.856 13.7996 27.3769C14.1468 27.9845 14.8411 28.1581 15.3619 27.8543C16.5336 27.2032 17.4883 26.2483 18.1392 25.1632C18.8336 24.0781 19.2241 22.776 19.2675 21.4305C19.3109 20.8229 18.8336 20.302 18.226 20.2586Z" fill="#009CD9"/>
</svg>
