<svg width="16" height="16" viewBox="0 0 16 16" fill="none" xmlns="http://www.w3.org/2000/svg">
<path d="M15.4187 0.769203L12.1687 0.0192958C11.8151 -0.062298 11.4537 0.120921 11.3107 0.45464L9.81065 3.95455C9.74658 4.10406 9.73285 4.27034 9.77153 4.42833C9.81021 4.58632 9.8992 4.72746 10.0251 4.83046L11.9194 6.38033C10.7952 8.77643 8.82756 10.7712 6.38034 11.9193L4.83046 10.0251C4.72746 9.8992 4.58633 9.8102 4.42833 9.77152C4.27034 9.73285 4.10406 9.74658 3.95455 9.81065L0.454644 11.3107C0.121019 11.4536 -0.0623247 11.815 0.0193003 12.1687L0.769207 15.4187C0.847145 15.7564 1.14836 16 1.49999 16C9.50272 16 16 9.51462 16 1.49998C16 1.15073 15.7589 0.847703 15.4187 0.769203Z" fill="#009CD9"/>
</svg>
