<svg width="18" height="18" viewBox="0 0 18 18" fill="none" xmlns="http://www.w3.org/2000/svg">
<path d="M0 2C0 0.89543 0.895431 0 2 0H5.5C6.60457 0 7.5 0.895431 7.5 2V5.5C7.5 6.60457 6.60457 7.5 5.5 7.5H2C0.89543 7.5 0 6.60457 0 5.5V2Z" fill="#009CD9"/>
<path d="M0 12.5C0 11.3954 0.895431 10.5 2 10.5H5.5C6.60457 10.5 7.5 11.3954 7.5 12.5V16C7.5 17.1046 6.60457 18 5.5 18H2C0.89543 18 0 17.1046 0 16V12.5Z" fill="#009CD9"/>
<path d="M10.5 2C10.5 0.89543 11.3954 0 12.5 0H16C17.1046 0 18 0.895431 18 2V5.5C18 6.60457 17.1046 7.5 16 7.5H12.5C11.3954 7.5 10.5 6.60457 10.5 5.5V2Z" fill="#009CD9"/>
<path d="M10.5 12.5C10.5 11.3954 11.3954 10.5 12.5 10.5H16C17.1046 10.5 18 11.3954 18 12.5V16C18 17.1046 17.1046 18 16 18H12.5C11.3954 18 10.5 17.1046 10.5 16V12.5Z" fill="#009CD9"/>
</svg>
