<svg width="22" height="22" viewBox="0 0 22 22" fill="none" xmlns="http://www.w3.org/2000/svg"><path d="M1 6.99104L11 1.1577L21 6.99104V21L1 21L1 6.99104Z" stroke="white" stroke-width="2"/><path d="M8.87898 8.46492C8.48846 8.07439 7.85529 8.0744 7.46477 8.46492C7.07424 8.85544 7.07424 9.48861 7.46477 9.87913L13.1216 15.536C13.5121 15.9265 14.1453 15.9265 14.5358 15.536C14.9264 15.1455 14.9264 14.5123 14.5358 14.1218L8.87898 8.46492Z" fill="white"/><path d="M7.46492 14.121C7.07439 14.5115 7.0744 15.1447 7.46492 15.5352C7.85544 15.9258 8.48861 15.9258 8.87913 15.5352L14.536 9.87838C14.9265 9.48785 14.9265 8.85469 14.536 8.46416C14.1455 8.07364 13.5123 8.07364 13.1218 8.46416L7.46492 14.121Z" fill="white"/></svg>