<svg width="16" height="17" viewBox="0 0 16 17" fill="none" xmlns="http://www.w3.org/2000/svg">
<path d="M-1.39876e-07 3.62139L-5.88953e-07 13.8951C-6.10335e-07 14.3842 -6.21026e-07 14.6288 0.0425647 14.8318C0.205486 15.6088 0.812563 16.2159 1.58957 16.3788C1.79258 16.4214 2.03716 16.4214 2.52631 16.4214C5.13516 16.4214 6.43959 16.4214 7.5223 16.1944C11.6663 15.3255 14.9041 12.0877 15.773 7.94368C16 6.86097 16 5.55655 16 2.9477C16 2.45854 16 2.21396 15.9574 2.01096C15.7945 1.23395 15.1874 0.626874 14.4104 0.463953C14.2074 0.421387 13.9628 0.421387 13.4737 0.421387L3.2 0.421386C2.07989 0.421386 1.51984 0.421386 1.09202 0.639373C0.715694 0.83112 0.409733 1.13708 0.217986 1.51341C-6.64344e-08 1.94123 -9.09151e-08 2.50128 -1.39876e-07 3.62139Z" fill="#0DB25A"/>
</svg>
