<svg width="60" height="60" viewBox="0 0 60 60" fill="none" xmlns="http://www.w3.org/2000/svg">
<g clip-path="url(#clip0)">
<path opacity="0.2" d="M51.2187 8.79074C39.501 -2.92687 20.5344 -2.92842 8.81516 8.79074C-2.90246 20.5085 -2.904 39.475 8.81516 51.1943C18.4371 60.8161 32.818 62.4471 44.036 56.5035C61.8356 47.0531 65.4974 23.0696 51.2187 8.79074Z" fill="#009CD9"/>
<path d="M16.4339 31.7081C18.4352 30.7002 19.7556 29.1064 19.7556 26.8026C19.7337 24.3168 17.6878 22.293 15.202 22.293C10.8102 22.293 9.3098 28.1445 11.9463 28.1445C12.6722 28.1445 13.2443 27.5725 13.2443 26.8465C13.2443 25.7685 14.1242 24.8886 15.2021 24.8886C16.28 24.8886 17.1599 25.7685 17.1599 26.8465V27.0666C17.1599 27.4185 16.984 28.4964 15.2681 29.3763C10.6925 31.6641 10.6485 36.1957 10.6485 36.3937C10.6485 37.1195 11.2204 37.6914 11.9463 37.6914H18.4577C19.1837 37.6914 19.7557 37.1195 19.7557 36.3937C19.7557 35.6676 19.1838 35.0956 18.4577 35.0956H13.4862C13.8162 34.0399 14.6082 32.6099 16.4339 31.7081Z" fill="#009CD9"/>
<path d="M28.5538 37.6916C29.2797 37.6916 29.8516 37.1197 29.8516 36.4157V34.4798H30.4895C31.1935 34.4798 31.7654 33.9078 31.7654 33.2039C31.7654 32.5 31.1935 31.9061 30.4895 31.9061H29.8516V23.5689C29.8516 22.865 29.2797 22.293 28.5538 22.293H27.9158C27.4539 22.293 27.014 22.557 26.794 22.975C21.1812 33.5021 21.5145 32.7367 21.5145 33.204C21.5145 33.9834 22.1668 34.48 22.7903 34.48H27.278V36.4158C27.278 37.1197 27.8499 37.6916 28.5538 37.6916ZM24.9241 31.9061L27.278 27.5065V31.9061H24.9241Z" fill="#009CD9"/>
<path d="M37.3734 22.293C36.7795 22.293 36.2294 22.711 36.1195 23.3269L33.5457 36.1517C33.4002 36.7348 33.7905 37.5327 34.5576 37.6696C35.1418 37.8156 35.9157 37.4294 36.0534 36.6576C38.8342 22.8019 38.6492 23.7967 38.6492 23.5909C38.6492 22.902 38.1282 22.293 37.3734 22.293Z" fill="#009CD9"/>
<path d="M40.4089 36.4158C40.4089 37.7708 42.2347 38.1755 42.8287 36.9877L49.252 24.1409C49.6582 23.3291 49.0789 22.293 48.1082 22.293H41.6847C40.9807 22.293 40.4089 22.865 40.4089 23.5689C40.4089 24.2948 40.9807 24.8667 41.6847 24.8667H46.0183C40.0367 36.8542 40.4089 35.9768 40.4089 36.4158Z" fill="#009CD9"/>
<path d="M57.9715 48.8406L53.0541 49.178C57.5095 43.8258 60 37.0457 60 29.9916C60 13.4204 46.5896 0.0078125 30.0161 0.0078125C13.4449 0.0078125 0.0322266 13.4182 0.0322266 29.9916C0.0322266 52.777 24.3235 66.9464 44.0351 56.5026C44.9616 56.0117 45.3147 54.8627 44.8237 53.9363C44.3329 53.0098 43.1839 52.6567 42.2575 53.1477C25.1468 62.2137 3.82898 49.9843 3.82898 29.9916C3.82898 15.5187 15.5413 3.80457 30.016 3.80457C44.4889 3.80457 56.2031 15.5168 56.2031 29.9916C56.2031 36.3244 53.9056 42.405 49.8073 47.1379L49.4122 41.3807C49.3405 40.3347 48.4342 39.5463 47.3883 39.6167C46.3423 39.6885 45.5526 40.5946 45.6244 41.6406L46.304 51.5441C46.3728 52.546 47.2067 53.3126 48.196 53.3126C48.2984 53.3126 47.5886 53.3587 58.2314 52.6285C59.2774 52.5567 60.0671 51.6506 59.9953 50.6045C59.9235 49.5587 59.0177 48.7702 57.9715 48.8406Z" fill="#009CD9"/>
</g>
<defs>
<clipPath id="clip0">
<rect width="60" height="60" fill="white"/>
</clipPath>
</defs>
</svg>
