<svg width="16" height="16" viewBox="0 0 16 16" fill="none" xmlns="http://www.w3.org/2000/svg"><path fill-rule="evenodd" clip-rule="evenodd" d="M8 16C12.4183 16 16 12.4183 16 8C16 3.58172 12.4183 0 8 0C3.58172 0 0 3.58172 0 8C0 12.4183 3.58172 16 8 16ZM11.258 5.95746C11.258 4.26376 9.72769 3.55566 8.17335 3.55566C6.69151 3.55566 5.33174 4.59967 5.33203 5.77774C5.33203 6.25793 5.69683 6.51022 6.12181 6.51022C6.66959 6.51022 6.83106 6.167 7.00373 5.79998C7.20215 5.37825 7.41534 4.92508 8.24642 4.92508C8.97545 4.92508 9.4116 5.30946 9.4116 5.95774C9.4116 6.51806 8.93076 6.88508 8.42657 7.26991C7.87095 7.69401 7.28699 8.13973 7.28699 8.88962C7.28699 9.274 7.54204 9.6941 8.06416 9.6941C8.63512 9.6941 8.74993 9.39477 8.87418 9.07082C8.92435 8.93999 8.97607 8.80516 9.05999 8.68439C9.1771 8.5143 9.42327 8.34091 9.71006 8.1389C10.3749 7.67065 11.258 7.04863 11.258 5.95746ZM9.1087 11.4592C9.1087 10.9178 8.6585 10.4739 8.11288 10.4739C7.5664 10.4739 7.11677 10.9181 7.11677 11.4592C7.11677 12.0012 7.5664 12.4446 8.11288 12.4446C8.65936 12.4446 9.1087 12.0006 9.1087 11.4592Z" fill="#009CD9"/></svg>