<svg width="23" height="33" viewBox="0 0 23 33" fill="none" xmlns="http://www.w3.org/2000/svg">
<path d="M14.4509 4.18099C13.7132 3.09588 13.0623 2.09758 12.4547 1.18609C12.3679 1.05588 12.2377 0.925664 12.1075 0.838855C11.5868 0.49162 10.8925 0.665238 10.5453 1.18609C9.98113 2.09758 9.33019 3.05248 8.54906 4.18099C5.12075 9.2159 0 16.8117 0 21.1521C0 24.3206 1.30189 27.1853 3.38491 29.2687C5.46792 31.3087 8.33208 32.6108 11.5 32.6108C14.6679 32.6108 17.5321 31.3087 19.6151 29.2253C21.6981 27.1419 23 24.2772 23 21.1087C23 16.7683 17.8792 9.2159 14.4509 4.18099ZM18.0528 27.6627C16.3604 29.3555 14.0604 30.3538 11.5 30.3538C8.93962 30.3538 6.63962 29.3121 4.94717 27.6627C3.25472 25.97 2.2566 23.6695 2.2566 21.1087C2.2566 17.4627 7.16038 10.2142 10.4151 5.39631C10.8057 4.83206 11.1528 4.2678 11.5 3.79035C11.8472 4.2678 12.1943 4.83206 12.5849 5.39631C15.8396 10.2576 20.7434 17.4627 20.7434 21.1087C20.7434 23.6695 19.7019 25.97 18.0528 27.6627Z" fill="#009CD9"/>
<path d="M11 18C11 17.4477 11.4477 17 12 17C12.5523 17 13 17.4477 13 18V24C13 24.5523 12.5523 25 12 25C11.4477 25 11 24.5523 11 24V18Z" fill="#009CD9"/>
<path d="M9 22C8.44772 22 8 21.5523 8 21C8 20.4477 8.44772 20 9 20L15 20C15.5523 20 16 20.4477 16 21C16 21.5523 15.5523 22 15 22L9 22Z" fill="#009CD9"/>
</svg>
