<svg width="16" height="16" viewBox="0 0 16 16" fill="none" xmlns="http://www.w3.org/2000/svg">
<path fill-rule="evenodd" clip-rule="evenodd" d="M1.1334 13.0284C0.507615 13.6542 0.507616 14.6688 1.1334 15.2946C1.75919 15.9204 2.7738 15.9204 3.39959 15.2946L8.3133 10.3809L13.228 15.2956C13.8538 15.9214 14.8684 15.9214 15.4942 15.2956C16.12 14.6698 16.12 13.6552 15.4942 13.0294L10.5795 8.11471L15.2949 3.39928C15.9207 2.77349 15.9207 1.75889 15.2949 1.1331C14.6691 0.50731 13.6545 0.50731 13.0287 1.1331L8.3133 5.84853L3.59885 1.13408C2.97306 0.508286 1.95845 0.508287 1.33266 1.13408C0.706874 1.75987 0.706873 2.77447 1.33266 3.40026L6.04712 8.11471L1.1334 13.0284Z" fill="#808F97"/>
</svg>
