<svg width="16" height="17" viewBox="0 0 16 17" fill="none" xmlns="http://www.w3.org/2000/svg">
<path d="M12.8 0.421387H3.2C2.0799 0.421387 1.51984 0.421387 1.09202 0.639413C0.715695 0.831195 0.409734 1.13721 0.217987 1.5136C0 1.9415 0 2.50166 0 3.62197V13.2208C0 14.3411 0 14.9013 0.217987 15.3292C0.409734 15.7056 0.715695 16.0116 1.09202 16.2034C1.51984 16.4214 2.0799 16.4214 3.2 16.4214H12.8C13.9201 16.4214 14.4802 16.4214 14.908 16.2034C15.2843 16.0116 15.5903 15.7056 15.782 15.3292C16 14.9013 16 14.3411 16 13.2208V3.62197C16 2.50166 16 1.9415 15.782 1.5136C15.5903 1.13721 15.2843 0.831195 14.908 0.639413C14.4802 0.421387 13.9201 0.421387 12.8 0.421387Z" fill="#009CD9"/>
</svg>
