<svg width="16" height="16" viewBox="0 0 16 16" fill="none" xmlns="http://www.w3.org/2000/svg">
<path d="M7.99571 0.0039101C3.58004 0.00484704 0.00119302 3.58523 0.00212996 8.0009C0.00244228 9.5299 0.441214 11.0267 1.26635 12.314L0.0224305 15.5414C-0.0438116 15.7131 0.0416378 15.9059 0.213286 15.9721C0.25167 15.987 0.292427 15.9945 0.333559 15.9945C0.371724 15.9947 0.409608 15.9881 0.445493 15.9751L3.77687 14.7859C7.52502 17.1203 12.4559 15.9741 14.7903 12.226C17.1247 8.47777 15.9786 3.54691 12.2304 1.21254C10.9598 0.421194 9.49261 0.00244221 7.99571 0.0039101Z" fill="#0DB25A"/>
<path d="M11.8075 9.36609C11.8075 9.36609 10.9913 8.96633 10.4803 8.69983C9.90197 8.40201 9.22238 8.95968 8.90257 9.27683C8.40483 9.08563 7.95022 8.79705 7.56536 8.42799C7.19623 8.04319 6.90765 7.58858 6.71651 7.09078C7.03367 6.77031 7.59 6.09137 7.29352 5.51306C7.03033 5.00136 6.62725 4.18584 6.62725 4.18519C6.57069 4.07294 6.45579 4.00208 6.33009 4.00195H5.66383C4.69352 4.16954 3.98804 5.01617 3.99815 6.00077C3.99815 7.04681 5.25007 9.05631 6.09426 9.90112C6.93845 10.7459 8.94791 11.9972 9.99461 11.9972C10.9792 12.0073 11.8258 11.3018 11.9934 10.3316V9.66529C11.9935 9.53824 11.9214 9.42221 11.8075 9.36609Z" fill="#FAFAFA"/>
</svg>
