<svg width="22" height="22" viewBox="0 0 22 22" fill="none" xmlns="http://www.w3.org/2000/svg">
<g clip-path="url(#clip0)">
<path d="M18.0403 11.3624C18.0403 10.9224 17.7039 10.5859 17.2639 10.5859C16.8239 10.5859 16.4874 10.9224 16.4874 11.3624C16.4874 14.3906 14.0286 16.8495 11.0003 16.8495C7.97209 16.8495 5.51327 14.3906 5.51327 11.3624C5.51327 10.9224 5.1768 10.5859 4.7368 10.5859C4.2968 10.5859 3.96033 10.9224 3.96033 11.3624C3.96033 14.9601 6.65209 17.9883 10.2239 18.3765V20.4471H7.40268C6.96268 20.4471 6.62621 20.7836 6.62621 21.2236C6.62621 21.6636 6.96268 22 7.40268 22H14.598C15.038 22 15.3744 21.6636 15.3744 21.2236C15.3744 20.7836 15.038 20.4471 14.598 20.4471H11.7768V18.3765C15.3486 17.9883 18.0403 14.9601 18.0403 11.3624Z" fill="white"/>
<path d="M10.9997 0C8.61855 0 6.67737 1.94118 6.67737 4.32235V11.3365C6.67737 13.7435 8.61855 15.6588 10.9997 15.6847C13.3809 15.6847 15.3221 13.7435 15.3221 11.3624V4.32235C15.3221 1.94118 13.3809 0 10.9997 0Z" fill="white"/>
</g>
<defs>
<clipPath id="clip0">
<rect width="22" height="22" fill="white"/>
</clipPath>
</defs>
</svg>
