<svg width="20" height="23" viewBox="0 0 20 23" fill="none" xmlns="http://www.w3.org/2000/svg"><path d="M14.4 11.23C14.4 10.9644 14.3031 10.7212 14.1402 10.5271C14.0906 10.4512 14.0315 10.3776 13.963 10.3129L10.1693 6.73173C9.70158 6.28994 8.94331 6.28994 8.47559 6.73173C8.00787 7.17352 8.00787 7.88976 8.47559 8.33155L10.3488 10.1009H1.19764C0.536221 10.1009 0 10.6074 0 11.2322C0 11.8569 0.536221 12.3634 1.19764 12.3634H10.3441L8.53701 14.0704C8.06929 14.5121 8.06929 15.2284 8.53701 15.6702C8.77087 15.8911 9.07795 16.0004 9.38268 16.0004C9.68976 16.0004 9.99449 15.8911 10.2283 15.6702L14.022 12.0868C14.1402 11.9752 14.2299 11.8436 14.289 11.7052C14.3598 11.558 14.4 11.3995 14.4 11.23Z" fill="white"/><path d="M5.17804 17.049C5.82864 17.049 6.35608 17.5688 6.35608 18.2099V20.0805H17.6439V2.32174H6.35608V4.55648C6.35608 5.19759 5.82864 5.71735 5.17804 5.71735C4.52745 5.71735 4 5.19759 4 4.55648V1.8432C4 0.826577 4.8388 0 5.87046 0H18.1295C19.1612 0 20 0.826577 20 1.8432V20.5568C20 21.5734 19.1612 22.4 18.1295 22.4H5.87278C4.84113 22.4 4.00232 21.5734 4.00232 20.5568V18.2099C4 17.5688 4.52745 17.049 5.17804 17.049Z" fill="white"/></svg>