<svg width="16" height="16" viewBox="0 0 16 16" fill="none" xmlns="http://www.w3.org/2000/svg">
<path d="M11.8978 0C13.3242 0 13.8415 0.148521 14.363 0.427412C14.8844 0.706304 15.2937 1.11557 15.5726 1.63705C15.8515 2.15853 16 2.67579 16 4.10222V11.8978C16 13.3242 15.8515 13.8415 15.5726 14.363C15.2937 14.8844 14.8844 15.2937 14.363 15.5726C13.8415 15.8515 13.3242 16 11.8978 16H4.10222C2.67579 16 2.15853 15.8515 1.63705 15.5726C1.11557 15.2937 0.706304 14.8844 0.427412 14.363C0.148521 13.8415 0 13.3242 0 11.8978V4.10222C0 2.67579 0.148521 2.15853 0.427412 1.63705C0.706304 1.11557 1.11557 0.706304 1.63705 0.427412C2.15853 0.148521 2.67579 0 4.10222 0H11.8978ZM13.0345 4.5347C12.7249 4.23618 12.2347 4.23583 11.9247 4.53392L6.4 9.84615L4.07321 7.61133C3.76399 7.31433 3.2756 7.31391 2.96587 7.61037L2.96 7.61599C2.95261 7.62306 2.94537 7.63029 2.93828 7.63766C2.65347 7.93372 2.66259 8.40461 2.95865 8.68942L5.84563 11.4667C6.15525 11.7646 6.64486 11.7647 6.95462 11.467L13.0391 5.61905C13.046 5.61248 13.0527 5.60577 13.0593 5.59894C13.3464 5.3012 13.3377 4.82709 13.04 4.53999L13.0345 4.5347Z" fill="#009CD9"/>
</svg>
