<svg width="16" height="16" viewBox="0 0 16 16" fill="none" xmlns="http://www.w3.org/2000/svg">
<path d="M3.2 16H13.4737C13.9628 16 14.2074 16 14.4104 15.9574C15.1874 15.7945 15.7945 15.1874 15.9574 14.4104C16 14.2074 16 13.9628 16 13.4737C16 10.8648 16 9.56041 15.773 8.4777C14.9041 4.33368 11.6663 1.09593 7.5223 0.22702C6.43959 0 5.13516 0 2.52632 0C2.03716 0 1.79258 0 1.58957 0.0425663C0.812565 0.205487 0.205487 0.812565 0.0425663 1.58957C0 1.79258 0 2.03716 0 2.52632V12.8C0 13.9201 0 14.4802 0.217987 14.908C0.409734 15.2843 0.715695 15.5903 1.09202 15.782C1.51984 16 2.07989 16 3.2 16Z" fill="#FFB306"/>
</svg>
