<svg width="40" height="40" viewBox="0 0 40 40" fill="none" xmlns="http://www.w3.org/2000/svg">
<path opacity="0.2" d="M34.1458 5.86115C26.334 -1.9506 13.6896 -1.95163 5.87677 5.86115C-1.93497 13.673 -1.936 26.3174 5.87677 34.1302C12.2914 40.5447 21.8787 41.632 29.3573 37.6696C41.2238 31.3694 43.6649 15.3804 34.1458 5.86115Z" fill="#009CD9"/>
<path d="M38.3333 18.3333C37.4133 18.3333 36.6667 19.08 36.6667 20C36.6667 29.19 29.19 36.6667 20 36.6667C10.81 36.6667 3.33333 29.19 3.33333 20C3.33333 10.81 10.81 3.33333 20 3.33333C24.4742 3.33333 28.6742 5.08167 31.8275 8.25667C32.475 8.91083 33.5308 8.91417 34.1842 8.265C34.8375 7.61667 34.8408 6.56167 34.1925 5.90833C30.4092 2.09833 25.3683 0 20 0C8.97167 0 0 8.97167 0 20C0 31.0283 8.97167 40 20 40C31.0283 40 40 31.0283 40 20C40 19.08 39.2533 18.3333 38.3333 18.3333Z" fill="#009CD9"/>
<path d="M28.6788 14.6541C28.0288 14.0033 26.9721 14.0033 26.3221 14.6541L19.1671 21.8083L16.1788 18.8208C15.5288 18.17 14.4721 18.17 13.8221 18.8208C13.1713 19.4716 13.1713 20.5266 13.8221 21.1775L17.9888 25.3441C18.3138 25.67 18.7404 25.8325 19.1671 25.8325C19.5938 25.8325 20.0204 25.67 20.3454 25.3441L28.6788 17.0108C29.3296 16.36 29.3296 15.305 28.6788 14.6541Z" fill="#009CD9"/>
</svg>
