<svg width="31" height="32" viewBox="0 0 31 32" fill="none" xmlns="http://www.w3.org/2000/svg">
<path d="M26.9405 0.625C25.778 0.625 24.7289 1.10553 23.9881 1.87317C23.2474 1.10553 22.1983 0.625 21.0357 0.625C19.8732 0.625 18.8241 1.10553 18.0833 1.87317C17.3426 1.10553 16.2935 0.625 15.131 0.625C13.9685 0.625 12.9194 1.10553 12.1786 1.87317C11.4379 1.10553 10.3887 0.625 9.22624 0.625C7.11225 0.625 5.37136 2.21199 5.18422 4.23034H2.21435V2.42764H0V4.23028V10.7199V12.5225H2.21429V10.7199H5.16668V27.665C5.16668 29.8517 6.98777 31.6308 9.22618 31.6308C10.3886 31.6308 11.4378 31.1503 12.1786 30.3826C12.9193 31.1503 13.9685 31.6309 15.131 31.6309C16.2935 31.6309 17.3426 31.1503 18.0834 30.3827C18.8241 31.1503 19.8733 31.6309 21.0357 31.6309C22.1982 31.6309 23.2474 31.1503 23.9881 30.3827C24.7289 31.1503 25.778 31.6309 26.9405 31.6309C29.1789 31.6309 31 29.8518 31 27.665V4.59084C31.0001 2.40408 29.1789 0.625 26.9405 0.625ZM4.42858 8.55675H2.21429V6.39354H4.42858V8.55675ZM11.0715 27.665C11.0715 28.659 10.2437 29.4677 9.22624 29.4677C8.20882 29.4677 7.38103 28.659 7.38103 27.665V4.59084C7.38103 3.59684 8.20882 2.7882 9.22624 2.7882C10.2437 2.7882 11.0715 3.5969 11.0715 4.59084V27.665ZM16.9762 27.665C16.9762 28.659 16.1484 29.4677 15.131 29.4677C14.1136 29.4677 13.2858 28.659 13.2858 27.665V4.59084C13.2858 3.59684 14.1136 2.7882 15.131 2.7882C16.1484 2.7882 16.9762 3.5969 16.9762 4.59084V27.665ZM22.881 27.665C22.881 28.659 22.0532 29.4677 21.0358 29.4677C20.0183 29.4677 19.1906 28.659 19.1906 27.665V4.59084C19.1906 3.59684 20.0184 2.7882 21.0358 2.7882C22.0533 2.7882 22.881 3.5969 22.881 4.59084V27.665ZM28.7858 27.665C28.7858 28.659 27.958 29.4677 26.9406 29.4677C25.9231 29.4677 25.0954 28.659 25.0954 27.665V4.59084C25.0954 3.59684 25.9231 2.7882 26.9406 2.7882C27.958 2.7882 28.7858 3.5969 28.7858 4.59084V27.665Z" fill="#009CD9"/>
</svg>
