<svg width="142" height="31" viewBox="0 0 142 31" fill="none" xmlns="http://www.w3.org/2000/svg">
<mask id="mask0" mask-type="alpha" maskUnits="userSpaceOnUse" x="0" y="0" width="31" height="31">
<path d="M15.2609 30.287C23.6893 30.287 30.5218 23.507 30.5218 15.1435C30.5218 6.77998 23.6893 0 15.2609 0C6.83254 0 0 6.77998 0 15.1435C0 23.507 6.83254 30.287 15.2609 30.287Z" fill="#2B679D"/>
</mask>
<g mask="url(#mask0)">
<path d="M15.2609 30.287C23.6893 30.287 30.5218 23.507 30.5218 15.1435C30.5218 6.77998 23.6893 0 15.2609 0C6.83254 0 0 6.77998 0 15.1435C0 23.507 6.83254 30.287 15.2609 30.287Z" fill="#0067A0"/>
<path d="M1.81534 27.8422C8.54398 34.5708 19.4113 34.6128 26.0882 27.9359C32.7651 21.259 32.7231 10.3917 25.9945 3.66309L1.81534 27.8422Z" fill="#009CD9"/>
<path opacity="0.1" d="M21.0601 -4.12012L1.83138 26.5543L-3.20472 21.5182L0.457898 3.20512L21.0601 -4.12012Z" fill="black"/>
<path opacity="0.1" d="M34.7948 5.49414L4.12038 27.4698L10.53 33.8794V35.2529L31.1322 28.3855L34.7948 5.49414Z" fill="#F9FAFA"/>
</g>
<path fill-rule="evenodd" clip-rule="evenodd" d="M2.28975 15.1564C2.28974 15.1523 2.28973 15.1481 2.28973 15.144C2.28973 15.1398 2.28974 15.1357 2.28975 15.1316C5.14639 14.945 7.4305 12.6784 7.61853 9.84376C7.62271 9.84375 7.62688 9.84375 7.63105 9.84375C7.63522 9.84375 7.6394 9.84375 7.64357 9.84376C7.8316 12.6784 10.1157 14.945 12.9724 15.1316C12.9724 15.1357 12.9724 15.1398 12.9724 15.144C12.9724 15.1481 12.9724 15.1523 12.9724 15.1564C10.1157 15.343 7.8316 17.6095 7.64357 20.4442C7.6394 20.4442 7.63522 20.4442 7.63105 20.4442C7.62688 20.4442 7.62271 20.4442 7.61853 20.4442C7.4305 17.6095 5.14639 15.343 2.28975 15.1564Z" fill="#F9FAFA"/>
<path fill-rule="evenodd" clip-rule="evenodd" d="M19.1148 23.3219C18.8611 21.4542 17.3711 19.9756 15.4889 19.7239C17.3711 19.4723 18.8611 17.9937 19.1148 16.126C19.3684 17.9937 20.8584 19.4723 22.7406 19.7239C20.8584 19.9756 19.3684 21.4542 19.1148 23.3219Z" fill="#F9FAFA"/>
<path fill-rule="evenodd" clip-rule="evenodd" d="M15.2605 12.1126C15.2605 10.0223 13.5528 8.32779 11.4463 8.32779C13.5528 8.32779 15.2605 6.63327 15.2605 4.54297C15.2605 6.63327 16.9682 8.32779 19.0747 8.32779C19.075 8.32779 19.0754 8.32779 19.0757 8.32779C19.0754 8.32779 19.075 8.32779 19.0747 8.32779C16.9682 8.32779 15.2605 10.0223 15.2605 12.1126ZM19.0768 8.3278C19.0768 8.3278 19.0768 8.32779 19.0768 8.32779C19.0764 8.32779 19.0761 8.32779 19.0757 8.32779L19.0768 8.3278Z" fill="#F9FAFA"/>
<path fill-rule="evenodd" clip-rule="evenodd" d="M25.9453 15.143C25.9453 13.0522 24.2371 11.3572 22.13 11.3572C24.2371 11.3572 25.9453 9.66217 25.9453 7.57129C25.9453 9.66217 27.6534 11.3572 29.7605 11.3572C27.6534 11.3572 25.9453 13.0522 25.9453 15.143Z" fill="#F9FAFA"/>
<path d="M45.3377 20.4764C46.1886 20.4764 46.7905 20.3933 47.1434 20.2273C47.4962 20.0613 47.6726 19.7396 47.6726 19.2622C47.6726 18.8886 47.4443 18.5669 46.9877 18.2971C46.5311 18.0065 45.8358 17.6848 44.9018 17.332C44.1754 17.0622 43.5113 16.782 42.9094 16.4914C42.3282 16.2009 41.8301 15.8584 41.415 15.4641C40.9999 15.049 40.6782 14.5612 40.4499 14.0008C40.2216 13.4405 40.1075 12.7659 40.1075 11.9773C40.1075 10.4414 40.6782 9.22724 41.8197 8.33478C42.9613 7.44232 44.5283 6.99609 46.5207 6.99609C47.517 6.99609 48.4717 7.08949 49.3849 7.27628C50.2981 7.44232 51.0245 7.62912 51.5641 7.83666L50.7547 11.448C50.2151 11.2612 49.6236 11.0952 48.9802 10.9499C48.3575 10.8046 47.6519 10.732 46.8632 10.732C45.4103 10.732 44.6839 11.1367 44.6839 11.9461C44.6839 12.1329 44.715 12.299 44.7773 12.4442C44.8396 12.5895 44.9641 12.7348 45.1509 12.8801C45.3377 13.0046 45.5868 13.1499 45.8981 13.3159C46.2302 13.4612 46.6452 13.6273 47.1434 13.8141C48.1603 14.1876 49.0009 14.5612 49.6651 14.9348C50.3292 15.2877 50.8481 15.682 51.2217 16.1178C51.616 16.5329 51.8858 16.9999 52.0311 17.5188C52.1972 18.0377 52.2802 18.6396 52.2802 19.3245C52.2802 20.9433 51.6679 22.1679 50.4434 22.9981C49.2396 23.8283 47.5273 24.2434 45.3066 24.2434C43.8537 24.2434 42.6396 24.1188 41.6641 23.8698C40.7094 23.6207 40.0452 23.4132 39.6716 23.2471L40.4499 19.4801C41.2386 19.7914 42.0481 20.0405 42.8782 20.2273C43.7084 20.3933 44.5283 20.4764 45.3377 20.4764Z" fill="#0067A0"/>
<path d="M54.9685 15.7443C54.9685 14.2914 55.1864 13.0254 55.6223 11.9461C56.0789 10.8461 56.6704 9.9329 57.3968 9.20648C58.1232 8.48006 58.9534 7.93006 59.8874 7.55647C60.8421 7.18289 61.8176 6.99609 62.8138 6.99609C65.1384 6.99609 66.9752 7.71214 68.3242 9.14422C69.6733 10.5555 70.3478 12.6414 70.3478 15.4018C70.3478 15.6716 70.3375 15.9726 70.3167 16.3046C70.2959 16.616 70.2752 16.8961 70.2544 17.1452H59.7317C59.8355 18.0999 60.2817 18.8575 61.0704 19.4179C61.8591 19.9782 62.9176 20.2584 64.2459 20.2584C65.0969 20.2584 65.9271 20.1858 66.7365 20.0405C67.5667 19.8745 68.2412 19.6773 68.7601 19.449L69.3827 23.216C69.1337 23.3405 68.8016 23.4651 68.3865 23.5896C67.9714 23.7141 67.5044 23.8179 66.9856 23.9009C66.4874 24.0047 65.9478 24.0877 65.3667 24.15C64.7855 24.2122 64.2044 24.2434 63.6233 24.2434C62.1497 24.2434 60.8629 24.0254 59.7629 23.5896C58.6836 23.1537 57.7808 22.5622 57.0544 21.815C56.3487 21.0471 55.8195 20.1443 55.4666 19.1065C55.1345 18.0688 54.9685 16.948 54.9685 15.7443ZM65.8648 13.9697C65.844 13.5754 65.7714 13.1914 65.6469 12.8178C65.5431 12.4442 65.3667 12.1122 65.1176 11.8216C64.8893 11.531 64.5884 11.2923 64.2148 11.1055C63.8619 10.9188 63.4157 10.8254 62.8761 10.8254C62.3572 10.8254 61.911 10.9188 61.5374 11.1055C61.1638 11.2716 60.8525 11.4999 60.6034 11.7905C60.3544 12.081 60.1572 12.4235 60.0119 12.8178C59.8874 13.1914 59.794 13.5754 59.7317 13.9697H65.8648Z" fill="#0067A0"/>
<path d="M83.8899 14.4056C83.4748 15.9829 83.0286 17.5499 82.5512 19.1065C82.0946 20.6632 81.6068 22.2301 81.088 23.8075H77.4766C77.103 22.9358 76.6983 21.8981 76.2625 20.6943C75.8266 19.4905 75.37 18.183 74.8927 16.7716C74.4361 15.3395 73.9587 13.8348 73.4606 12.2574C72.9832 10.6593 72.5162 9.05082 72.0596 7.43195H76.9474C77.1134 8.17912 77.2898 8.99893 77.4766 9.89139C77.6842 10.7631 77.8917 11.6659 78.0993 12.5999C78.3276 13.5339 78.5559 14.4782 78.7842 15.4329C79.0332 16.3669 79.2823 17.2697 79.5314 18.1414C79.8012 17.2282 80.0606 16.2943 80.3097 15.3395C80.5795 14.3848 80.8285 13.4508 81.0568 12.5376C81.3059 11.6037 81.5342 10.7112 81.7418 9.86026C81.9701 8.98856 82.1672 8.17912 82.3333 7.43195H85.6955C85.8616 8.17912 86.0484 8.98856 86.2559 9.86026C86.4635 10.7112 86.6814 11.6037 86.9097 12.5376C87.138 13.4508 87.3767 14.3848 87.6257 15.3395C87.8748 16.2943 88.1342 17.2282 88.4041 18.1414C88.6531 17.2697 88.9022 16.3669 89.1512 15.4329C89.4003 14.4782 89.6286 13.5339 89.8361 12.5999C90.0644 11.6659 90.272 10.7631 90.4588 9.89139C90.6663 8.99893 90.8531 8.17912 91.0192 7.43195H95.8447C95.3881 9.05082 94.9107 10.6593 94.4126 12.2574C93.9352 13.8348 93.4579 15.3395 92.9805 16.7716C92.5239 18.183 92.0673 19.4905 91.6107 20.6943C91.1748 21.8981 90.7701 22.9358 90.3965 23.8075H86.7852C86.2663 22.2301 85.7578 20.6632 85.2597 19.1065C84.7616 17.5499 84.305 15.9829 83.8899 14.4056Z" fill="#0067A0"/>
<path d="M97.1977 15.7443C97.1977 14.2914 97.4156 13.0254 97.8515 11.9461C98.3081 10.8461 98.8996 9.9329 99.626 9.20648C100.352 8.48006 101.183 7.93006 102.117 7.55647C103.071 7.18289 104.047 6.99609 105.043 6.99609C107.368 6.99609 109.204 7.71214 110.553 9.14422C111.903 10.5555 112.577 12.6414 112.577 15.4018C112.577 15.6716 112.567 15.9726 112.546 16.3046C112.525 16.616 112.504 16.8961 112.484 17.1452H101.961C102.065 18.0999 102.511 18.8575 103.3 19.4179C104.088 19.9782 105.147 20.2584 106.475 20.2584C107.326 20.2584 108.156 20.1858 108.966 20.0405C109.796 19.8745 110.47 19.6773 110.989 19.449L111.612 23.216C111.363 23.3405 111.031 23.4651 110.616 23.5896C110.201 23.7141 109.734 23.8179 109.215 23.9009C108.717 24.0047 108.177 24.0877 107.596 24.15C107.015 24.2122 106.434 24.2434 105.852 24.2434C104.379 24.2434 103.092 24.0254 101.992 23.5896C100.913 23.1537 100.01 22.5622 99.2836 21.815C98.5779 21.0471 98.0486 20.1443 97.6958 19.1065C97.3637 18.0688 97.1977 16.948 97.1977 15.7443ZM108.094 13.9697C108.073 13.5754 108.001 13.1914 107.876 12.8178C107.772 12.4442 107.596 12.1122 107.347 11.8216C107.119 11.531 106.818 11.2923 106.444 11.1055C106.091 10.9188 105.645 10.8254 105.105 10.8254C104.586 10.8254 104.14 10.9188 103.767 11.1055C103.393 11.2716 103.082 11.4999 102.833 11.7905C102.584 12.081 102.386 12.4235 102.241 12.8178C102.117 13.1914 102.023 13.5754 101.961 13.9697H108.094Z" fill="#0067A0"/>
<path d="M126.026 11.5414C125.611 11.4376 125.123 11.3339 124.562 11.2301C124.002 11.1056 123.4 11.0433 122.757 11.0433C122.466 11.0433 122.113 11.0744 121.698 11.1367C121.304 11.1782 121.003 11.2301 120.795 11.2923V23.8075H116.157V8.30365C116.987 8.01308 117.962 7.74327 119.083 7.49421C120.225 7.2244 121.491 7.08949 122.881 7.08949C123.13 7.08949 123.431 7.11025 123.784 7.15176C124.137 7.17251 124.49 7.21402 124.843 7.27628C125.195 7.31779 125.548 7.38006 125.901 7.46308C126.254 7.52534 126.555 7.60836 126.804 7.71214L126.026 11.5414Z" fill="#0067A0"/>
<path d="M135.244 20.5698C135.701 20.5698 136.137 20.5594 136.552 20.5386C136.967 20.5179 137.299 20.4867 137.548 20.4452V16.9273C137.361 16.8858 137.081 16.8443 136.707 16.8028C136.334 16.7612 135.991 16.7405 135.68 16.7405C135.244 16.7405 134.829 16.7716 134.435 16.8339C134.061 16.8754 133.729 16.9688 133.439 17.1141C133.148 17.2594 132.92 17.4565 132.754 17.7056C132.588 17.9546 132.505 18.266 132.505 18.6396C132.505 19.366 132.743 19.8745 133.221 20.165C133.719 20.4348 134.393 20.5698 135.244 20.5698ZM134.871 6.99609C136.24 6.99609 137.382 7.15175 138.295 7.46308C139.208 7.7744 139.935 8.22063 140.474 8.80176C141.035 9.3829 141.429 10.0886 141.657 10.9188C141.886 11.749 142 12.6725 142 13.6895V23.3405C141.336 23.4858 140.412 23.6518 139.229 23.8386C138.046 24.0462 136.614 24.15 134.933 24.15C133.874 24.15 132.909 24.0566 132.038 23.8698C131.187 23.683 130.45 23.382 129.827 22.9669C129.205 22.5311 128.727 21.9707 128.395 21.2858C128.063 20.6009 127.897 19.7603 127.897 18.7641C127.897 17.8094 128.084 16.9999 128.457 16.3358C128.852 15.6716 129.371 15.1424 130.014 14.748C130.657 14.3537 131.394 14.0735 132.224 13.9075C133.055 13.7207 133.916 13.6273 134.808 13.6273C135.41 13.6273 135.94 13.6584 136.396 13.7207C136.873 13.7622 137.257 13.8244 137.548 13.9075V13.4716C137.548 12.6829 137.309 12.0499 136.832 11.5725C136.355 11.0952 135.524 10.8565 134.341 10.8565C133.553 10.8565 132.774 10.9188 132.006 11.0433C131.239 11.1471 130.574 11.3027 130.014 11.5103L129.423 7.7744C129.692 7.69138 130.024 7.60836 130.419 7.52534C130.834 7.42157 131.28 7.33855 131.757 7.27628C132.235 7.19326 132.733 7.131 133.252 7.08949C133.791 7.02723 134.331 6.99609 134.871 6.99609Z" fill="#0067A0"/>
</svg>
