<svg width="181" height="38" viewBox="0 0 181 38" fill="none" xmlns="http://www.w3.org/2000/svg">
<path d="M65.734 24.603C66.7453 24.603 67.4607 24.5044 67.88 24.307C68.2993 24.1097 68.509 23.7274 68.509 23.16C68.509 22.716 68.2377 22.3337 67.695 22.013C67.1523 21.6677 66.326 21.2854 65.216 20.866C64.3527 20.5454 63.5633 20.2124 62.848 19.867C62.1573 19.5217 61.5653 19.1147 61.072 18.646C60.5787 18.1527 60.1963 17.573 59.925 16.907C59.6537 16.241 59.518 15.4394 59.518 14.502C59.518 12.6767 60.1963 11.2337 61.553 10.173C62.9097 9.11236 64.772 8.58203 67.14 8.58203C68.324 8.58203 69.4587 8.69303 70.544 8.91503C71.6293 9.11237 72.4927 9.33436 73.134 9.58103L72.172 13.873C71.5307 13.651 70.8277 13.4537 70.063 13.281C69.323 13.1084 68.4843 13.022 67.547 13.022C65.8203 13.022 64.957 13.503 64.957 14.465C64.957 14.687 64.994 14.8844 65.068 15.057C65.142 15.2297 65.29 15.4024 65.512 15.575C65.734 15.723 66.03 15.8957 66.4 16.093C66.7947 16.2657 67.288 16.463 67.88 16.685C69.0887 17.129 70.0877 17.573 70.877 18.017C71.6663 18.4364 72.283 18.905 72.727 19.423C73.1957 19.9164 73.5163 20.4714 73.689 21.088C73.8863 21.7047 73.985 22.42 73.985 23.234C73.985 25.158 73.2573 26.6134 71.802 27.6C70.3713 28.5867 68.3363 29.08 65.697 29.08C63.9703 29.08 62.5273 28.932 61.368 28.636C60.2333 28.34 59.444 28.0934 59 27.896L59.925 23.419C60.8623 23.789 61.8243 24.085 62.811 24.307C63.7977 24.5044 64.772 24.603 65.734 24.603Z" fill="#0067A0"/>
<path d="M77.18 18.979C77.18 17.2524 77.439 15.7477 77.957 14.465C78.4997 13.1577 79.2027 12.0724 80.066 11.209C80.9293 10.3457 81.916 9.69203 83.026 9.24803C84.1607 8.80403 85.32 8.58203 86.504 8.58203C89.2667 8.58203 91.4497 9.43303 93.053 11.135C94.6563 12.8124 95.458 15.2914 95.458 18.572C95.458 18.8927 95.4457 19.2504 95.421 19.645C95.3963 20.015 95.3717 20.348 95.347 20.644H82.841C82.9643 21.7787 83.4947 22.679 84.432 23.345C85.3693 24.011 86.6273 24.344 88.206 24.344C89.2173 24.344 90.204 24.2577 91.166 24.085C92.1527 23.8877 92.9543 23.6534 93.571 23.382L94.311 27.859C94.015 28.007 93.6203 28.155 93.127 28.303C92.6337 28.451 92.0787 28.5744 91.462 28.673C90.87 28.7964 90.2287 28.895 89.538 28.969C88.8473 29.043 88.1567 29.08 87.466 29.08C85.7147 29.08 84.1853 28.821 82.878 28.303C81.5953 27.785 80.5223 27.082 79.659 26.194C78.8203 25.2814 78.1913 24.2084 77.772 22.975C77.3773 21.7417 77.18 20.4097 77.18 18.979ZM90.13 16.87C90.1053 16.4014 90.019 15.945 89.871 15.501C89.7477 15.057 89.538 14.6624 89.242 14.317C88.9707 13.9717 88.613 13.688 88.169 13.466C87.7497 13.244 87.2193 13.133 86.578 13.133C85.9613 13.133 85.431 13.244 84.987 13.466C84.543 13.6634 84.173 13.9347 83.877 14.28C83.581 14.6254 83.3467 15.0324 83.174 15.501C83.026 15.945 82.915 16.4014 82.841 16.87H90.13Z" fill="#0067A0"/>
<path d="M111.552 17.388C111.059 19.2627 110.529 21.125 109.961 22.975C109.419 24.825 108.839 26.6874 108.222 28.562H103.93C103.486 27.526 103.005 26.2927 102.487 24.862C101.969 23.4314 101.427 21.8774 100.859 20.2C100.317 18.498 99.7494 16.7097 99.1574 14.835C98.5901 12.9357 98.0351 11.024 97.4924 9.10003H103.301C103.499 9.98803 103.708 10.9624 103.93 12.023C104.177 13.059 104.424 14.132 104.67 15.242C104.942 16.352 105.213 17.4744 105.484 18.609C105.78 19.719 106.076 20.792 106.372 21.828C106.693 20.7427 107.001 19.6327 107.297 18.498C107.618 17.3634 107.914 16.2534 108.185 15.168C108.481 14.058 108.753 12.9974 108.999 11.986C109.271 10.95 109.505 9.98803 109.702 9.10003H113.698C113.896 9.98803 114.118 10.95 114.364 11.986C114.611 12.9974 114.87 14.058 115.141 15.168C115.413 16.2534 115.696 17.3634 115.992 18.498C116.288 19.6327 116.597 20.7427 116.917 21.828C117.213 20.792 117.509 19.719 117.805 18.609C118.101 17.4744 118.373 16.352 118.619 15.242C118.891 14.132 119.137 13.059 119.359 12.023C119.606 10.9624 119.828 9.98803 120.025 9.10003H125.76C125.218 11.024 124.65 12.9357 124.058 14.835C123.491 16.7097 122.924 18.498 122.356 20.2C121.814 21.8774 121.271 23.4314 120.728 24.862C120.21 26.2927 119.729 27.526 119.285 28.562H114.993C114.377 26.6874 113.772 24.825 113.18 22.975C112.588 21.125 112.046 19.2627 111.552 17.388Z" fill="#0067A0"/>
<path d="M127.368 18.979C127.368 17.2524 127.627 15.7477 128.145 14.465C128.688 13.1577 129.391 12.0724 130.254 11.209C131.118 10.3457 132.104 9.69203 133.214 9.24803C134.349 8.80403 135.508 8.58203 136.692 8.58203C139.455 8.58203 141.638 9.43303 143.241 11.135C144.845 12.8124 145.646 15.2914 145.646 18.572C145.646 18.8927 145.634 19.2504 145.609 19.645C145.585 20.015 145.56 20.348 145.535 20.644H133.029C133.153 21.7787 133.683 22.679 134.62 23.345C135.558 24.011 136.816 24.344 138.394 24.344C139.406 24.344 140.392 24.2577 141.354 24.085C142.341 23.8877 143.143 23.6534 143.759 23.382L144.499 27.859C144.203 28.007 143.809 28.155 143.315 28.303C142.822 28.451 142.267 28.5744 141.65 28.673C141.058 28.7964 140.417 28.895 139.726 28.969C139.036 29.043 138.345 29.08 137.654 29.08C135.903 29.08 134.374 28.821 133.066 28.303C131.784 27.785 130.711 27.082 129.847 26.194C129.009 25.2814 128.38 24.2084 127.96 22.975C127.566 21.7417 127.368 20.4097 127.368 18.979ZM140.318 16.87C140.294 16.4014 140.207 15.945 140.059 15.501C139.936 15.057 139.726 14.6624 139.43 14.317C139.159 13.9717 138.801 13.688 138.357 13.466C137.938 13.244 137.408 13.133 136.766 13.133C136.15 13.133 135.619 13.244 135.175 13.466C134.731 13.6634 134.361 13.9347 134.065 14.28C133.769 14.6254 133.535 15.0324 133.362 15.501C133.214 15.945 133.103 16.4014 133.029 16.87H140.318Z" fill="#0067A0"/>
<path d="M161.63 13.984C161.137 13.8607 160.557 13.7374 159.891 13.614C159.225 13.466 158.51 13.392 157.745 13.392C157.4 13.392 156.98 13.429 156.487 13.503C156.018 13.5524 155.661 13.614 155.414 13.688V28.562H149.901V10.136C150.888 9.7907 152.047 9.47003 153.379 9.17403C154.736 8.85336 156.24 8.69303 157.893 8.69303C158.189 8.69303 158.547 8.7177 158.966 8.76703C159.385 8.7917 159.805 8.84103 160.224 8.91503C160.643 8.96436 161.063 9.03836 161.482 9.13703C161.901 9.21103 162.259 9.3097 162.555 9.43303L161.63 13.984Z" fill="#0067A0"/>
<path d="M172.586 24.714C173.129 24.714 173.647 24.7017 174.14 24.677C174.633 24.6524 175.028 24.6154 175.324 24.566V20.385C175.102 20.3357 174.769 20.2864 174.325 20.237C173.881 20.1877 173.474 20.163 173.104 20.163C172.586 20.163 172.093 20.2 171.624 20.274C171.18 20.3234 170.785 20.4344 170.44 20.607C170.095 20.7797 169.823 21.014 169.626 21.31C169.429 21.606 169.33 21.976 169.33 22.42C169.33 23.2834 169.614 23.8877 170.181 24.233C170.773 24.5537 171.575 24.714 172.586 24.714ZM172.142 8.58203C173.77 8.58203 175.127 8.76703 176.212 9.13703C177.297 9.50703 178.161 10.0374 178.802 10.728C179.468 11.4187 179.937 12.2574 180.208 13.244C180.479 14.2307 180.615 15.3284 180.615 16.537V28.007C179.826 28.1797 178.728 28.377 177.322 28.599C175.916 28.8457 174.214 28.969 172.216 28.969C170.958 28.969 169.811 28.858 168.775 28.636C167.764 28.414 166.888 28.0564 166.148 27.563C165.408 27.045 164.841 26.379 164.446 25.565C164.051 24.751 163.854 23.752 163.854 22.568C163.854 21.4334 164.076 20.4714 164.52 19.682C164.989 18.8927 165.605 18.2637 166.37 17.795C167.135 17.3264 168.01 16.9934 168.997 16.796C169.984 16.574 171.007 16.463 172.068 16.463C172.783 16.463 173.412 16.5 173.955 16.574C174.522 16.6234 174.979 16.6974 175.324 16.796V16.278C175.324 15.3407 175.04 14.5884 174.473 14.021C173.906 13.4537 172.919 13.17 171.513 13.17C170.576 13.17 169.651 13.244 168.738 13.392C167.825 13.5154 167.036 13.7004 166.37 13.947L165.667 9.50703C165.988 9.40836 166.382 9.3097 166.851 9.21103C167.344 9.0877 167.875 8.98903 168.442 8.91503C169.009 8.81636 169.601 8.74236 170.218 8.69303C170.859 8.61903 171.501 8.58203 172.142 8.58203Z" fill="#0067A0"/>
<path d="M39 29C39 33.9706 34.9706 38 30 38C25.0294 38 21 33.9706 21 29L21 22.016C21 20.9026 21.9026 20 23.016 20L30 20C34.9706 20 39 24.0294 39 29Z" fill="#0067A0"/>
<path d="M21 2C21 0.89543 21.8954 0 23 0H37C38.1046 0 39 0.895431 39 2V16C39 17.1046 38.1046 18 37 18H23C21.8954 18 21 17.1046 21 16V2Z" fill="#0DB25A"/>
<path d="M0 22C0 20.8954 0.895431 20 2 20H16C17.1046 20 18 20.8954 18 22V36C18 37.1046 17.1046 38 16 38H2C0.89543 38 0 37.1046 0 36V22Z" fill="#009CD9"/>
<path d="M2 18C0.89543 18 -3.91405e-08 17.1046 -8.74228e-08 16L-6.99382e-07 2C-7.47665e-07 0.89543 0.89543 -3.91405e-08 2 -8.74228e-08L6 -2.62268e-07C12.6274 -5.51962e-07 18 5.37258 18 12L18 16C18 17.1046 17.1046 18 16 18L2 18Z" fill="#FFB306"/>
</svg>
