<svg width="20" height="20" viewBox="0 0 20 20" fill="none" xmlns="http://www.w3.org/2000/svg">
<rect y="-0.00012207" width="20" height="20" fill="#009CD9"/>
<path d="M19.9981 9.21863C19.9981 10.994 19.4497 12.7178 18.4121 14.2035C18.1651 14.5574 17.678 14.6439 17.3243 14.3969C16.9704 14.1498 16.8839 13.6628 17.131 13.3091C17.9845 12.0868 18.4356 10.6723 18.4356 9.21863C18.4356 4.99698 14.6505 1.56238 9.9981 1.56238C5.34569 1.56238 1.5606 4.99698 1.5606 9.21863C1.5606 10.9288 2.16912 12.5467 3.32024 13.8973C3.50914 14.1187 3.55904 14.4269 3.44994 14.6968L2.22481 17.7277L5.79293 16.1547C5.99068 16.0675 6.21575 16.0662 6.41457 16.151C7.54036 16.6313 8.74596 16.8749 9.9981 16.8749C11.4393 16.8749 12.8614 16.5395 14.1108 15.9049C14.4955 15.7096 14.9659 15.8629 15.1612 16.2476C15.3565 16.6324 15.203 17.1025 14.8183 17.298C13.3508 18.0434 11.6839 18.4374 9.9981 18.4374C8.6512 18.4374 7.34841 18.1955 6.12023 17.7181L1.09459 19.9335C0.993274 19.9782 0.886005 19.9999 0.779498 19.9999C0.580371 19.9999 0.384448 19.9237 0.235523 19.7795C0.00725106 19.5581 -0.0641601 19.2206 0.0550111 18.9258L1.829 14.5378C0.629504 12.9785 -0.00190421 11.1493 -0.00190421 9.21863C-0.00190421 6.74304 1.04714 4.41959 2.95204 2.67612C4.83757 0.950348 7.34001 -0.00012207 9.9981 -0.00012207C12.6563 -0.00012207 15.1586 0.950348 17.0443 2.67612C18.9491 4.41959 19.9981 6.74304 19.9981 9.21863ZM8.04314 13.978C8.04253 14.1294 8.17375 14.2192 8.34206 14.2186C8.46016 14.2182 8.58513 14.1707 8.66738 14.0888L13.0273 9.1376C13.4217 8.68152 13.1031 7.96863 12.4978 7.96863H10.2688L12.0684 4.88269H8.79753L6.56807 8.83685C6.20583 9.48291 6.67626 10.2726 7.42089 10.2726H9.36592L8.07274 13.8573C8.0526 13.9012 8.04344 13.9415 8.04314 13.978Z" fill="#74C3E1"/>
</svg>
