<svg width="40" height="40" viewBox="0 0 40 40" fill="none" xmlns="http://www.w3.org/2000/svg">
<g clip-path="url(#clip0_1_54)">
<path d="M29.6875 20C29.689 22.2797 28.8859 24.4869 27.4197 26.2326C25.9535 27.9783 23.9183 29.1505 21.6726 29.5428C19.4268 29.9351 17.1147 29.5223 15.1435 28.377C13.1723 27.2318 11.6685 25.4276 10.8971 23.2824L5.35608 27.7151C7.07902 30.9903 9.84967 33.5938 13.2256 35.1098C16.6016 36.6258 20.3881 36.967 23.9807 36.0788C27.5733 35.1906 30.7646 33.1243 33.0452 30.2098C35.3259 27.2953 36.5642 23.7007 36.5625 20" fill="#00AC47"/>
<path d="M29.6875 20C29.6863 21.5413 29.3168 23.0599 28.6098 24.4294C27.9028 25.7989 26.8788 26.9797 25.623 27.8734L31.101 32.2558C32.8188 30.7092 34.1925 28.8191 35.1334 26.7079C36.0742 24.5967 36.5611 22.3114 36.5625 20" fill="#4285F4"/>
<path d="M10.3125 20.0003C10.3149 18.8805 10.5127 17.7697 10.8971 16.7179L5.35612 12.2852C4.09623 14.6616 3.4375 17.3105 3.4375 20.0003C3.4375 22.6901 4.09623 25.3389 5.35612 27.7154L10.8971 23.2827C10.5127 22.2309 10.3149 21.1201 10.3125 20.0003Z" fill="#FFBA00"/>
<path d="M20 10.3125C22.0498 10.3131 24.0459 10.9681 25.6975 12.1823L30.7725 7.44564C28.8885 5.82134 26.6621 4.64346 24.2594 3.99992C21.8566 3.35637 19.3395 3.26377 16.8959 3.72902C14.4524 4.19427 12.1454 5.20536 10.1473 6.68685C8.14908 8.16833 6.51129 10.0819 5.35608 12.2849L10.8971 16.7176C11.5728 14.8444 12.8091 13.2246 14.4378 12.0786C16.0664 10.9326 18.0085 10.316 20 10.3125Z" fill="#EA4435"/>
<path d="M36.5625 18.75V20L33.75 24.375H20.625V17.5H35.3125C35.644 17.5 35.962 17.6317 36.1964 17.8661C36.4308 18.1005 36.5625 18.4185 36.5625 18.75Z" fill="#4285F4"/>
</g>
<defs>
<clipPath id="clip0_1_54">
<rect width="40" height="40" fill="white"/>
</clipPath>
</defs>
</svg>
