<svg width="40" height="40" viewBox="0 0 40 40" fill="none" xmlns="http://www.w3.org/2000/svg">
<path d="M28.8002 21.2305H23.6212C23.1154 21.2305 22.8625 21.2305 22.6536 21.2797C21.9725 21.4402 21.4407 21.972 21.2802 22.6531C21.231 22.862 21.231 23.1149 21.231 23.6208V28.7997C21.231 32.9801 24.6198 36.3689 28.8002 36.3689C32.9806 36.3689 36.3694 32.9801 36.3694 28.7997C36.3694 24.6193 32.9806 21.2305 28.8002 21.2305Z" fill="#0067A0"/>
<path d="M15.8154 21.2344H6.95385C5.9199 21.2344 5.40293 21.2344 5.00802 21.4356C4.66064 21.6126 4.37822 21.895 4.20122 22.2424C4 22.6373 4 23.1543 4 24.1882V33.0498C4 34.0837 4 34.6007 4.20122 34.9956C4.37822 35.343 4.66064 35.6254 5.00802 35.8024C5.40293 36.0036 5.9199 36.0036 6.95385 36.0036H15.8154C16.8493 36.0036 17.3663 36.0036 17.7612 35.8024C18.1086 35.6254 18.391 35.343 18.568 34.9956C18.7692 34.6007 18.7692 34.0837 18.7692 33.0498V24.1882C18.7692 23.1543 18.7692 22.6373 18.568 22.2424C18.391 21.895 18.1086 21.6126 17.7612 21.4356C17.3663 21.2344 16.8493 21.2344 15.8154 21.2344Z" fill="#009CD9"/>
<path d="M33.0488 4H24.1872C23.1533 4 22.6363 4 22.2414 4.20122C21.894 4.37822 21.6116 4.66064 21.4346 5.00802C21.2334 5.40293 21.2334 5.9199 21.2334 6.95385V15.8127C21.2334 16.8467 21.2334 17.3636 21.4346 17.7585C21.6116 18.1059 21.894 18.3883 22.2414 18.5653C22.6363 18.7666 23.1533 18.7666 24.1872 18.7666H33.0488C34.0827 18.7666 34.5997 18.7666 34.9946 18.5653C35.342 18.3883 35.6244 18.1059 35.8014 17.7585C36.0026 17.3636 36.0026 16.8467 36.0026 15.8127V6.95385C36.0026 5.9199 36.0026 5.40293 35.8014 5.00802C35.6244 4.66064 35.342 4.37822 34.9946 4.20122C34.5997 4 34.0827 4 33.0488 4Z" fill="#0DB25A"/>
<path d="M6.95385 18.7692H16.4372C16.8888 18.7692 17.1145 18.7692 17.3019 18.7299C18.0192 18.5796 18.5796 18.0192 18.7299 17.3019C18.7692 17.1145 18.7692 16.8888 18.7692 16.4372C18.7692 14.0291 18.7692 12.825 18.5597 11.8256C17.7576 8.00032 14.7689 5.01163 10.9437 4.20956C9.94423 4 8.74015 4 6.33198 4C5.88045 4 5.65469 4 5.46729 4.03929C4.75006 4.18968 4.18968 4.75006 4.03929 5.46729C4 5.65469 4 5.88045 4 6.33198V15.8154C4 16.8493 4 17.3663 4.20122 17.7612C4.37822 18.1086 4.66064 18.391 5.00802 18.568C5.40293 18.7692 5.9199 18.7692 6.95385 18.7692Z" fill="#FFB306"/>
</svg>
