<svg width="40" height="40" viewBox="0 0 40 40" fill="none" xmlns="http://www.w3.org/2000/svg">
<g clip-path="url(#clip0_1_36)">
<path d="M19.9998 39.9595C31.023 39.9595 39.959 31.0235 39.959 20.0003C39.959 8.97708 31.023 0.0410156 19.9998 0.0410156C8.97659 0.0410156 0.0405273 8.97708 0.0405273 20.0003C0.0405273 31.0235 8.97659 39.9595 19.9998 39.9595Z" fill="#FC3F1D"/>
<path d="M27.2222 32.5296H22.8408V10.8593H20.8889C17.3111 10.8593 15.4371 12.6482 15.4371 15.3185C15.4371 18.3482 16.7297 19.7519 19.4037 21.5407L21.6074 23.0259L15.2741 32.5259H10.563L16.263 24.0445C12.9852 21.7037 11.1408 19.4185 11.1408 15.563C11.1408 10.7445 14.5 7.46667 20.8593 7.46667H27.1926V32.5222H27.2222V32.5296Z" fill="white"/>
</g>
<defs>
<clipPath id="clip0_1_36">
<rect width="40" height="40" fill="white"/>
</clipPath>
</defs>
</svg>
