<svg width="14" height="14" viewBox="0 0 14 14" fill="none" xmlns="http://www.w3.org/2000/svg">
<path fill-rule="evenodd" clip-rule="evenodd" d="M0.4295 11.4638C-0.143167 12.044 -0.143167 12.9847 0.4295 13.5649C1.00217 14.145 1.93064 14.145 2.50331 13.5649L7.00002 9.00903L11.4967 13.5649C12.0694 14.145 12.9979 14.145 13.5705 13.5649C14.1432 12.9847 14.1432 12.044 13.5705 11.4638L9.07382 6.90796L13.3888 2.53622C13.9615 1.95602 13.9615 1.01534 13.3888 0.435145C12.8162 -0.145049 11.8877 -0.145048 11.315 0.435147L7.00002 4.80689L2.685 0.435147C2.11234 -0.145048 1.18386 -0.145049 0.611193 0.435145C0.0385266 1.01534 0.0385267 1.95602 0.611193 2.53622L4.92621 6.90796L0.4295 11.4638Z" fill="white"/>
</svg>
