<svg width="104" height="16" viewBox="0 0 104 16" fill="none" xmlns="http://www.w3.org/2000/svg">
<path d="M8 0L10.8214 4.11672L15.6085 5.52786L12.5651 9.48328L12.7023 14.4721L8 12.8L3.29772 14.4721L3.43493 9.48328L0.391548 5.52786L5.17863 4.11672L8 0Z" fill="#FFB306"/>
<path d="M30 0L32.8214 4.11672L37.6085 5.52786L34.5651 9.48328L34.7023 14.4721L30 12.8L25.2977 14.4721L25.4349 9.48328L22.3915 5.52786L27.1786 4.11672L30 0Z" fill="#FFB306"/>
<path d="M52 0L54.8214 4.11672L59.6085 5.52786L56.5651 9.48328L56.7023 14.4721L52 12.8L47.2977 14.4721L47.4349 9.48328L44.3915 5.52786L49.1786 4.11672L52 0Z" fill="#FFB306"/>
<path d="M74 0L76.8214 4.11672L81.6085 5.52786L78.5651 9.48328L78.7023 14.4721L74 12.8L69.2977 14.4721L69.4349 9.48328L66.3915 5.52786L71.1786 4.11672L74 0Z" fill="#FFB306"/>
<path d="M96 0L98.8214 4.11672L103.608 5.52786L100.565 9.48328L100.702 14.4721L96 12.8L91.2977 14.4721L91.4349 9.48328L88.3915 5.52786L93.1786 4.11672L96 0Z" fill="#FFB306"/>
</svg>
