<svg width="320" height="657" viewBox="0 0 320 657" fill="none" xmlns="http://www.w3.org/2000/svg">
<path d="M34.5 40.5L31.0514 48L34.5 55.5L27 52.0514L19.5 55.5L22.9486 48L19.5 40.5L27 43.9486L34.5 40.5Z" fill="#C5B0FD"/>
<path d="M260.62 537.874L257.919 543.747L260.62 549.621L254.746 546.92L248.873 549.621L251.573 543.747L248.873 537.874L254.746 540.574L260.62 537.874Z" fill="#B2F9D3"/>
<path d="M72 509L74.971 517.029L83 520L74.971 522.971L72 531L69.029 522.971L61 520L69.029 517.029L72 509Z" fill="#BCF1FF"/>
<path d="M295 623L297.431 629.569L304 632L297.431 634.431L295 641L292.569 634.431L286 632L292.569 629.569L295 623Z" fill="#BCF1FF"/>
<path d="M26.125 543.625L22.6189 551.25L26.125 558.875L18.5 555.369L10.875 558.875L14.3811 551.25L10.875 543.625L18.5 547.131L26.125 543.625Z" fill="#C5B0FD"/>
<path d="M158 10L160.701 17.2991L168 20L160.701 22.7009L158 30L155.299 22.7009L148 20L155.299 17.2991L158 10Z" fill="#BCF1FF"/>
</svg>
