<svg width="1024" height="919" viewBox="0 0 1024 919" fill="none" xmlns="http://www.w3.org/2000/svg">
<path d="M335 72L339.051 82.9486L350 87L339.051 91.0514L335 102L330.949 91.0514L320 87L330.949 82.9486L335 72Z" fill="#FFC9AB"/>
<path d="M203.021 774.022L215.042 779.55L227.062 774.022L221.535 786.043L227.062 798.064L215.042 792.536L203.021 798.064L208.548 786.043L203.021 774.022Z" fill="#B2F9D3"/>
<path d="M841.97 150.029L833.403 166.235L839.142 181.142L824.236 175.403L808.029 183.97L816.596 167.763L810.858 152.857L825.764 158.596L841.97 150.029Z" fill="#B2F9D3"/>
<path d="M549 82L554.402 96.5982L569 102L554.402 107.402L549 122L543.598 107.402L529 102L543.598 96.5982L549 82Z" fill="#FFABBA"/>
<path d="M154 151L160.752 169.248L179 176L160.752 182.752L154 201L147.248 182.752L129 176L147.248 169.248L154 151Z" fill="#BCDFFF"/>
<path d="M862 771L866.051 781.949L877 786L866.051 790.051L862 801L857.949 790.051L847 786L857.949 781.949L862 771Z" fill="#B19CE9"/>
<path d="M968 660L972.051 670.949L983 675L972.051 679.051L968 690L963.949 679.051L953 675L963.949 670.949L968 660Z" fill="#FFE4D5"/>
<path d="M55 697L59.0514 707.949L70 712L59.0514 716.051L55 727L50.9486 716.051L40 712L50.9486 707.949L55 697Z" fill="#FFC9AB"/>
<path d="M512 864L517.402 878.598L532 884L517.402 889.402L512 904L506.598 889.402L492 884L506.598 878.598L512 864Z" fill="#FFABBA"/>
</svg>
