<svg width="768" height="922" viewBox="0 0 768 922" fill="none" xmlns="http://www.w3.org/2000/svg">
<path d="M335 72L339.051 82.9486L350 87L339.051 91.0514L335 102L330.949 91.0514L320 87L330.949 82.9486L335 72Z" fill="#FFC9AB"/>
<path d="M158.021 776.02L170.042 781.548L182.062 776.02L176.535 788.041L182.062 800.062L170.042 794.534L158.021 800.062L163.548 788.041L158.021 776.02Z" fill="#B2F9D3"/>
<path d="M549 82L554.402 96.5982L569 102L554.402 107.402L549 122L543.598 107.402L529 102L543.598 96.5982L549 82Z" fill="#FFABBA"/>
<path d="M78 146L84.7523 164.248L103 171L84.7523 177.752L78 196L71.2477 177.752L53 171L71.2477 164.248L78 146Z" fill="#BCDFFF"/>
<path d="M728 622L732.051 632.949L743 637L732.051 641.051L728 652L723.949 641.051L713 637L723.949 632.949L728 622Z" fill="#FFB4A9"/>
<path d="M618 749L622.051 759.949L633 764L622.051 768.051L618 779L613.949 768.051L603 764L613.949 759.949L618 749Z" fill="#B19CE9"/>
<path d="M384 864L389.402 878.598L404 884L389.402 889.402L384 904L378.598 889.402L364 884L378.598 878.598L384 864Z" fill="#FFABBA"/>
<path d="M718.084 217.142L709.516 233.349L715.255 248.255L700.349 242.516L684.142 251.083L692.71 234.877L686.971 219.971L701.877 225.709L718.084 217.142Z" fill="#B2F9D3"/>
<path d="M52 649L56.0514 659.949L67 664L56.0514 668.051L52 679L47.9486 668.051L37 664L47.9486 659.949L52 649Z" fill="#FFC9AB"/>
</svg>
