<svg width="1920" height="1019" viewBox="0 0 1920 1019" fill="none" xmlns="http://www.w3.org/2000/svg">
<path d="M799 72L803.051 82.9486L814 87L803.051 91.0514L799 102L794.949 91.0514L784 87L794.949 82.9486L799 72Z" fill="#FFC9AB"/>
<path d="M337 266L341.051 276.949L352 281L341.051 285.051L337 296L332.949 285.051L322 281L332.949 276.949L337 266Z" fill="#B2F9D3"/>
<path d="M179.979 106.979L192 112.507L204.02 106.979L198.493 119L204.02 131.021L192 125.493L179.979 131.021L185.506 119L179.979 106.979Z" fill="#B2F9D3"/>
<path d="M587.021 774.022L599.042 779.55L611.062 774.022L605.535 786.043L611.062 798.064L599.042 792.536L587.021 798.064L592.548 786.043L587.021 774.022Z" fill="#B2F9D3"/>
<path d="M1578 92L1582.05 102.949L1593 107L1582.05 111.051L1578 122L1573.95 111.051L1563 107L1573.95 102.949L1578 92Z" fill="#FFB4A9"/>
<path d="M1768.01 291.5L1779.52 293.466L1788.5 286.009L1786.53 297.517L1793.99 306.5L1782.48 304.534L1773.5 311.99L1775.47 300.483L1768.01 291.5Z" fill="#BCF1FF"/>
<path d="M1305.97 150.029L1297.4 166.235L1303.14 181.142L1288.24 175.403L1272.03 183.97L1280.6 167.763L1274.86 152.857L1289.76 158.596L1305.97 150.029Z" fill="#B2F9D3"/>
<path d="M1013 82L1018.4 96.5982L1033 102L1018.4 107.402L1013 122L1007.6 107.402L993 102L1007.6 96.5982L1013 82Z" fill="#FFABBA"/>
<path d="M618 151L624.752 169.248L643 176L624.752 182.752L618 201L611.248 182.752L593 176L611.248 169.248L618 151Z" fill="#BCDFFF"/>
<path d="M113 469L117.592 481.408L130 486L117.592 490.592L113 503L108.408 490.592L96 486L108.408 481.408L113 469Z" fill="#BCF1FF"/>
<path d="M1841 541L1845.05 551.949L1856 556L1845.05 560.051L1841 571L1836.95 560.051L1826 556L1836.95 551.949L1841 541Z" fill="#FFB4A9"/>
<path d="M1326 771L1330.05 781.949L1341 786L1330.05 790.051L1326 801L1321.95 790.051L1311 786L1321.95 781.949L1326 771Z" fill="#B19CE9"/>
<path d="M398 697L402.051 707.949L413 712L402.051 716.051L398 727L393.949 716.051L383 712L393.949 707.949L398 697Z" fill="#FFC9AB"/>
<path d="M417.506 81.5061L408.077 102.012L417.506 122.518L397 113.089L376.494 122.518L385.923 102.012L376.494 81.5061L397 90.9352L417.506 81.5061Z" fill="#C5B0FD"/>
<path d="M1484 929L1488.05 939.949L1499 944L1488.05 948.051L1484 959L1479.95 948.051L1469 944L1479.95 939.949L1484 929Z" fill="#FFE4D5"/>
</svg>
