<svg width="122" height="106" viewBox="0 0 122 106" fill="none" xmlns="http://www.w3.org/2000/svg">
<g filter="url(#filter0_f_2_3846)">
<ellipse cx="38.9232" cy="46.8064" rx="38.9232" ry="46.8064" transform="matrix(4.37114e-08 1 1 -4.37114e-08 14 14.0132)" fill="#ECC2F3"/>
</g>
<g filter="url(#filter1_f_2_3846)">
<ellipse cx="32.3485" cy="41.6936" rx="32.3485" ry="41.6936" transform="matrix(4.37114e-08 1 1 -4.37114e-08 24.064 14.2209)" fill="#876EBD"/>
</g>
<path d="M28.1489 32.9516C28.1475 32.9701 28.1468 32.9888 28.1468 33.0076L28.1468 45.0601C28.1468 45.0819 28.1478 45.1036 28.1497 45.1252C28.2805 53.4897 32.8955 61.0209 40.2282 66.4507C47.5652 71.8836 57.6397 75.2286 68.7454 75.2286C79.8511 75.2286 89.9257 71.8836 97.2627 66.4507C104.595 61.0209 109.21 53.4898 109.341 45.1252C109.343 45.1036 109.344 45.0819 109.344 45.0601V33.0077C109.344 32.9889 109.343 32.9702 109.342 32.9516C109.229 24.5369 104.62 16.9576 97.2846 11.4925C89.9458 6.02461 79.8623 2.6573 68.7454 2.6573C57.6286 2.6573 47.545 6.02461 40.2062 11.4925C32.871 16.9576 28.2617 24.5368 28.1489 32.9516Z" fill="url(#paint0_linear_2_3846)" stroke="#102938" stroke-width="0.685393" stroke-linecap="round"/>
<g filter="url(#filter2_f_2_3846)">
<ellipse cx="68.7418" cy="30.7535" rx="26.2906" ry="38.3836" transform="rotate(90 68.7418 30.7535)" fill="url(#paint1_linear_2_3846)"/>
</g>
<g filter="url(#filter3_f_2_3846)">
<path fill-rule="evenodd" clip-rule="evenodd" d="M107.127 30.8426C107.127 45.314 89.9418 57.0454 68.7432 57.0454C47.5445 57.0454 30.3596 45.314 30.3596 30.8426C30.3596 30.5293 30.3677 30.2173 30.3836 29.9067C31.1055 42.9766 48.0034 53.4312 68.7432 53.4312C89.483 53.4312 106.381 42.9766 107.103 29.9067C107.119 30.2173 107.127 30.5293 107.127 30.8426Z" fill="#FFA1D4"/>
</g>
<path d="M76.16 19.5242C76.6771 19.085 76.8695 18.3859 76.6694 17.6728C76.4693 16.9596 75.9048 16.3321 75.1743 16.0109L65.07 11.5673C63.8953 11.0508 62.6511 11.4669 62.2911 12.4968C61.9311 13.5268 62.5915 14.7805 63.7662 15.2971L65.4539 16.0393C61.8567 16.3874 58.418 17.2803 55.4898 18.6753C51.6724 20.4938 48.7069 23.1853 47.5635 26.522C46.374 29.9932 47.3818 33.4902 49.9619 36.2921C52.485 39.0323 56.3919 41.0193 60.8644 42.0947C65.3632 43.1764 70.3405 43.3163 74.9802 42.4993C79.6003 41.6858 83.762 39.9432 86.6659 37.4204C89.5948 34.8759 91.2031 31.5346 90.5981 27.9688C90.0073 24.4866 87.4305 21.566 83.888 19.5096C82.8579 18.9117 81.5381 19.262 80.9402 20.292C80.3422 21.3221 80.6926 22.6419 81.7226 23.2398C84.6159 24.9193 86.0445 26.9145 86.3458 28.6903C86.6329 30.3824 85.965 32.3159 83.8372 34.1644C81.6845 36.0346 78.3219 37.5314 74.2322 38.2515C70.162 38.9682 65.7828 38.8413 61.8727 37.9011C57.9363 36.9546 54.9021 35.2898 53.1347 33.3705C51.4242 31.5128 51.0575 29.6308 51.6437 27.9202C52.276 26.075 54.1265 24.1023 57.3448 22.5691C60.3587 21.1333 64.1803 20.2809 68.2139 20.1942L65.7316 22.3023C64.9 23.0086 64.959 24.3192 65.8634 25.2296C66.7678 26.14 68.1751 26.3054 69.0068 25.5992L76.16 19.5242Z" fill="#6A42BE"/>
<path d="M76.3543 18.5049C76.8715 18.0657 77.0638 17.3666 76.8637 16.6535C76.6637 15.9403 76.0991 15.3129 75.3686 14.9916L65.2643 10.5481C64.0896 10.0315 62.8455 10.4476 62.4855 11.4775C62.1254 12.5075 62.7859 13.7612 63.9605 14.2778L65.6482 15.02C62.051 15.3681 58.6124 16.261 55.6842 17.656C51.8667 19.4746 48.9012 22.166 47.7578 25.5027C46.5683 28.974 47.5762 32.4709 50.1562 35.2728C52.6794 38.013 56.5862 40 61.0587 41.0754C65.5575 42.1571 70.5349 42.297 75.1745 41.48C79.7946 40.6665 83.9563 38.9239 86.8602 36.4011C89.7892 33.8566 91.3975 30.5153 90.7925 26.9495C90.2016 23.4673 87.6249 20.5467 84.0823 18.4903C83.0522 17.8924 81.7325 18.2427 81.1345 19.2728C80.5366 20.3028 80.8869 21.6226 81.917 22.2205C84.8103 23.9 86.2388 25.8952 86.5401 27.671C86.8272 29.3631 86.1593 31.2966 84.0316 33.1451C81.8788 35.0153 78.5163 36.5121 74.4265 37.2322C70.3563 37.9489 65.9772 37.822 62.0671 36.8818C58.1307 35.9353 55.0964 34.2705 53.3291 32.3512C51.6186 30.4935 51.2519 28.6115 51.838 26.9009C52.4703 25.0557 54.3208 23.083 57.5391 21.5498C60.5531 20.114 64.3746 19.2616 68.4082 19.175L65.9259 21.2831C65.0943 21.9893 65.1533 23.2999 66.0578 24.2103C66.9622 25.1207 68.3695 25.2862 69.2011 24.5799L76.3543 18.5049Z" fill="#FFD900"/>
<defs>
<filter id="filter0_f_2_3846" x="0.292134" y="0.305318" width="121.029" height="105.262" filterUnits="userSpaceOnUse" color-interpolation-filters="sRGB">
<feFlood flood-opacity="0" result="BackgroundImageFix"/>
<feBlend mode="normal" in="SourceGraphic" in2="BackgroundImageFix" result="shape"/>
<feGaussianBlur stdDeviation="6.85393" result="effect1_foregroundBlur_2_3846"/>
</filter>
<filter id="filter1_f_2_3846" x="17.064" y="7.22095" width="97.3873" height="78.697" filterUnits="userSpaceOnUse" color-interpolation-filters="sRGB">
<feFlood flood-opacity="0" result="BackgroundImageFix"/>
<feBlend mode="normal" in="SourceGraphic" in2="BackgroundImageFix" result="shape"/>
<feGaussianBlur stdDeviation="3.5" result="effect1_foregroundBlur_2_3846"/>
</filter>
<filter id="filter2_f_2_3846" x="28.3582" y="2.46289" width="80.7672" height="56.5811" filterUnits="userSpaceOnUse" color-interpolation-filters="sRGB">
<feFlood flood-opacity="0" result="BackgroundImageFix"/>
<feBlend mode="normal" in="SourceGraphic" in2="BackgroundImageFix" result="shape"/>
<feGaussianBlur stdDeviation="1" result="effect1_foregroundBlur_2_3846"/>
</filter>
<filter id="filter3_f_2_3846" x="29.3596" y="28.9067" width="78.7671" height="29.1387" filterUnits="userSpaceOnUse" color-interpolation-filters="sRGB">
<feFlood flood-opacity="0" result="BackgroundImageFix"/>
<feBlend mode="normal" in="SourceGraphic" in2="BackgroundImageFix" result="shape"/>
<feGaussianBlur stdDeviation="0.5" result="effect1_foregroundBlur_2_3846"/>
</filter>
<linearGradient id="paint0_linear_2_3846" x1="115.552" y1="35.4907" x2="21.9055" y2="42.2569" gradientUnits="userSpaceOnUse">
<stop stop-color="#FF7BC2"/>
<stop offset="1" stop-color="#684EFF"/>
</linearGradient>
<linearGradient id="paint1_linear_2_3846" x1="5.04546" y1="-29.5215" x2="36.9046" y2="71.9356" gradientUnits="userSpaceOnUse">
<stop stop-color="#FFB096"/>
<stop offset="0.311904" stop-color="#FF6BBB"/>
<stop offset="1" stop-color="#AC6BED"/>
</linearGradient>
</defs>
</svg>
