<svg width="75" height="67" viewBox="0 0 75 67" fill="none" xmlns="http://www.w3.org/2000/svg">
<g filter="url(#filter0_f_3851_16907)">
<ellipse cx="19.2737" cy="23.1569" rx="19.2737" ry="23.1569" transform="matrix(4.3673e-08 1 1 -4.37498e-08 14 14.4531)" fill="#CAA8FF"/>
</g>
<mask id="path-2-outside-1_3851_16907" maskUnits="userSpaceOnUse" x="21.0005" y="8" width="42" height="38" fill="black">
<rect fill="white" x="21.0005" y="8" width="42" height="38"/>
<path fill-rule="evenodd" clip-rule="evenodd" d="M22.1683 29.6783L22.1683 23.9876L22.1683 23.9382C22.1683 23.9352 22.1684 23.9321 22.1685 23.9291C22.2103 15.6786 31.111 9 42.0844 9C53.0578 9 61.9585 15.6786 62.0003 23.9291C62.0004 23.9321 62.0005 23.9352 62.0005 23.9382L62.0005 23.9876L62.0005 29.6783L62.0005 29.7483C62.0005 29.7526 62.0004 29.757 62.0002 29.7612C61.9406 37.9618 53.0468 44.5958 42.0844 44.5958C31.122 44.5958 22.2282 37.9618 22.1686 29.7612C22.1684 29.7569 22.1683 29.7526 22.1683 29.7483L22.1683 29.6783Z"/>
</mask>
<path fill-rule="evenodd" clip-rule="evenodd" d="M22.1683 29.6783L22.1683 23.9876L22.1683 23.9382C22.1683 23.9352 22.1684 23.9321 22.1685 23.9291C22.2103 15.6786 31.111 9 42.0844 9C53.0578 9 61.9585 15.6786 62.0003 23.9291C62.0004 23.9321 62.0005 23.9352 62.0005 23.9382L62.0005 23.9876L62.0005 29.6783L62.0005 29.7483C62.0005 29.7526 62.0004 29.757 62.0002 29.7612C61.9406 37.9618 53.0468 44.5958 42.0844 44.5958C31.122 44.5958 22.2282 37.9618 22.1686 29.7612C22.1684 29.7569 22.1683 29.7526 22.1683 29.7483L22.1683 29.6783Z" fill="url(#paint0_linear_3851_16907)"/>
<path d="M22.1683 29.6783L21.1683 29.6783L22.1683 29.6783ZM22.1683 23.9876L23.1683 23.9876L22.1683 23.9876ZM22.1685 23.9291L23.1679 23.9619L23.1684 23.948L23.1684 23.9342L22.1685 23.9291ZM62.0003 23.9291L61.0004 23.9342L61.0004 23.948L61.0009 23.9617L62.0003 23.9291ZM62.0002 29.7612L61.0013 29.7147L61.0004 29.7343L61.0002 29.754L62.0002 29.7612ZM22.1686 29.7612L23.1686 29.754L23.1684 29.7345L23.1675 29.7151L22.1686 29.7612ZM22.1683 29.7483L23.1683 29.7483L22.1683 29.7483ZM23.1683 29.6783L23.1683 23.9876L21.1683 23.9876L21.1683 29.6783L23.1683 29.6783ZM23.1683 23.9876L23.1683 23.9382L21.1683 23.9382L21.1683 23.9876L23.1683 23.9876ZM23.1683 23.9382C23.1683 23.946 23.1682 23.9539 23.1679 23.9619L21.169 23.8963C21.1685 23.9104 21.1683 23.9243 21.1683 23.9382L23.1683 23.9382ZM23.1684 23.9342C23.1874 20.1914 25.214 16.7299 28.627 14.1707C32.0403 11.6113 36.7935 10 42.0844 10L42.0844 8C36.4019 8 31.218 9.72802 27.4272 12.5705C23.636 15.4133 21.1914 19.4163 21.1685 23.924L23.1684 23.9342ZM42.0844 10C47.3753 10 52.1285 11.6113 55.5418 14.1707C58.9548 16.7299 60.9814 20.1914 61.0004 23.9342L63.0003 23.924C62.9774 19.4163 60.5328 15.4133 56.7416 12.5705C52.9507 9.72802 47.7669 8 42.0844 8L42.0844 10ZM61.0009 23.9617C61.0006 23.9539 61.0005 23.9461 61.0005 23.9382L63.0005 23.9382C63.0005 23.9243 63.0003 23.9104 62.9998 23.8965L61.0009 23.9617ZM61.0005 23.9382L61.0005 23.9876L63.0005 23.9876L63.0005 23.9382L61.0005 23.9382ZM61.0005 23.9876L61.0005 29.6783L63.0005 29.6783L63.0005 23.9876L61.0005 23.9876ZM61.0005 29.6783L61.0005 29.7483L63.0005 29.7483L63.0005 29.6783L61.0005 29.6783ZM61.0005 29.7483C61.0005 29.7371 61.0007 29.7259 61.0013 29.7147L62.9991 29.8078C63 29.788 63.0005 29.7681 63.0005 29.7483L61.0005 29.7483ZM61.0002 29.754C60.9732 33.4704 58.9459 36.9089 55.5333 39.4519C52.1207 41.9949 47.371 43.5958 42.0844 43.5958L42.0844 45.5958C47.7602 45.5958 52.9386 43.8797 56.7284 41.0556C60.5182 38.2315 62.9676 34.2527 63.0002 29.7685L61.0002 29.754ZM42.0844 43.5958C36.7977 43.5958 32.0481 41.9949 28.6355 39.4519C25.2229 36.9089 23.1956 33.4704 23.1686 29.754L21.1686 29.7685C21.2012 34.2527 23.6506 38.2315 27.4404 41.0556C31.2302 43.8797 36.4086 45.5958 42.0844 45.5958L42.0844 43.5958ZM23.1675 29.7151C23.168 29.7258 23.1683 29.7368 23.1683 29.7483L21.1683 29.7483C21.1683 29.7684 21.1688 29.7881 21.1697 29.8074L23.1675 29.7151ZM23.1683 29.7483L23.1683 29.6783L21.1683 29.6783L21.1683 29.7483L23.1683 29.7483Z" fill="#102938" mask="url(#path-2-outside-1_3851_16907)"/>
<ellipse cx="42.0825" cy="22.7429" rx="13.0183" ry="18.9898" transform="rotate(90 42.0825 22.7429)" fill="url(#paint1_linear_3851_16907)"/>
<path fill-rule="evenodd" clip-rule="evenodd" d="M61.0728 22.7866C61.0728 29.9525 52.5708 35.7615 42.083 35.7615C31.5953 35.7615 23.0933 29.9525 23.0933 22.7866C23.0933 22.6315 23.0972 22.477 23.1051 22.3232C23.4623 28.7951 31.8223 33.9719 42.083 33.9719C52.3438 33.9719 60.7038 28.7951 61.0609 22.3232C61.0688 22.477 61.0728 22.6315 61.0728 22.7866Z" fill="#F395AC"/>
<path d="M51.9298 20.9423C52.4427 21.2088 52.4157 21.9515 51.8847 22.18L46.9434 24.3067C46.8038 24.3668 46.6882 24.4715 46.6146 24.6045L44.7374 27.9977C44.5568 28.3242 44.1481 28.4462 43.8181 28.2722L39.9594 26.2378C39.8427 26.1763 39.7107 26.1498 39.5793 26.1614L33.1267 26.7331C32.593 26.7804 32.2138 26.2246 32.4527 25.7449L34.5324 21.5679C34.6289 21.374 34.6281 21.1459 34.5302 20.9527L32.7803 17.4986C32.5468 17.0377 32.8878 16.494 33.4043 16.5035L39.2892 16.612C39.4136 16.6143 39.5362 16.5828 39.6439 16.5207L44.524 13.7103C44.8863 13.5017 45.3495 13.6633 45.5033 14.0521L47.1785 18.2847C47.2392 18.4382 47.3533 18.5646 47.4998 18.6407L51.9298 20.9423Z" fill="#6A42BE"/>
<path d="M51.3204 21.6895C51.8342 21.9397 51.8342 22.6718 51.3204 22.922L47.0424 25.005C46.8805 25.0838 46.7561 25.2233 46.6961 25.3931L45.2989 29.3532C45.1538 29.7644 44.6665 29.9374 44.2946 29.7096L39.8398 26.9812C39.7239 26.9102 39.5896 26.8753 39.4538 26.8808L33.9445 27.1069C33.42 27.1284 33.067 26.5764 33.3065 26.1093L35.0966 22.6185C35.1973 22.4222 35.1973 22.1893 35.0966 21.993L33.3065 18.5022C33.067 18.0351 33.42 17.4831 33.9445 17.5046L39.4538 17.7307C39.5896 17.7362 39.7239 17.7013 39.8398 17.6303L44.2946 14.9019C44.6665 14.6741 45.1538 14.8471 45.2989 15.2583L46.6961 19.2184C46.7561 19.3882 46.8805 19.5277 47.0424 19.6065L51.3204 21.6895Z" fill="#FFD900"/>
<defs>
<filter id="filter0_f_3851_16907" x="0.292134" y="0.745259" width="73.7292" height="65.9626" filterUnits="userSpaceOnUse" color-interpolation-filters="sRGB">
<feFlood flood-opacity="0" result="BackgroundImageFix"/>
<feBlend mode="normal" in="SourceGraphic" in2="BackgroundImageFix" result="shape"/>
<feGaussianBlur stdDeviation="6.85393" result="effect1_foregroundBlur_3851_16907"/>
</filter>
<linearGradient id="paint0_linear_3851_16907" x1="65.2415" y1="25.0885" x2="18.9105" y2="28.4331" gradientUnits="userSpaceOnUse">
<stop stop-color="#F58D9F"/>
<stop offset="1" stop-color="#6953EC"/>
</linearGradient>
<linearGradient id="paint1_linear_3851_16907" x1="30.354" y1="10.7027" x2="54.5889" y2="42.1468" gradientUnits="userSpaceOnUse">
<stop stop-color="#FF9198"/>
<stop offset="1" stop-color="#904BD8"/>
</linearGradient>
</defs>
</svg>
