<svg width="348" height="348" viewBox="0 0 348 348" fill="none" xmlns="http://www.w3.org/2000/svg">
<path d="M165.575 6.6035C168.475 -1.23206 179.557 -1.23205 182.456 6.60351L193.479 36.3901C213.736 91.1339 256.898 134.296 311.642 154.553L341.428 165.575C349.264 168.475 349.264 179.557 341.428 182.456L311.642 193.479C256.898 213.736 213.736 256.898 193.479 311.642L182.456 341.428C179.557 349.264 168.475 349.264 165.575 341.428L154.553 311.642C134.296 256.898 91.1339 213.736 36.3901 193.479L6.6035 182.456C-1.23206 179.557 -1.23205 168.475 6.60351 165.575L36.3901 154.553C91.1339 134.296 134.296 91.1339 154.553 36.3901L165.575 6.6035Z" fill="#F6F6F7"/>
</svg>
