<svg width="33" height="33" fill="none" xmlns="http://www.w3.org/2000/svg"><rect x=".5" y=".5" width="32" height="32" rx="6" fill="#F88"/><g clip-path="url(#a)"><path d="M21.061 9.532c-2.036-2.434-4.046-4.017-4.13-4.083a.7.7 0 0 0-1.131.552v3.078c0 1.59-2.104 2.148-2.892.767a.7.7 0 0 0-1.15-.097C9.64 12.334 7.75 15.594 7.75 18.95c0 4.825 3.925 8.75 8.75 8.75 4.824 0 8.75-3.925 8.75-8.75 0-3.443-1.988-6.786-4.189-9.418ZM12.65 16.5c0-.772.628-1.4 1.4-1.4.771 0 1.4.628 1.4 1.4 0 .772-.628 1.4-1.4 1.4-.772 0-1.4-.628-1.4-1.4Zm1.952 6.03a.7.7 0 1 1-1.105-.86l4.9-6.3a.7.7 0 1 1 1.105.86l-4.9 6.3Zm4.348.27c-.772 0-1.4-.628-1.4-1.4 0-.772.628-1.4 1.4-1.4.771 0 1.4.628 1.4 1.4 0 .772-.629 1.4-1.4 1.4Z" fill="#fff"/></g><defs><clipPath id="a"><path fill="#fff" transform="translate(5.3 5.3)" d="M0 0h22.4v22.4H0z"/></clipPath></defs></svg>