<svg width="33" height="33" fill="none" xmlns="http://www.w3.org/2000/svg"><rect x=".5" y=".5" width="32" height="32" rx="6" fill="#0DB25A"/><g clip-path="url(#a)" fill="#fff"><path d="M5.3 15.142v5.797a3.023 3.023 0 0 0 3.022 3.023h16.355a3.023 3.023 0 0 0 3.023-3.023v-5.797a.526.526 0 0 0-.526-.526H5.825a.526.526 0 0 0-.525.526Zm5.593 3.68H9.49a.92.92 0 0 1 0-1.84h1.402a.92.92 0 1 1 0 1.84ZM27.7 12.25v-.19a3.023 3.023 0 0 0-3.023-3.022H8.322A3.023 3.023 0 0 0 5.3 12.061v.19c0 .29.235.525.525.525h21.35c.29 0 .525-.235.525-.525Z"/></g><defs><clipPath id="a"><path fill="#fff" transform="translate(5.3 5.3)" d="M0 0h22.4v22.4H0z"/></clipPath></defs></svg>