<svg width="80" height="80" fill="none" xmlns="http://www.w3.org/2000/svg"><path opacity=".1" d="M8 40.283a32 32 0 1 0 64 0 32 32 0 0 0-64 0Z" fill="#1EBAF7"/><path d="M49.14 73.564v-3.309a33.89 33.89 0 0 0 5.317-3.126 7.68 7.68 0 0 0-.102-.47 14.367 14.367 0 0 0-8.8-9.782 14.394 14.394 0 0 0-10.11 0 14.365 14.365 0 0 0-8.8 9.782c-.037.16-.074.314-.103.47a33.877 33.877 0 0 0 5.318 3.126v3.309h17.28Z" fill="#DBFFD8"/><path d="M49.14 73.564v-3.309a33.89 33.89 0 0 0 5.317-3.126 7.68 7.68 0 0 0-.102-.47 14.367 14.367 0 0 0-8.8-9.782 14.394 14.394 0 0 0-10.11 0 14.365 14.365 0 0 0-8.8 9.782c-.037.16-.074.314-.103.47a33.877 33.877 0 0 0 5.318 3.126v3.309" stroke="#0DB25A" stroke-width="1.5" stroke-linecap="round" stroke-linejoin="round"/><path d="M37.274 53.186h6.456v5.084h-6.456v-5.084Z" fill="#fff" stroke="#0DB25A" stroke-width="1.5" stroke-linecap="round" stroke-linejoin="round"/><path d="M45.577 57.017a1.064 1.064 0 0 0-1.066-1.064 1.005 1.005 0 0 0-.907.513c-.387.769-1.63 1.338-3.101 1.338-1.47 0-2.714-.57-3.102-1.338a1.004 1.004 0 0 0-.907-.513 1.066 1.066 0 0 0-1.066 1.064v.32a6.726 6.726 0 0 0 10.153 0l-.004-.32Z" fill="#DBFFD8" stroke="#0DB25A" stroke-width="1.5" stroke-linecap="round" stroke-linejoin="round"/><path d="M31.864 73.562v-3.309a41.582 41.582 0 0 1-4.752-2.705l-.01 6.014h4.762Z" fill="#fff"/><path d="M31.864 73.562v-3.309a41.582 41.582 0 0 1-4.752-2.705l-.01 6.014" stroke="#0DB25A" stroke-width="1.5" stroke-linecap="round" stroke-linejoin="round"/><path d="M49.14 73.562v-3.309a41.555 41.555 0 0 0 4.752-2.705l.01 6.015-4.761-.001Z" fill="#fff"/><path d="M49.14 73.562v-3.309a41.555 41.555 0 0 0 4.752-2.705l.01 6.015m-13.4-13.912s-4.154.457-3.233 1.84c.336.506.858.4 1.384.054a8.871 8.871 0 0 0 1.849-1.894Zm0 0s4.154.457 3.232 1.84c-.336.506-.858.4-1.384.054a8.88 8.88 0 0 1-1.848-1.894Zm1.385 7.844a29.439 29.439 0 0 0-1.384-7.84 29.448 29.448 0 0 0-1.385 7.84m-7.84-5.087.586 7.846m-3.904-2.149 1.006-2.007m20.759-3.69-.585 7.846m3.904-2.149-1.006-2.007m-16.611-8.772v1.856m10.151-1.856v1.856" stroke="#0DB25A" stroke-width="1.5" stroke-linecap="round" stroke-linejoin="round"/><path d="M29.874 43.483v4.073a5.17 5.17 0 0 0 5.166 5.167h10.921a5.17 5.17 0 0 0 5.17-5.17v-4.07H29.874Z" fill="#DBFFD8" stroke="#0DB25A" stroke-width="1.5" stroke-linecap="round" stroke-linejoin="round"/><path d="M49.744 43.483V41.17a9.242 9.242 0 1 0-18.48 0v2.313a1.847 1.847 0 0 0-1.743 2.565 1.85 1.85 0 0 0 1.743 1.132c.039 0 .075-.01.114-.011a9.23 9.23 0 0 0 18.257 0c.039 0 .075.01.113.01a1.85 1.85 0 0 0 1.743-2.564 1.849 1.849 0 0 0-1.743-1.132h-.004Z" fill="#fff" stroke="#0DB25A" stroke-width="1.5" stroke-linecap="round" stroke-linejoin="round"/><path d="M34.032 47.408a1.155 1.155 0 1 0 2.31 0 1.155 1.155 0 0 0-2.31 0Zm10.628 0a1.155 1.155 0 1 0 2.31 0 1.155 1.155 0 0 0-2.31 0Z" fill="#DBFFD8"/><path d="M38.192 44.405a1.5 1.5 0 0 0-2.773 0m10.167 0a1.501 1.501 0 0 0-2.773 0m.444 5.385a3.97 3.97 0 0 1-5.51 0" stroke="#0DB25A" stroke-width="1.5" stroke-linecap="round" stroke-linejoin="round"/><path d="M36.188 28.75a3.697 3.697 0 1 0 7.395-.001 3.697 3.697 0 0 0-7.395 0Z" fill="#DBFFD8" stroke="#0DB25A" stroke-width="1.5" stroke-linecap="round" stroke-linejoin="round"/><path d="M32.152 30.597a2.649 2.649 0 1 0 5.298 0 2.649 2.649 0 0 0-5.298 0Z" fill="#DBFFD8" stroke="#0DB25A" stroke-width="1.5" stroke-linecap="round" stroke-linejoin="round"/><path d="m29.35 40.523.061 4.804a1.849 1.849 0 0 1 1.849-1.844v-.921a10.03 10.03 0 0 1 .171-2.025 5.257 5.257 0 0 0 4.537-5.264c5.458 7.28 11.002 4.9 13.605 5.264.126.667.184 1.346.171 2.025v.92a1.849 1.849 0 0 1 1.849 1.85l.061-4.805a11.153 11.153 0 0 0-22.304 0v-.004Z" fill="#DBFFD8" stroke="#0DB25A" stroke-width="1.5" stroke-linecap="round" stroke-linejoin="round"/><path d="M43.576 20.231a13.23 13.23 0 1 0 26.46 0 13.23 13.23 0 0 0-26.46 0Z" fill="#fff" stroke="#0DB25A" stroke-width="1.5" stroke-linecap="round" stroke-linejoin="round"/><path d="m63.003 23.33-3.099-3.098 3.099-3.099a2.191 2.191 0 0 0-3.099-3.098l-3.098 3.098-3.098-3.098a2.191 2.191 0 1 0-3.099 3.098l3.099 3.099-3.099 3.098a2.19 2.19 0 1 0 3.099 3.099l3.098-3.099 3.098 3.099a2.19 2.19 0 0 0 3.099-3.099Z" fill="#DBFFD8" stroke="#0DB25A" stroke-width="1.5" stroke-linecap="round" stroke-linejoin="round"/><path d="M10.116 20.231a13.23 13.23 0 1 0 26.46 0 13.23 13.23 0 0 0-26.46 0Z" fill="#fff" stroke="#0DB25A" stroke-width="1.5" stroke-linecap="round" stroke-linejoin="round"/><path d="M21.471 26.615a2.589 2.589 0 0 1-1.84-.761l-3.464-3.464a2.598 2.598 0 1 1 3.674-3.674l1.627 1.627 5.38-5.561a2.597 2.597 0 1 1 3.673 3.673l-7.216 7.399a2.584 2.584 0 0 1-1.834.76Z" fill="#DBFFD8" stroke="#0DB25A" stroke-width="1.5" stroke-linecap="round" stroke-linejoin="round"/></svg>