<svg width="93" height="18" fill="none" xmlns="http://www.w3.org/2000/svg"><circle cx="8.577" cy="8.458" r="6.375" transform="rotate(-45 8.577 8.458)" stroke="#fff" stroke-width="2"/><path d="m16.246 16.127-3.161-3.161" stroke="#fff" stroke-width="2" stroke-linecap="round"/><path d="M29.32 11.242c-.27.7-.57 1.25-.896 1.652-.317.392-.7.69-1.148.896-.448.196-1.017.336-1.708.42l-.252-1.288c.635-.103 1.11-.261 1.428-.476.327-.215.597-.565.812-1.05h-.616l-3.038-7.07h1.918l2.282 5.992 2.016-5.992h1.89l-2.688 6.916Zm7.424-1.288c1.27.14 1.904.733 1.904 1.778 0 .765-.294 1.335-.882 1.708-.578.373-1.362.56-2.352.56h-2.926V6.678c.999-.196 1.9-.294 2.702-.294.962 0 1.718.173 2.268.518.55.345.826.845.826 1.498 0 .42-.13.76-.392 1.022-.261.261-.644.439-1.148.532Zm-1.568-2.352c-.252 0-.55.023-.896.07v1.876h1.064c.775 0 1.162-.331 1.162-.994 0-.635-.443-.952-1.33-.952Zm.196 5.152c.943 0 1.414-.378 1.414-1.134 0-.345-.107-.597-.322-.756-.215-.168-.57-.252-1.064-.252h-1.12v2.142h1.092Zm10.944-2.632c0 .093-.014.336-.042.728h-4.648c.056.719.243 1.232.56 1.54.317.308.737.462 1.26.462.327 0 .635-.051.924-.154.29-.112.597-.28.924-.504l.742 1.022c-.821.663-1.736.994-2.744.994-1.13 0-2.002-.345-2.618-1.036-.607-.69-.91-1.633-.91-2.828 0-.756.13-1.433.392-2.03.261-.607.64-1.078 1.134-1.414.495-.345 1.083-.518 1.764-.518 1.036 0 1.839.331 2.408.994.57.653.854 1.568.854 2.744Zm-1.778-.518c0-1.297-.48-1.946-1.442-1.946-.439 0-.784.163-1.036.49-.243.317-.387.83-.434 1.54h2.912v-.084Zm9.115-3.01V14h-1.792V7.952h-1.806l-.182 1.988c-.093 1.045-.205 1.83-.336 2.352-.13.523-.35.929-.658 1.218-.299.28-.76.5-1.386.658l-.448-1.33c.308-.13.527-.275.658-.434.14-.168.238-.43.294-.784.065-.355.13-.957.196-1.806l.252-3.22h5.208ZM61.986 14h-1.722v-2.968c0-.541.024-1.05.07-1.526a9.22 9.22 0 0 1 .154-1.092L57.73 14h-1.918V6.594h1.736v2.968c0 .513-.028 1.022-.084 1.526-.046.504-.098.863-.154 1.078l2.73-5.572h1.946V14Zm7.71-7.406V14h-1.791v-2.912a2.955 2.955 0 0 1-.98.546 3.49 3.49 0 0 1-1.162.196c-.71 0-1.242-.196-1.597-.588-.354-.392-.531-.943-.531-1.652V6.594h1.792v2.772c0 .401.074.69.223.868.16.168.402.252.728.252.271 0 .546-.056.826-.168.29-.121.523-.27.7-.448V6.594h1.793ZM78.025 14h-1.722v-2.968c0-.541.023-1.05.07-1.526.046-.485.097-.85.153-1.092L73.767 14H71.85V6.594h1.736v2.968c0 .513-.028 1.022-.085 1.526-.046.504-.098.863-.154 1.078l2.73-5.572h1.947V14Zm7.598-7.406-.224 1.372h-2.17V14h-1.792V7.966H79.14V6.594h6.482Zm3.554 2.338c1.157 0 2.002.22 2.534.658.532.43.798 1.055.798 1.876 0 .83-.284 1.46-.854 1.89-.57.43-1.297.644-2.184.644h-2.814V6.594h1.792v2.338h.728Zm.112 3.822c.906 0 1.358-.439 1.358-1.316 0-.439-.112-.76-.336-.966-.224-.215-.606-.322-1.148-.322h-.714v2.604h.84Z" fill="#fff"/></svg>