<svg width="14" height="14" fill="none" xmlns="http://www.w3.org/2000/svg"><g clip-path="url(#a)"><circle cx="7" cy="7" r="6.25" stroke="#405460" stroke-width="1.5"/><path d="M6.822 3.11c1.36 0 2.7.62 2.7 2.102 0 1.367-1.584 1.892-1.924 2.386-.255.367-.17.883-.871.883-.457 0-.68-.367-.68-.703 0-1.252 1.859-1.535 1.859-2.566 0-.567-.382-.903-1.02-.903-1.36 0-.829 1.387-1.859 1.387-.372 0-.691-.221-.691-.641 0-1.031 1.19-1.945 2.486-1.945ZM6.77 9.164a.87.87 0 0 1 .872.862.87.87 0 0 1-.872.862.87.87 0 0 1-.871-.862.87.87 0 0 1 .871-.862Z" fill="#405460"/></g><defs><clipPath id="a"><path fill="#fff" d="M0 0h14v14H0z"/></clipPath></defs></svg>