<svg width="16" height="17" viewBox="0 0 16 17" fill="none" xmlns="http://www.w3.org/2000/svg">
<g clip-path="url(#clip0_317_6565)">
<path fill-rule="evenodd" clip-rule="evenodd" d="M8 16.438C12.4183 16.438 16 12.8563 16 8.43799C16 4.01971 12.4183 0.437988 8 0.437988C3.58173 0.437988 0 4.01971 0 8.43799C0 12.8563 3.58173 16.438 8 16.438ZM12.0455 5.36958C12.2443 5.02887 12.1294 4.59147 11.7886 4.39263C11.4479 4.19378 11.0105 4.30878 10.8117 4.64949L7.22731 10.7909L5.01767 9.0232C4.70962 8.77677 4.26013 8.82671 4.01369 9.13475C3.76726 9.44279 3.8172 9.89229 4.12525 10.1387L6.46495 12.0104C6.60875 12.1278 6.77666 12.2119 6.95673 12.257C7.13722 12.3021 7.32543 12.3068 7.5079 12.2707C7.68763 12.2363 7.85799 12.1638 8.00753 12.0583C8.15825 11.9519 8.28458 11.8138 8.37742 11.6544L12.0455 5.36958Z" fill="#0DB25A"/>
</g>
<defs>
<clipPath id="clip0_317_6565">
<rect width="16" height="16" fill="white" transform="translate(0 0.437988)"/>
</clipPath>
</defs>
</svg>
