<svg width="16" height="17" viewBox="0 0 16 17" fill="none" xmlns="http://www.w3.org/2000/svg">
<g clip-path="url(#clip0_317_6577)">
<path fill-rule="evenodd" clip-rule="evenodd" d="M8 16.438C12.4183 16.438 16 12.8563 16 8.43799C16 4.01971 12.4183 0.437988 8 0.437988C3.58173 0.437988 0 4.01971 0 8.43799C0 12.8563 3.58173 16.438 8 16.438ZM6.28571 11.1523C5.89122 11.1523 5.57143 11.4721 5.57143 11.8666C5.57143 12.2611 5.89122 12.5808 6.28571 12.5808H8H9.71429C10.1088 12.5808 10.4286 12.2611 10.4286 11.8666C10.4286 11.4721 10.1088 11.1523 9.71429 11.1523H8.71429V7.86656C8.71429 7.47207 8.39449 7.15227 8 7.15227H6.85714C6.46265 7.15227 6.14286 7.47207 6.14286 7.86656C6.14286 8.26105 6.46265 8.58085 6.85714 8.58085H7.28571V11.1523H6.28571ZM9.14286 5.00942C9.14286 5.64059 8.63118 6.15227 8 6.15227C7.36882 6.15227 6.85714 5.64059 6.85714 5.00942C6.85714 4.37824 7.36882 3.86656 8 3.86656C8.63118 3.86656 9.14286 4.37824 9.14286 5.00942Z" fill="#0067A0"/>
</g>
<defs>
<clipPath id="clip0_317_6577">
<rect width="16" height="16" fill="white" transform="translate(0 0.437988)"/>
</clipPath>
</defs>
</svg>
